{"glyphs":{"0":{"ha":799,"x_min":47,"x_max":753,"o":"m 395 -17 q 47 471 47 -17 q 141 856 47 724 q 414 989 235 989 q 753 493 753 989 q 660 115 753 246 q 395 -17 568 -17 m 404 825 q 265 476 265 825 q 401 147 265 147 q 534 486 534 147 q 404 825 534 825 z "},"1":{"ha":799,"x_min":144,"x_max":564,"o":"m 564 994 l 564 0 l 351 0 l 351 753 q 309 723 333 737 q 258 698 285 709 q 201 679 231 687 q 144 668 172 671 l 144 848 q 301 911 227 873 q 435 994 375 949 l 564 994 z "},"2":{"ha":799,"x_min":56,"x_max":705,"o":"m 291 178 l 703 178 l 703 0 l 56 0 l 56 73 q 81 207 56 148 q 144 314 106 267 q 228 397 182 361 q 313 463 273 433 q 388 521 356 493 q 443 576 420 549 q 475 632 465 604 q 486 692 486 660 q 451 786 486 754 q 343 818 416 818 q 103 718 218 818 l 103 907 q 389 989 230 989 q 522 969 463 989 q 621 914 581 950 q 683 827 662 878 q 705 713 705 776 q 684 593 705 646 q 629 498 663 541 q 550 420 595 456 q 457 351 505 385 q 394 306 425 328 q 341 261 364 283 q 304 218 318 239 q 291 178 291 197 z "},"3":{"ha":799,"x_min":79,"x_max":699,"o":"m 79 32 l 79 218 q 307 147 177 147 q 435 182 389 147 q 481 281 481 218 q 424 381 481 346 q 269 416 368 416 l 178 416 l 178 581 l 262 581 q 452 707 452 581 q 306 825 452 825 q 116 762 208 825 l 116 937 q 355 989 218 989 q 587 922 504 989 q 670 747 670 854 q 477 509 670 557 l 477 505 q 640 430 580 492 q 699 278 699 368 q 600 62 699 142 q 324 -17 500 -17 q 79 32 174 -17 z "},"4":{"ha":799,"x_min":26,"x_max":762,"o":"m 646 972 l 646 359 l 762 359 l 762 199 l 646 199 l 646 0 l 450 0 l 450 199 l 26 199 l 26 367 q 143 505 83 430 q 260 659 203 580 q 365 819 316 739 q 447 972 413 899 l 646 972 m 218 359 l 450 359 l 450 699 q 399 610 427 655 q 340 521 371 565 q 279 436 310 477 q 218 359 248 395 z "},"5":{"ha":799,"x_min":96,"x_max":707,"o":"m 96 25 l 96 208 q 309 147 196 147 q 441 188 393 147 q 489 297 489 228 q 285 441 489 441 q 111 430 210 441 l 148 972 l 663 972 l 663 798 l 311 798 l 298 603 q 388 607 350 607 q 623 528 538 607 q 707 317 707 450 q 606 76 707 170 q 332 -17 505 -17 q 96 25 192 -17 z "},"6":{"ha":799,"x_min":68,"x_max":753,"o":"m 753 323 q 728 189 753 252 q 658 81 703 127 q 551 9 613 35 q 416 -17 490 -17 q 270 14 334 -17 q 160 102 205 44 q 92 244 115 160 q 68 435 68 328 q 99 662 68 560 q 187 837 130 764 q 326 949 244 909 q 509 989 407 989 q 684 962 621 989 l 684 783 q 522 825 610 825 q 424 804 468 825 q 348 745 380 783 q 299 651 317 706 q 279 530 281 597 l 283 530 q 488 625 353 625 q 597 604 548 625 q 680 542 646 582 q 734 447 715 503 q 753 323 753 391 m 543 310 q 415 467 543 467 q 362 456 386 467 q 321 425 338 445 q 295 379 304 406 q 286 319 286 352 q 296 252 286 283 q 322 198 305 221 q 363 161 340 174 q 416 147 387 147 q 469 159 446 147 q 509 192 492 171 q 534 244 526 214 q 543 310 543 274 z "},"7":{"ha":799,"x_min":65,"x_max":742,"o":"m 742 849 q 625 629 677 732 q 534 426 574 526 q 467 223 495 326 q 422 0 439 119 l 198 0 q 248 218 217 113 q 320 422 279 323 q 411 614 361 521 q 517 798 461 708 l 65 798 l 65 972 l 742 972 l 742 849 z "},"8":{"ha":799,"x_min":54,"x_max":745,"o":"m 54 262 q 66 340 54 302 q 102 410 78 378 q 161 468 125 442 q 245 509 197 493 q 130 603 171 546 q 90 730 90 661 q 113 833 90 786 q 178 916 136 881 q 276 969 219 950 q 401 989 334 989 q 528 969 471 989 q 628 916 586 950 q 692 835 669 882 q 715 733 715 788 q 672 607 715 664 q 552 514 629 551 q 635 472 600 498 q 696 414 671 447 q 732 343 720 382 q 745 264 745 305 q 720 150 745 201 q 649 62 694 99 q 539 5 603 25 q 399 -16 476 -16 q 261 4 324 -16 q 152 61 197 24 q 80 149 106 98 q 54 262 54 200 m 257 280 q 267 220 257 247 q 296 176 277 194 q 341 148 315 157 q 400 138 368 138 q 457 148 431 138 q 503 176 484 158 q 532 221 522 195 q 543 280 543 248 q 533 336 543 309 q 504 381 523 362 q 459 412 485 401 q 400 424 433 424 q 343 413 370 424 q 298 384 317 403 q 268 338 279 364 q 257 280 257 311 m 287 711 q 296 662 287 685 q 321 623 305 640 q 358 597 336 606 q 403 587 379 587 q 448 597 427 587 q 485 623 469 606 q 510 663 501 640 q 519 711 519 685 q 511 760 519 737 q 486 799 502 783 q 449 825 470 816 q 403 835 427 835 q 356 825 377 835 q 319 799 334 815 q 295 759 304 782 q 287 711 287 736 z "},"9":{"ha":799,"x_min":53,"x_max":737,"o":"m 737 533 q 709 301 737 404 q 626 129 680 199 q 492 21 571 58 q 314 -17 414 -17 q 109 21 195 -17 l 109 197 q 293 147 185 147 q 466 222 404 147 q 529 440 528 298 l 525 441 q 329 346 460 346 q 219 368 269 346 q 131 430 168 391 q 74 525 94 470 q 53 646 53 580 q 78 785 53 722 q 148 894 103 848 q 256 964 193 939 q 396 989 319 989 q 538 958 475 989 q 646 869 602 927 q 714 726 690 810 q 737 533 737 641 m 521 647 q 511 717 521 684 q 485 774 502 750 q 444 811 468 798 q 390 825 419 825 q 339 813 362 825 q 298 780 315 801 q 272 728 281 758 q 262 664 262 699 q 272 596 262 626 q 299 547 281 567 q 340 516 316 526 q 395 505 365 505 q 446 516 423 505 q 486 547 469 528 q 512 591 503 566 q 521 647 521 617 z "},"\u0000":{"ha":0,"x_min":0,"x_max":0,"o":""},"\r":{"ha":0,"x_min":0,"x_max":0,"o":""}," ":{"ha":383,"x_min":0,"x_max":0,"o":""},"A":{"ha":977,"x_min":7,"x_max":966,"o":"m 966 0 l 728 0 l 659 216 l 313 216 l 244 0 l 7 0 l 361 972 l 621 972 l 966 0 m 608 385 l 504 711 q 488 799 492 748 l 482 799 q 465 714 479 756 l 359 385 l 608 385 z "},"a":{"ha":747,"x_min":39,"x_max":668,"o":"m 668 0 l 465 0 l 465 100 l 463 100 q 256 -17 393 -17 q 97 40 155 -17 q 39 193 39 98 q 278 427 39 395 l 467 452 q 343 566 467 566 q 107 492 219 566 l 107 653 q 230 694 152 676 q 371 711 307 711 q 668 415 668 711 l 668 0 m 467 282 l 467 329 l 340 313 q 236 218 236 299 q 261 158 236 182 q 330 135 287 135 q 429 177 391 135 q 467 282 467 218 z "},"À":{"ha":977,"x_min":7,"x_max":966,"o":"m 966 0 l 728 0 l 659 216 l 313 216 l 244 0 l 7 0 l 361 972 l 621 972 l 966 0 m 608 385 l 504 711 q 488 799 492 748 l 482 799 q 465 714 479 756 l 359 385 l 608 385 m 621 1063 l 467 1063 l 254 1282 l 445 1282 l 621 1063 z "},"à":{"ha":747,"x_min":39,"x_max":668,"o":"m 668 0 l 465 0 l 465 100 l 463 100 q 256 -17 393 -17 q 97 40 155 -17 q 39 193 39 98 q 278 427 39 395 l 467 452 q 343 566 467 566 q 107 492 219 566 l 107 653 q 230 694 152 676 q 371 711 307 711 q 668 415 668 711 l 668 0 m 467 282 l 467 329 l 340 313 q 236 218 236 299 q 261 158 236 182 q 330 135 287 135 q 429 177 391 135 q 467 282 467 218 m 526 804 l 372 804 l 159 1023 l 349 1023 l 526 804 z "},"Á":{"ha":977,"x_min":7,"x_max":966,"o":"m 966 0 l 728 0 l 659 216 l 313 216 l 244 0 l 7 0 l 361 972 l 621 972 l 966 0 m 608 385 l 504 711 q 488 799 492 748 l 482 799 q 465 714 479 756 l 359 385 l 608 385 m 703 1282 l 490 1063 l 336 1063 l 512 1282 l 703 1282 z "},"á":{"ha":747,"x_min":39,"x_max":668,"o":"m 668 0 l 465 0 l 465 100 l 463 100 q 256 -17 393 -17 q 97 40 155 -17 q 39 193 39 98 q 278 427 39 395 l 467 452 q 343 566 467 566 q 107 492 219 566 l 107 653 q 230 694 152 676 q 371 711 307 711 q 668 415 668 711 l 668 0 m 467 282 l 467 329 l 340 313 q 236 218 236 299 q 261 158 236 182 q 330 135 287 135 q 429 177 391 135 q 467 282 467 218 m 604 1023 l 392 804 l 237 804 l 414 1023 l 604 1023 z "},"Â":{"ha":977,"x_min":7,"x_max":966,"o":"m 966 0 l 728 0 l 659 216 l 313 216 l 244 0 l 7 0 l 361 972 l 621 972 l 966 0 m 608 385 l 504 711 q 488 799 492 748 l 482 799 q 465 714 479 756 l 359 385 l 608 385 m 731 1063 l 591 1063 l 484 1190 l 384 1063 l 243 1063 l 403 1283 l 571 1283 l 731 1063 z "},"â":{"ha":747,"x_min":39,"x_max":668,"o":"m 668 0 l 465 0 l 465 100 l 463 100 q 256 -17 393 -17 q 97 40 155 -17 q 39 193 39 98 q 278 427 39 395 l 467 452 q 343 566 467 566 q 107 492 219 566 l 107 653 q 230 694 152 676 q 371 711 307 711 q 668 415 668 711 l 668 0 m 467 282 l 467 329 l 340 313 q 236 218 236 299 q 261 158 236 182 q 330 135 287 135 q 429 177 391 135 q 467 282 467 218 m 620 804 l 479 804 l 372 932 l 273 804 l 132 804 l 292 1025 l 460 1025 l 620 804 z "},"Ǎ":{"ha":977,"x_min":7,"x_max":966,"o":"m 966 0 l 728 0 l 659 216 l 313 216 l 244 0 l 7 0 l 361 972 l 621 972 l 966 0 m 608 385 l 504 711 q 488 799 492 748 l 482 799 q 465 714 479 756 l 359 385 l 608 385 m 733 1277 l 572 1057 l 404 1057 l 244 1277 l 383 1277 l 488 1149 l 594 1277 l 733 1277 z "},"ǎ":{"ha":747,"x_min":39,"x_max":668,"o":"m 668 0 l 465 0 l 465 100 l 463 100 q 256 -17 393 -17 q 97 40 155 -17 q 39 193 39 98 q 278 427 39 395 l 467 452 q 343 566 467 566 q 107 492 219 566 l 107 653 q 230 694 152 676 q 371 711 307 711 q 668 415 668 711 l 668 0 m 467 282 l 467 329 l 340 313 q 236 218 236 299 q 261 158 236 182 q 330 135 287 135 q 429 177 391 135 q 467 282 467 218 m 607 1017 l 446 797 l 277 797 l 118 1017 l 257 1017 l 362 890 l 468 1017 l 607 1017 z "},"Ã":{"ha":977,"x_min":7,"x_max":966,"o":"m 966 0 l 728 0 l 659 216 l 313 216 l 244 0 l 7 0 l 361 972 l 621 972 l 966 0 m 608 385 l 504 711 q 488 799 492 748 l 482 799 q 465 714 479 756 l 359 385 l 608 385 m 730 1274 q 693 1127 730 1179 q 590 1075 655 1075 q 476 1104 532 1075 q 393 1136 416 1136 q 338 1063 338 1136 l 243 1063 q 280 1209 243 1157 q 385 1261 317 1261 q 498 1228 439 1261 q 580 1198 552 1198 q 633 1274 633 1198 l 730 1274 z "},"ã":{"ha":747,"x_min":39,"x_max":668,"o":"m 668 0 l 465 0 l 465 100 l 463 100 q 256 -17 393 -17 q 97 40 155 -17 q 39 193 39 98 q 278 427 39 395 l 467 452 q 343 566 467 566 q 107 492 219 566 l 107 653 q 230 694 152 676 q 371 711 307 711 q 668 415 668 711 l 668 0 m 467 282 l 467 329 l 340 313 q 236 218 236 299 q 261 158 236 182 q 330 135 287 135 q 429 177 391 135 q 467 282 467 218 m 615 1015 q 577 868 615 920 q 475 817 540 817 q 361 846 416 817 q 277 878 300 878 q 223 804 223 878 l 127 804 q 165 951 127 899 q 269 1003 202 1003 q 383 970 324 1003 q 465 940 437 940 q 517 1015 517 940 l 615 1015 z "},"Ä":{"ha":977,"x_min":7,"x_max":966,"o":"m 966 0 l 728 0 l 659 216 l 313 216 l 244 0 l 7 0 l 361 972 l 621 972 l 966 0 m 608 385 l 504 711 q 488 799 492 748 l 482 799 q 465 714 479 756 l 359 385 l 608 385 m 641 1063 q 566 1089 595 1063 q 537 1156 537 1116 q 566 1223 537 1197 q 641 1249 595 1249 q 716 1222 686 1249 q 745 1156 745 1196 q 716 1089 745 1115 q 641 1063 687 1063 m 330 1063 q 255 1089 284 1063 q 226 1156 226 1116 q 256 1222 226 1196 q 330 1249 286 1249 q 405 1222 376 1249 q 434 1156 434 1196 q 405 1088 434 1114 q 330 1063 376 1063 z "},"ä":{"ha":747,"x_min":39,"x_max":668,"o":"m 668 0 l 465 0 l 465 100 l 463 100 q 256 -17 393 -17 q 97 40 155 -17 q 39 193 39 98 q 278 427 39 395 l 467 452 q 343 566 467 566 q 107 492 219 566 l 107 653 q 230 694 152 676 q 371 711 307 711 q 668 415 668 711 l 668 0 m 467 282 l 467 329 l 340 313 q 236 218 236 299 q 261 158 236 182 q 330 135 287 135 q 429 177 391 135 q 467 282 467 218 m 534 804 q 459 831 488 804 q 430 897 430 857 q 459 964 430 939 q 534 990 488 990 q 609 964 579 990 q 638 897 638 938 q 609 830 638 857 q 534 804 580 804 m 223 804 q 148 831 177 804 q 119 897 119 858 q 149 964 119 938 q 223 990 178 990 q 298 964 269 990 q 327 897 327 938 q 298 830 327 856 q 223 804 269 804 z "},"Ǟ":{"ha":977,"x_min":7,"x_max":966,"o":"m 966 0 l 728 0 l 659 216 l 313 216 l 244 0 l 7 0 l 361 972 l 621 972 l 966 0 m 608 385 l 504 711 q 488 799 492 748 l 482 799 q 465 714 479 756 l 359 385 l 608 385 m 686 1299 l 288 1299 l 288 1416 l 686 1416 l 686 1299 m 641 1063 q 566 1089 595 1063 q 537 1156 537 1116 q 566 1223 537 1197 q 641 1249 595 1249 q 716 1222 686 1249 q 745 1156 745 1196 q 716 1089 745 1115 q 641 1063 687 1063 m 330 1063 q 255 1089 284 1063 q 226 1156 226 1116 q 256 1222 226 1196 q 330 1249 286 1249 q 405 1222 376 1249 q 434 1156 434 1196 q 405 1088 434 1114 q 330 1063 376 1063 z "},"ǟ":{"ha":747,"x_min":39,"x_max":668,"o":"m 668 0 l 465 0 l 465 100 l 463 100 q 256 -17 393 -17 q 97 40 155 -17 q 39 193 39 98 q 278 427 39 395 l 467 452 q 343 566 467 566 q 107 492 219 566 l 107 653 q 230 694 152 676 q 371 711 307 711 q 668 415 668 711 l 668 0 m 467 282 l 467 329 l 340 313 q 236 218 236 299 q 261 158 236 182 q 330 135 287 135 q 429 177 391 135 q 467 282 467 218 m 534 804 q 459 831 488 804 q 430 897 430 857 q 459 964 430 939 q 534 990 488 990 q 609 964 579 990 q 638 897 638 938 q 609 830 638 857 q 534 804 580 804 m 223 804 q 148 831 177 804 q 119 897 119 858 q 149 964 119 938 q 223 990 178 990 q 298 964 269 990 q 327 897 327 938 q 298 830 327 856 q 223 804 269 804 m 579 1043 l 182 1043 l 182 1160 l 579 1160 l 579 1043 z "},"Ā":{"ha":977,"x_min":7,"x_max":966,"o":"m 966 0 l 728 0 l 659 216 l 313 216 l 244 0 l 7 0 l 361 972 l 621 972 l 966 0 m 608 385 l 504 711 q 488 799 492 748 l 482 799 q 465 714 479 756 l 359 385 l 608 385 m 684 1063 l 287 1063 l 287 1179 l 684 1179 l 684 1063 z "},"ā":{"ha":747,"x_min":39,"x_max":668,"o":"m 668 0 l 465 0 l 465 100 l 463 100 q 256 -17 393 -17 q 97 40 155 -17 q 39 193 39 98 q 278 427 39 395 l 467 452 q 343 566 467 566 q 107 492 219 566 l 107 653 q 230 694 152 676 q 371 711 307 711 q 668 415 668 711 l 668 0 m 467 282 l 467 329 l 340 313 q 236 218 236 299 q 261 158 236 182 q 330 135 287 135 q 429 177 391 135 q 467 282 467 218 m 568 804 l 170 804 l 170 921 l 568 921 l 568 804 z "},"Ă":{"ha":977,"x_min":7,"x_max":966,"o":"m 966 0 l 728 0 l 659 216 l 313 216 l 244 0 l 7 0 l 361 972 l 621 972 l 966 0 m 608 385 l 504 711 q 488 799 492 748 l 482 799 q 465 714 479 756 l 359 385 l 608 385 m 717 1271 q 647 1119 709 1175 q 486 1063 586 1063 q 325 1121 387 1063 q 260 1271 262 1179 l 381 1271 q 489 1179 393 1179 q 595 1271 582 1179 l 717 1271 z "},"ă":{"ha":747,"x_min":39,"x_max":668,"o":"m 668 0 l 465 0 l 465 100 l 463 100 q 256 -17 393 -17 q 97 40 155 -17 q 39 193 39 98 q 278 427 39 395 l 467 452 q 343 566 467 566 q 107 492 219 566 l 107 653 q 230 694 152 676 q 371 711 307 711 q 668 415 668 711 l 668 0 m 467 282 l 467 329 l 340 313 q 236 218 236 299 q 261 158 236 182 q 330 135 287 135 q 429 177 391 135 q 467 282 467 218 m 616 1013 q 546 861 608 917 q 385 804 485 804 q 224 862 286 804 q 159 1013 161 920 l 280 1013 q 388 921 292 921 q 494 1013 481 921 l 616 1013 z "},"Å":{"ha":977,"x_min":7,"x_max":966,"o":"m 966 0 l 728 0 l 659 216 l 313 216 l 244 0 l 7 0 l 354 954 q 318 1047 318 991 q 368 1162 318 1119 q 490 1204 418 1204 q 615 1161 568 1204 q 663 1050 663 1118 q 627 957 663 996 l 966 0 m 488 1116 q 437 1096 456 1116 q 418 1048 418 1077 q 488 982 418 982 q 540 1001 520 982 q 559 1048 559 1021 q 539 1097 559 1078 q 488 1116 519 1116 m 606 396 l 503 711 q 488 793 494 739 l 482 793 q 467 714 477 747 l 363 396 l 606 396 z "},"å":{"ha":747,"x_min":39,"x_max":668,"o":"m 668 0 l 465 0 l 465 100 l 463 100 q 256 -17 393 -17 q 97 40 155 -17 q 39 193 39 98 q 278 427 39 395 l 467 452 q 343 566 467 566 q 107 492 219 566 l 107 653 q 230 694 152 676 q 371 711 307 711 q 668 415 668 711 l 668 0 m 467 282 l 467 329 l 340 313 q 236 218 236 299 q 261 158 236 182 q 330 135 287 135 q 429 177 391 135 q 467 282 467 218 m 389 804 q 274 845 319 804 q 229 950 229 885 q 276 1059 229 1019 q 392 1100 323 1100 q 509 1060 465 1100 q 554 954 554 1019 q 506 846 554 888 q 389 804 457 804 m 389 1017 q 323 953 323 1017 q 389 889 323 889 q 439 908 419 889 q 458 953 458 926 q 439 999 458 981 q 389 1017 420 1017 z "},"Ǻ":{"ha":977,"x_min":7,"x_max":966,"o":"m 966 0 l 728 0 l 659 216 l 313 216 l 244 0 l 7 0 l 354 954 q 318 1047 318 991 q 368 1162 318 1119 q 490 1204 418 1204 q 615 1161 568 1204 q 663 1050 663 1118 q 627 957 663 996 l 966 0 m 488 1116 q 437 1096 456 1116 q 418 1048 418 1077 q 488 982 418 982 q 540 1001 520 982 q 559 1048 559 1021 q 539 1097 559 1078 q 488 1116 519 1116 m 606 396 l 503 711 q 488 793 494 739 l 482 793 q 467 714 477 747 l 363 396 l 606 396 m 680 1440 l 500 1274 l 367 1274 l 489 1440 l 680 1440 z "},"ǻ":{"ha":747,"x_min":39,"x_max":668,"o":"m 668 0 l 465 0 l 465 100 l 463 100 q 256 -17 393 -17 q 97 40 155 -17 q 39 193 39 98 q 278 427 39 395 l 467 452 q 343 566 467 566 q 107 492 219 566 l 107 653 q 230 694 152 676 q 371 711 307 711 q 668 415 668 711 l 668 0 m 467 282 l 467 329 l 340 313 q 236 218 236 299 q 261 158 236 182 q 330 135 287 135 q 429 177 391 135 q 467 282 467 218 m 389 777 q 274 818 319 777 q 229 923 229 858 q 276 1032 229 991 q 392 1073 323 1073 q 509 1033 465 1073 q 554 927 554 992 q 506 819 554 861 q 389 777 457 777 m 389 989 q 323 926 323 989 q 389 862 323 862 q 439 881 419 862 q 458 926 458 899 q 439 971 458 954 q 389 989 420 989 m 604 1349 l 392 1130 l 237 1130 l 414 1349 l 604 1349 z "},"Ȃ":{"ha":977,"x_min":7,"x_max":966,"o":"m 966 0 l 728 0 l 659 216 l 313 216 l 244 0 l 7 0 l 361 972 l 621 972 l 966 0 m 608 385 l 504 711 q 488 799 492 748 l 482 799 q 465 714 479 756 l 359 385 l 608 385 m 713 1063 l 591 1063 q 484 1154 579 1154 q 378 1063 391 1154 l 256 1063 q 325 1215 264 1158 q 486 1271 387 1271 q 648 1213 585 1271 q 713 1063 710 1155 z "},"ȃ":{"ha":747,"x_min":39,"x_max":668,"o":"m 668 0 l 465 0 l 465 100 l 463 100 q 256 -17 393 -17 q 97 40 155 -17 q 39 193 39 98 q 278 427 39 395 l 467 452 q 343 566 467 566 q 107 492 219 566 l 107 653 q 230 694 152 676 q 371 711 307 711 q 668 415 668 711 l 668 0 m 467 282 l 467 329 l 340 313 q 236 218 236 299 q 261 158 236 182 q 330 135 287 135 q 429 177 391 135 q 467 282 467 218 m 586 804 l 464 804 q 357 896 452 896 q 251 804 264 896 l 129 804 q 198 956 137 900 q 359 1013 260 1013 q 521 955 458 1013 q 586 804 583 897 z "},"Ȧ":{"ha":977,"x_min":7,"x_max":966,"o":"m 966 0 l 728 0 l 659 216 l 313 216 l 244 0 l 7 0 l 361 972 l 621 972 l 966 0 m 608 385 l 504 711 q 488 799 492 748 l 482 799 q 465 714 479 756 l 359 385 l 608 385 m 488 1063 q 413 1090 443 1063 q 384 1156 384 1117 q 414 1222 384 1196 q 488 1247 444 1247 q 563 1221 534 1247 q 591 1156 591 1196 q 563 1089 591 1116 q 488 1063 534 1063 z "},"ȧ":{"ha":747,"x_min":39,"x_max":668,"o":"m 668 0 l 465 0 l 465 100 l 463 100 q 256 -17 393 -17 q 97 40 155 -17 q 39 193 39 98 q 278 427 39 395 l 467 452 q 343 566 467 566 q 107 492 219 566 l 107 653 q 230 694 152 676 q 371 711 307 711 q 668 415 668 711 l 668 0 m 467 282 l 467 329 l 340 313 q 236 218 236 299 q 261 158 236 182 q 330 135 287 135 q 429 177 391 135 q 467 282 467 218 m 375 808 q 300 836 330 808 q 271 901 271 863 q 300 967 271 942 q 375 993 330 993 q 449 967 420 993 q 478 901 478 941 q 449 835 478 861 q 375 808 420 808 z "},"Ǡ":{"ha":977,"x_min":7,"x_max":966,"o":"m 966 0 l 728 0 l 659 216 l 313 216 l 244 0 l 7 0 l 361 972 l 621 972 l 966 0 m 608 385 l 504 711 q 488 799 492 748 l 482 799 q 465 714 479 756 l 359 385 l 608 385 m 488 1056 q 413 1083 443 1056 q 384 1149 384 1110 q 414 1215 384 1190 q 488 1240 444 1240 q 563 1215 534 1240 q 591 1149 591 1189 q 563 1082 591 1109 q 488 1056 534 1056 m 688 1279 l 290 1279 l 290 1396 l 688 1396 l 688 1279 z "},"ǡ":{"ha":747,"x_min":39,"x_max":668,"o":"m 668 0 l 465 0 l 465 100 l 463 100 q 256 -17 393 -17 q 97 40 155 -17 q 39 193 39 98 q 278 427 39 395 l 467 452 q 343 566 467 566 q 107 492 219 566 l 107 653 q 230 694 152 676 q 371 711 307 711 q 668 415 668 711 l 668 0 m 467 282 l 467 329 l 340 313 q 236 218 236 299 q 261 158 236 182 q 330 135 287 135 q 429 177 391 135 q 467 282 467 218 m 375 804 q 300 831 330 804 q 271 897 271 859 q 300 963 271 938 q 375 989 330 989 q 449 963 420 989 q 478 897 478 937 q 449 831 478 857 q 375 804 420 804 m 574 1023 l 176 1023 l 176 1140 l 574 1140 l 574 1023 z "},"Ȁ":{"ha":977,"x_min":7,"x_max":966,"o":"m 966 0 l 728 0 l 659 216 l 313 216 l 244 0 l 7 0 l 361 972 l 621 972 l 966 0 m 608 385 l 504 711 q 488 799 492 748 l 482 799 q 465 714 479 756 l 359 385 l 608 385 m 691 1063 l 548 1063 l 380 1279 l 548 1279 l 691 1063 m 437 1063 l 294 1063 l 123 1279 l 293 1279 l 437 1063 z "},"ȁ":{"ha":747,"x_min":30,"x_max":668,"o":"m 668 0 l 465 0 l 465 100 l 463 100 q 256 -17 393 -17 q 97 40 155 -17 q 39 193 39 98 q 278 427 39 395 l 467 452 q 343 566 467 566 q 107 492 219 566 l 107 653 q 230 694 152 676 q 371 711 307 711 q 668 415 668 711 l 668 0 m 467 282 l 467 329 l 340 313 q 236 218 236 299 q 261 158 236 182 q 330 135 287 135 q 429 177 391 135 q 467 282 467 218 m 597 804 l 454 804 l 287 1021 l 454 1021 l 597 804 m 344 804 l 201 804 l 30 1021 l 199 1021 l 344 804 z "},"Ḁ":{"ha":977,"x_min":7,"x_max":966,"o":"m 966 0 l 728 0 l 659 216 l 313 216 l 244 0 l 7 0 l 361 972 l 621 972 l 966 0 m 608 385 l 504 711 q 488 799 492 748 l 482 799 q 465 714 479 756 l 359 385 l 608 385 m 488 -348 q 373 -308 418 -348 q 328 -202 328 -267 q 375 -93 328 -134 q 491 -52 422 -52 q 608 -93 564 -52 q 653 -198 653 -133 q 605 -306 653 -264 q 488 -348 556 -348 m 488 -136 q 422 -199 422 -136 q 488 -263 422 -263 q 538 -244 518 -263 q 557 -199 557 -226 q 538 -154 557 -172 q 488 -136 519 -136 z "},"ḁ":{"ha":747,"x_min":39,"x_max":668,"o":"m 668 0 l 465 0 l 465 100 l 463 100 q 256 -17 393 -17 q 97 40 155 -17 q 39 193 39 98 q 278 427 39 395 l 467 452 q 343 566 467 566 q 107 492 219 566 l 107 653 q 230 694 152 676 q 371 711 307 711 q 668 415 668 711 l 668 0 m 467 282 l 467 329 l 340 313 q 236 218 236 299 q 261 158 236 182 q 330 135 287 135 q 429 177 391 135 q 467 282 467 218 m 349 -348 q 235 -308 280 -348 q 190 -202 190 -267 q 237 -93 190 -134 q 353 -52 284 -52 q 470 -93 425 -52 q 515 -198 515 -133 q 466 -306 515 -264 q 349 -348 418 -348 m 349 -136 q 284 -199 284 -136 q 349 -263 284 -263 q 399 -244 380 -263 q 419 -199 419 -226 q 400 -154 419 -172 q 349 -136 380 -136 z "},"Ạ":{"ha":977,"x_min":7,"x_max":966,"o":"m 966 0 l 728 0 l 659 216 l 313 216 l 244 0 l 7 0 l 361 972 l 621 972 l 966 0 m 608 385 l 504 711 q 488 799 492 748 l 482 799 q 465 714 479 756 l 359 385 l 608 385 m 492 -265 q 417 -238 446 -265 q 387 -172 387 -211 q 417 -106 387 -132 q 492 -81 447 -81 q 566 -106 537 -81 q 595 -172 595 -132 q 566 -239 595 -212 q 492 -265 537 -265 z "},"ạ":{"ha":747,"x_min":39,"x_max":668,"o":"m 668 0 l 465 0 l 465 100 l 463 100 q 256 -17 393 -17 q 97 40 155 -17 q 39 193 39 98 q 278 427 39 395 l 467 452 q 343 566 467 566 q 107 492 219 566 l 107 653 q 230 694 152 676 q 371 711 307 711 q 668 415 668 711 l 668 0 m 467 282 l 467 329 l 340 313 q 236 218 236 299 q 261 158 236 182 q 330 135 287 135 q 429 177 391 135 q 467 282 467 218 m 368 -265 q 293 -238 322 -265 q 263 -172 263 -211 q 293 -106 263 -132 q 368 -81 323 -81 q 442 -106 413 -81 q 471 -172 471 -132 q 442 -239 471 -212 q 368 -265 413 -265 z "},"Ą":{"ha":977,"x_min":7,"x_max":966,"o":"m 966 0 l 728 0 l 659 216 l 313 216 l 244 0 l 7 0 l 361 972 l 621 972 l 966 0 m 608 385 l 504 711 q 488 799 492 748 l 482 799 q 465 714 479 756 l 359 385 l 608 385 m 828 -271 q 789 -280 812 -277 q 743 -284 766 -284 q 650 -254 685 -284 q 616 -166 616 -224 q 623 -122 616 -145 q 645 -78 631 -100 q 680 -36 659 -56 q 728 0 701 -16 l 833 0 q 755 -76 781 -39 q 730 -141 730 -113 q 741 -175 730 -163 q 772 -186 753 -186 q 800 -184 785 -186 q 827 -178 814 -182 l 828 -271 z "},"ą":{"ha":747,"x_min":39,"x_max":668,"o":"m 668 0 l 465 0 l 465 100 l 463 100 q 256 -17 393 -17 q 97 40 155 -17 q 39 193 39 98 q 278 427 39 395 l 467 452 q 343 566 467 566 q 107 492 219 566 l 107 653 q 230 694 152 676 q 371 711 307 711 q 668 415 668 711 l 668 0 m 467 282 l 467 329 l 340 313 q 236 218 236 299 q 261 158 236 182 q 330 135 287 135 q 429 177 391 135 q 467 282 467 218 m 566 -271 q 527 -280 549 -277 q 480 -284 504 -284 q 388 -254 422 -284 q 353 -166 353 -224 q 361 -122 353 -145 q 382 -78 368 -100 q 418 -36 397 -56 q 466 0 439 -16 l 571 0 q 493 -76 518 -39 q 467 -141 467 -113 q 479 -175 467 -163 q 510 -186 490 -186 q 537 -184 523 -186 q 565 -178 551 -182 l 566 -271 z "},"Ɑ":{"ha":1076,"x_min":50,"x_max":964,"o":"m 516 800 q 421 777 464 800 q 347 713 378 754 q 298 613 315 671 q 281 486 281 555 q 297 358 281 416 q 344 259 314 300 q 416 196 374 218 q 510 173 458 173 q 608 194 565 173 q 682 255 652 215 q 729 353 713 295 q 745 484 745 410 l 745 491 q 729 622 745 564 q 683 719 713 680 q 611 779 654 758 q 516 800 569 800 m 762 0 l 762 144 q 626 24 703 64 q 449 -16 550 -16 q 284 20 358 -16 q 159 121 211 56 q 78 276 106 186 q 50 475 50 366 q 79 686 50 591 q 160 848 107 781 q 290 952 214 916 q 462 989 366 989 q 545 981 505 989 q 622 956 585 973 q 692 910 659 938 q 758 840 726 882 l 758 972 l 964 972 l 964 0 l 762 0 z "},"ɑ":{"ha":860,"x_min":49,"x_max":770,"o":"m 770 0 l 555 0 l 555 96 l 553 96 q 338 -17 479 -17 q 128 75 208 -17 q 49 332 49 167 q 136 608 49 504 q 366 711 224 711 q 553 615 500 711 l 555 615 l 555 694 l 770 694 l 770 0 m 559 338 l 559 390 q 520 503 559 458 q 418 547 481 547 q 307 491 347 547 q 267 338 267 435 q 305 197 267 246 q 412 147 344 147 q 518 199 477 147 q 559 338 559 252 z "},"Ʌ":{"ha":962,"x_min":7,"x_max":950,"o":"m 950 0 l 711 0 l 499 705 q 481 796 487 745 l 476 796 q 456 707 471 757 l 243 0 l 7 0 l 351 972 l 618 972 l 950 0 z "},"ʌ":{"ha":753,"x_min":3,"x_max":751,"o":"m 751 0 l 522 0 l 401 428 q 378 551 383 494 l 375 551 q 350 432 367 491 l 227 0 l 3 0 l 261 694 l 505 694 l 751 0 z "},"Ɐ":{"ha":977,"x_min":7,"x_max":966,"o":"m 621 0 l 361 0 l 7 972 l 244 972 l 313 756 l 659 756 l 728 972 l 966 972 l 621 0 m 359 588 l 465 258 q 482 174 479 216 l 488 174 q 504 261 492 224 l 608 588 l 359 588 z "},"ɐ":{"ha":747,"x_min":66,"x_max":696,"o":"m 268 243 q 392 129 268 129 q 628 203 519 129 l 628 41 q 506 1 585 19 q 364 -17 428 -17 q 66 279 66 -17 l 66 694 l 269 694 l 269 595 l 272 595 q 479 711 341 711 q 638 654 581 711 q 696 501 696 597 q 457 268 696 300 l 268 243 m 268 366 l 395 382 q 498 476 498 395 q 473 536 498 513 q 404 559 447 559 q 306 518 344 559 q 268 412 268 477 l 268 366 z "},"Æ":{"ha":1299,"x_min":-1,"x_max":1254,"o":"m 1254 0 l 672 0 l 672 216 l 353 216 l 253 0 l -1 0 l 490 972 l 1232 972 l 1232 794 l 890 794 l 890 578 l 1208 578 l 1208 400 l 890 400 l 890 178 l 1254 178 l 1254 0 m 672 385 l 672 794 l 619 794 l 428 385 l 672 385 z "},"æ":{"ha":1150,"x_min":39,"x_max":1112,"o":"m 1112 286 l 660 286 q 851 135 673 135 q 1053 189 960 135 l 1053 36 q 796 -17 947 -17 q 526 104 614 -17 l 524 104 q 278 -17 428 -17 q 102 39 165 -17 q 39 195 39 95 q 104 353 39 294 q 292 422 170 413 l 465 436 q 340 566 465 566 q 107 493 222 566 l 107 653 q 358 711 234 711 q 578 621 517 711 l 581 621 q 802 711 670 711 q 1029 621 947 711 q 1112 374 1112 531 l 1112 286 m 914 418 q 794 567 914 567 q 705 525 743 567 q 660 418 667 483 l 914 418 m 465 281 l 465 311 l 359 302 q 235 214 235 292 q 261 157 235 180 q 330 135 288 135 q 427 175 389 135 q 465 281 465 216 z "},"Ǽ":{"ha":1299,"x_min":-1,"x_max":1254,"o":"m 1254 0 l 672 0 l 672 216 l 353 216 l 253 0 l -1 0 l 490 972 l 1232 972 l 1232 794 l 890 794 l 890 578 l 1208 578 l 1208 400 l 890 400 l 890 178 l 1254 178 l 1254 0 m 672 385 l 672 794 l 619 794 l 428 385 l 672 385 m 1035 1282 l 823 1063 l 668 1063 l 844 1282 l 1035 1282 z "},"ǽ":{"ha":1150,"x_min":39,"x_max":1112,"o":"m 1112 286 l 660 286 q 851 135 673 135 q 1053 189 960 135 l 1053 36 q 796 -17 947 -17 q 526 104 614 -17 l 524 104 q 278 -17 428 -17 q 102 39 165 -17 q 39 195 39 95 q 104 353 39 294 q 292 422 170 413 l 465 436 q 340 566 465 566 q 107 493 222 566 l 107 653 q 358 711 234 711 q 578 621 517 711 l 581 621 q 802 711 670 711 q 1029 621 947 711 q 1112 374 1112 531 l 1112 286 m 914 418 q 794 567 914 567 q 705 525 743 567 q 660 418 667 483 l 914 418 m 465 281 l 465 311 l 359 302 q 235 214 235 292 q 261 157 235 180 q 330 135 288 135 q 427 175 389 135 q 465 281 465 216 m 800 1023 l 588 804 l 433 804 l 610 1023 l 800 1023 z "},"Ǣ":{"ha":1299,"x_min":-1,"x_max":1254,"o":"m 1254 0 l 672 0 l 672 216 l 353 216 l 253 0 l -1 0 l 490 972 l 1232 972 l 1232 794 l 890 794 l 890 578 l 1208 578 l 1208 400 l 890 400 l 890 178 l 1254 178 l 1254 0 m 672 385 l 672 794 l 619 794 l 428 385 l 672 385 m 1053 1075 l 655 1075 l 655 1192 l 1053 1192 l 1053 1075 z "},"ǣ":{"ha":1150,"x_min":39,"x_max":1112,"o":"m 1112 286 l 660 286 q 851 135 673 135 q 1053 189 960 135 l 1053 36 q 796 -17 947 -17 q 526 104 614 -17 l 524 104 q 278 -17 428 -17 q 102 39 165 -17 q 39 195 39 95 q 104 353 39 294 q 292 422 170 413 l 465 436 q 340 566 465 566 q 107 493 222 566 l 107 653 q 358 711 234 711 q 578 621 517 711 l 581 621 q 802 711 670 711 q 1029 621 947 711 q 1112 374 1112 531 l 1112 286 m 914 418 q 794 567 914 567 q 705 525 743 567 q 660 418 667 483 l 914 418 m 465 281 l 465 311 l 359 302 q 235 214 235 292 q 261 157 235 180 q 330 135 288 135 q 427 175 389 135 q 465 281 465 216 m 774 821 l 377 821 l 377 937 l 774 937 l 774 821 z "},"B":{"ha":890,"x_min":111,"x_max":842,"o":"m 111 0 l 111 972 l 465 972 q 715 913 628 972 q 803 745 803 853 q 750 607 803 666 q 614 525 696 548 l 614 522 q 780 446 718 509 q 842 290 842 382 q 746 78 842 157 q 485 0 650 0 l 111 0 m 330 811 l 330 581 l 427 581 q 533 613 494 581 q 572 704 572 646 q 412 811 572 811 l 330 811 m 330 418 l 330 161 l 449 161 q 568 197 525 161 q 611 293 611 232 q 569 385 611 351 q 450 418 526 418 l 330 418 z "},"b":{"ha":861,"x_min":90,"x_max":812,"o":"m 307 81 l 304 81 l 304 0 l 90 0 l 90 1028 l 304 1028 l 304 590 l 307 590 q 533 711 387 711 q 740 619 667 711 q 812 367 812 527 q 728 88 812 193 q 501 -17 643 -17 q 307 81 373 -17 m 301 374 l 301 302 q 340 191 301 235 q 439 147 378 147 q 552 204 512 147 q 593 364 593 260 q 556 499 593 450 q 450 547 519 547 q 343 499 386 547 q 301 374 301 451 z "},"Ḃ":{"ha":890,"x_min":111,"x_max":842,"o":"m 111 0 l 111 972 l 465 972 q 715 913 628 972 q 803 745 803 853 q 750 607 803 666 q 614 525 696 548 l 614 522 q 780 446 718 509 q 842 290 842 382 q 746 78 842 157 q 485 0 650 0 l 111 0 m 330 811 l 330 581 l 427 581 q 533 613 494 581 q 572 704 572 646 q 412 811 572 811 l 330 811 m 330 418 l 330 161 l 449 161 q 568 197 525 161 q 611 293 611 232 q 569 385 611 351 q 450 418 526 418 l 330 418 m 430 1063 q 355 1090 385 1063 q 326 1156 326 1117 q 355 1222 326 1196 q 430 1247 385 1247 q 504 1221 475 1247 q 533 1156 533 1196 q 504 1089 533 1116 q 430 1063 475 1063 z "},"ḃ":{"ha":861,"x_min":90,"x_max":812,"o":"m 307 81 l 304 81 l 304 0 l 90 0 l 90 1028 l 304 1028 l 304 590 l 307 590 q 533 711 387 711 q 740 619 667 711 q 812 367 812 527 q 728 88 812 193 q 501 -17 643 -17 q 307 81 373 -17 m 301 374 l 301 302 q 340 191 301 235 q 439 147 378 147 q 552 204 512 147 q 593 364 593 260 q 556 499 593 450 q 450 547 519 547 q 343 499 386 547 q 301 374 301 451 m 514 804 q 439 831 469 804 q 410 897 410 859 q 439 963 410 938 q 514 989 469 989 q 588 963 559 989 q 617 897 617 937 q 588 831 617 857 q 514 804 559 804 z "},"Ḇ":{"ha":890,"x_min":111,"x_max":842,"o":"m 111 0 l 111 972 l 465 972 q 715 913 628 972 q 803 745 803 853 q 750 607 803 666 q 614 525 696 548 l 614 522 q 780 446 718 509 q 842 290 842 382 q 746 78 842 157 q 485 0 650 0 l 111 0 m 330 811 l 330 581 l 427 581 q 533 613 494 581 q 572 704 572 646 q 412 811 572 811 l 330 811 m 330 418 l 330 161 l 449 161 q 568 197 525 161 q 611 293 611 232 q 569 385 611 351 q 450 418 526 418 l 330 418 m 648 -197 l 250 -197 l 250 -81 l 648 -81 l 648 -197 z "},"ḇ":{"ha":861,"x_min":90,"x_max":812,"o":"m 661 -197 l 264 -197 l 264 -81 l 661 -81 l 661 -197 m 307 81 l 304 81 l 304 0 l 90 0 l 90 1028 l 304 1028 l 304 590 l 307 590 q 533 711 387 711 q 740 619 667 711 q 812 367 812 527 q 728 88 812 193 q 501 -17 643 -17 q 307 81 373 -17 m 301 374 l 301 302 q 340 191 301 235 q 439 147 378 147 q 552 204 512 147 q 593 364 593 260 q 556 499 593 450 q 450 547 519 547 q 343 499 386 547 q 301 374 301 451 z "},"Ḅ":{"ha":890,"x_min":111,"x_max":842,"o":"m 111 0 l 111 972 l 465 972 q 715 913 628 972 q 803 745 803 853 q 750 607 803 666 q 614 525 696 548 l 614 522 q 780 446 718 509 q 842 290 842 382 q 746 78 842 157 q 485 0 650 0 l 111 0 m 330 811 l 330 581 l 427 581 q 533 613 494 581 q 572 704 572 646 q 412 811 572 811 l 330 811 m 330 418 l 330 161 l 449 161 q 568 197 525 161 q 611 293 611 232 q 569 385 611 351 q 450 418 526 418 l 330 418 m 439 -265 q 364 -238 393 -265 q 334 -172 334 -211 q 364 -106 334 -132 q 439 -81 394 -81 q 513 -106 484 -81 q 542 -172 542 -132 q 513 -239 542 -212 q 439 -265 484 -265 z "},"ḅ":{"ha":861,"x_min":90,"x_max":812,"o":"m 307 81 l 304 81 l 304 0 l 90 0 l 90 1028 l 304 1028 l 304 590 l 307 590 q 533 711 387 711 q 740 619 667 711 q 812 367 812 527 q 728 88 812 193 q 501 -17 643 -17 q 307 81 373 -17 m 301 374 l 301 302 q 340 191 301 235 q 439 147 378 147 q 552 204 512 147 q 593 364 593 260 q 556 499 593 450 q 450 547 519 547 q 343 499 386 547 q 301 374 301 451 m 484 -265 q 409 -238 439 -265 q 380 -172 380 -211 q 410 -106 380 -132 q 484 -81 439 -81 q 558 -106 530 -81 q 587 -172 587 -132 q 558 -239 587 -212 q 484 -265 530 -265 z "},"Ɓ":{"ha":1100,"x_min":-35,"x_max":1050,"o":"m 319 0 l 319 811 l 289 811 q 197 775 232 811 q 161 684 161 739 q 176 591 161 637 l -18 591 q -35 692 -35 635 q 55 893 -35 814 q 297 972 144 972 l 673 972 q 924 913 836 972 q 1011 745 1011 853 q 958 606 1011 665 q 822 525 904 547 l 822 522 q 988 446 926 509 q 1050 290 1050 382 q 954 78 1050 157 q 693 0 859 0 l 319 0 m 539 811 l 539 581 l 635 581 q 742 613 703 581 q 781 704 781 646 q 621 811 781 811 l 539 811 m 539 418 l 539 161 l 657 161 q 776 197 733 161 q 819 293 819 232 q 777 385 819 351 q 659 418 734 418 l 539 418 z "},"ɓ":{"ha":859,"x_min":90,"x_max":810,"o":"m 307 81 l 304 81 l 304 0 l 90 0 l 90 707 q 185 956 90 868 q 458 1044 281 1044 q 619 1019 546 1044 l 619 848 q 465 880 547 880 q 304 708 304 880 l 304 590 l 307 590 q 530 711 387 711 q 737 619 665 711 q 810 367 810 527 q 725 88 810 193 q 500 -17 641 -17 q 307 81 374 -17 m 301 374 l 301 302 q 340 192 301 236 q 440 147 380 147 q 555 204 515 147 q 595 364 595 261 q 557 498 595 450 q 450 547 519 547 q 343 499 386 547 q 301 374 301 451 z "},"C":{"ha":867,"x_min":50,"x_max":808,"o":"m 808 35 q 530 -17 702 -17 q 178 115 307 -17 q 50 465 50 246 q 194 844 50 699 q 568 989 338 989 q 808 953 711 989 l 808 742 q 586 800 711 800 q 365 714 449 800 q 281 481 281 628 q 360 256 281 340 q 574 172 439 172 q 808 235 702 172 l 808 35 z "},"c":{"ha":667,"x_min":49,"x_max":616,"o":"m 616 25 q 407 -17 544 -17 q 148 80 247 -17 q 49 330 49 177 q 155 609 49 507 q 439 711 261 711 q 616 679 562 711 l 616 497 q 467 547 549 547 q 320 493 374 547 q 267 345 267 439 q 318 200 267 252 q 460 147 370 147 q 616 197 540 147 l 616 25 z "},"Ć":{"ha":867,"x_min":50,"x_max":808,"o":"m 808 35 q 530 -17 702 -17 q 178 115 307 -17 q 50 465 50 246 q 194 844 50 699 q 568 989 338 989 q 808 953 711 989 l 808 742 q 586 800 711 800 q 365 714 449 800 q 281 481 281 628 q 360 256 281 340 q 574 172 439 172 q 808 235 702 172 l 808 35 m 786 1282 l 574 1063 l 419 1063 l 595 1282 l 786 1282 z "},"ć":{"ha":667,"x_min":49,"x_max":628,"o":"m 616 25 q 407 -17 544 -17 q 148 80 247 -17 q 49 330 49 177 q 155 609 49 507 q 439 711 261 711 q 616 679 562 711 l 616 497 q 467 547 549 547 q 320 493 374 547 q 267 345 267 439 q 318 200 267 252 q 460 147 370 147 q 616 197 540 147 l 616 25 m 628 1023 l 416 804 l 261 804 l 437 1023 l 628 1023 z "},"Ĉ":{"ha":867,"x_min":50,"x_max":808,"o":"m 808 35 q 530 -17 702 -17 q 178 115 307 -17 q 50 465 50 246 q 194 844 50 699 q 568 989 338 989 q 808 953 711 989 l 808 742 q 586 800 711 800 q 365 714 449 800 q 281 481 281 628 q 360 256 281 340 q 574 172 439 172 q 808 235 702 172 l 808 35 m 786 1063 l 646 1063 l 538 1190 l 439 1063 l 298 1063 l 458 1283 l 626 1283 l 786 1063 z "},"ĉ":{"ha":667,"x_min":49,"x_max":646,"o":"m 616 25 q 407 -17 544 -17 q 148 80 247 -17 q 49 330 49 177 q 155 609 49 507 q 439 711 261 711 q 616 679 562 711 l 616 497 q 467 547 549 547 q 320 493 374 547 q 267 345 267 439 q 318 200 267 252 q 460 147 370 147 q 616 197 540 147 l 616 25 m 646 804 l 506 804 l 399 932 l 299 804 l 159 804 l 318 1025 l 486 1025 l 646 804 z "},"Č":{"ha":867,"x_min":50,"x_max":808,"o":"m 808 35 q 530 -17 702 -17 q 178 115 307 -17 q 50 465 50 246 q 194 844 50 699 q 568 989 338 989 q 808 953 711 989 l 808 742 q 586 800 711 800 q 365 714 449 800 q 281 481 281 628 q 360 256 281 340 q 574 172 439 172 q 808 235 702 172 l 808 35 m 789 1283 l 627 1063 l 459 1063 l 300 1283 l 439 1283 l 544 1156 l 650 1283 l 789 1283 z "},"č":{"ha":667,"x_min":49,"x_max":644,"o":"m 616 25 q 407 -17 544 -17 q 148 80 247 -17 q 49 330 49 177 q 155 609 49 507 q 439 711 261 711 q 616 679 562 711 l 616 497 q 467 547 549 547 q 320 493 374 547 q 267 345 267 439 q 318 200 267 252 q 460 147 370 147 q 616 197 540 147 l 616 25 m 644 1025 l 483 804 l 315 804 l 155 1025 l 294 1025 l 399 897 l 505 1025 l 644 1025 z "},"Ċ":{"ha":867,"x_min":50,"x_max":808,"o":"m 808 35 q 530 -17 702 -17 q 178 115 307 -17 q 50 465 50 246 q 194 844 50 699 q 568 989 338 989 q 808 953 711 989 l 808 742 q 586 800 711 800 q 365 714 449 800 q 281 481 281 628 q 360 256 281 340 q 574 172 439 172 q 808 235 702 172 l 808 35 m 555 1063 q 480 1090 510 1063 q 451 1156 451 1117 q 481 1222 451 1196 q 555 1247 511 1247 q 630 1221 601 1247 q 659 1156 659 1196 q 630 1089 659 1116 q 555 1063 601 1063 z "},"ċ":{"ha":667,"x_min":49,"x_max":616,"o":"m 616 25 q 407 -17 544 -17 q 148 80 247 -17 q 49 330 49 177 q 155 609 49 507 q 439 711 261 711 q 616 679 562 711 l 616 497 q 467 547 549 547 q 320 493 374 547 q 267 345 267 439 q 318 200 267 252 q 460 147 370 147 q 616 197 540 147 l 616 25 m 414 804 q 339 831 368 804 q 309 897 309 859 q 339 963 309 938 q 414 989 369 989 q 488 963 459 989 q 517 897 517 937 q 488 831 517 857 q 414 804 459 804 z "},"Ç":{"ha":867,"x_min":50,"x_max":808,"o":"m 808 35 q 530 -17 702 -17 q 178 115 307 -17 q 50 465 50 246 q 194 844 50 699 q 568 989 338 989 q 808 953 711 989 l 808 742 q 586 800 711 800 q 365 714 449 800 q 281 481 281 628 q 360 256 281 340 q 574 172 439 172 q 808 235 702 172 l 808 35 m 414 -306 l 414 -212 q 463 -216 437 -216 q 546 -167 546 -216 q 471 -122 546 -122 q 446 -123 462 -122 l 446 0 l 562 0 l 562 -56 q 689 -168 689 -61 q 473 -309 689 -309 q 414 -306 442 -309 z "},"ç":{"ha":667,"x_min":49,"x_max":616,"o":"m 616 25 q 407 -17 544 -17 q 148 80 247 -17 q 49 330 49 177 q 155 609 49 507 q 439 711 261 711 q 616 679 562 711 l 616 497 q 467 547 549 547 q 320 493 374 547 q 267 345 267 439 q 318 200 267 252 q 460 147 370 147 q 616 197 540 147 l 616 25 m 289 -306 l 289 -212 q 338 -216 313 -216 q 421 -167 421 -216 q 346 -122 421 -122 q 321 -123 337 -122 l 321 0 l 437 0 l 437 -56 q 564 -168 564 -61 q 349 -309 564 -309 q 289 -306 317 -309 z "},"Ḉ":{"ha":867,"x_min":50,"x_max":808,"o":"m 808 35 q 530 -17 702 -17 q 178 115 307 -17 q 50 465 50 246 q 194 844 50 699 q 568 989 338 989 q 808 953 711 989 l 808 742 q 586 800 711 800 q 365 714 449 800 q 281 481 281 628 q 360 256 281 340 q 574 172 439 172 q 808 235 702 172 l 808 35 m 414 -306 l 414 -212 q 463 -216 437 -216 q 546 -167 546 -216 q 471 -122 546 -122 q 446 -123 462 -122 l 446 0 l 562 0 l 562 -56 q 689 -168 689 -61 q 473 -309 689 -309 q 414 -306 442 -309 m 758 1282 l 545 1063 l 391 1063 l 567 1282 l 758 1282 z "},"ḉ":{"ha":667,"x_min":49,"x_max":624,"o":"m 616 25 q 407 -17 544 -17 q 148 80 247 -17 q 49 330 49 177 q 155 609 49 507 q 439 711 261 711 q 616 679 562 711 l 616 497 q 467 547 549 547 q 320 493 374 547 q 267 345 267 439 q 318 200 267 252 q 460 147 370 147 q 616 197 540 147 l 616 25 m 289 -306 l 289 -212 q 338 -216 313 -216 q 421 -167 421 -216 q 346 -122 421 -122 q 321 -123 337 -122 l 321 0 l 437 0 l 437 -56 q 564 -168 564 -61 q 349 -309 564 -309 q 289 -306 317 -309 m 624 1023 l 412 804 l 257 804 l 433 1023 l 624 1023 z "},"Ƈ":{"ha":868,"x_min":50,"x_max":972,"o":"m 972 940 q 904 958 937 958 q 832 925 858 958 q 806 838 806 892 q 814 742 806 785 l 808 737 q 566 800 688 800 q 357 713 434 800 q 281 481 281 627 q 360 256 281 340 q 574 172 439 172 q 808 235 702 172 l 808 35 q 530 -17 702 -17 q 178 115 307 -17 q 50 465 50 246 q 192 844 50 699 q 557 989 333 989 q 669 972 614 989 q 746 1082 688 1040 q 882 1124 803 1124 q 972 1108 932 1124 l 972 940 z "},"ƈ":{"ha":668,"x_min":49,"x_max":772,"o":"m 772 679 q 711 694 743 694 q 642 662 668 694 q 616 579 616 629 q 623 504 616 541 l 616 500 q 464 547 545 547 q 319 494 372 547 q 267 345 267 440 q 318 200 267 252 q 460 147 370 147 q 616 197 540 147 l 616 25 q 407 -17 544 -17 q 148 80 247 -17 q 49 330 49 177 q 154 609 49 507 q 436 711 259 711 q 500 705 467 711 q 567 805 513 764 q 690 846 621 846 q 772 832 737 846 l 772 679 z "},"D":{"ha":1024,"x_min":111,"x_max":974,"o":"m 111 0 l 111 972 l 456 972 q 974 498 974 972 q 832 136 974 271 q 456 0 691 0 l 111 0 m 330 794 l 330 178 l 439 178 q 662 263 581 178 q 743 496 743 349 q 663 714 743 635 q 437 794 583 794 l 330 794 z "},"d":{"ha":860,"x_min":49,"x_max":770,"o":"m 770 0 l 555 0 l 555 96 l 553 96 q 338 -17 479 -17 q 128 75 208 -17 q 49 332 49 167 q 136 608 49 504 q 366 711 224 711 q 553 615 500 711 l 555 615 l 555 1028 l 770 1028 l 770 0 m 559 338 l 559 390 q 520 503 559 458 q 418 547 481 547 q 307 491 347 547 q 267 338 267 435 q 305 197 267 246 q 412 147 344 147 q 518 199 477 147 q 559 338 559 252 z "},"Ď":{"ha":1024,"x_min":111,"x_max":974,"o":"m 111 0 l 111 972 l 456 972 q 974 498 974 972 q 832 136 974 271 q 456 0 691 0 l 111 0 m 330 794 l 330 178 l 439 178 q 662 263 581 178 q 743 496 743 349 q 663 714 743 635 q 437 794 583 794 l 330 794 m 730 1283 l 569 1063 l 401 1063 l 241 1283 l 380 1283 l 486 1156 l 591 1283 l 730 1283 z "},"ď":{"ha":1029,"x_min":49,"x_max":1072,"o":"m 770 0 l 555 0 l 555 96 l 553 96 q 338 -17 479 -17 q 128 75 208 -17 q 49 332 49 167 q 136 608 49 504 q 366 711 224 711 q 553 615 500 711 l 555 615 l 555 1028 l 770 1028 l 770 0 m 559 338 l 559 390 q 520 503 559 458 q 418 547 481 547 q 307 491 347 547 q 267 338 267 435 q 305 197 267 246 q 412 147 344 147 q 518 199 477 147 q 559 338 559 252 m 1072 1028 l 958 789 l 826 789 l 887 1028 l 1072 1028 z "},"Ḋ":{"ha":1023,"x_min":111,"x_max":974,"o":"m 111 0 l 111 972 l 456 972 q 974 498 974 972 q 832 136 974 271 q 456 0 691 0 l 111 0 m 330 794 l 330 178 l 439 178 q 662 263 581 178 q 743 496 743 349 q 663 714 743 635 q 437 794 583 794 l 330 794 m 487 1063 q 412 1090 441 1063 q 382 1156 382 1117 q 412 1222 382 1196 q 487 1247 442 1247 q 561 1221 532 1247 q 590 1156 590 1196 q 561 1089 590 1116 q 487 1063 532 1063 z "},"ḋ":{"ha":860,"x_min":49,"x_max":770,"o":"m 770 0 l 555 0 l 555 96 l 553 96 q 338 -17 479 -17 q 128 75 208 -17 q 49 332 49 167 q 136 608 49 504 q 366 711 224 711 q 553 615 500 711 l 555 615 l 555 1028 l 770 1028 l 770 0 m 559 338 l 559 390 q 520 503 559 458 q 418 547 481 547 q 307 491 347 547 q 267 338 267 435 q 305 197 267 246 q 412 147 344 147 q 518 199 477 147 q 559 338 559 252 m 349 804 q 274 831 303 804 q 244 897 244 859 q 274 963 244 938 q 349 989 304 989 q 423 963 394 989 q 452 897 452 937 q 423 831 452 857 q 349 804 394 804 z "},"Ḓ":{"ha":1023,"x_min":111,"x_max":974,"o":"m 111 0 l 111 972 l 456 972 q 974 498 974 972 q 832 136 974 271 q 456 0 691 0 l 111 0 m 330 794 l 330 178 l 439 178 q 662 263 581 178 q 743 496 743 349 q 663 714 743 635 q 437 794 583 794 l 330 794 m 753 -300 l 613 -300 l 506 -173 l 406 -300 l 266 -300 l 425 -80 l 593 -80 l 753 -300 z "},"ḓ":{"ha":860,"x_min":49,"x_max":770,"o":"m 770 0 l 555 0 l 555 96 l 553 96 q 338 -17 479 -17 q 128 75 208 -17 q 49 332 49 167 q 136 608 49 504 q 366 711 224 711 q 553 615 500 711 l 555 615 l 555 1028 l 770 1028 l 770 0 m 559 338 l 559 390 q 520 503 559 458 q 418 547 481 547 q 307 491 347 547 q 267 338 267 435 q 305 197 267 246 q 412 147 344 147 q 518 199 477 147 q 559 338 559 252 m 667 -300 l 526 -300 l 419 -173 l 319 -300 l 179 -300 l 338 -80 l 507 -80 l 667 -300 z "},"Ḏ":{"ha":1024,"x_min":111,"x_max":974,"o":"m 111 0 l 111 972 l 456 972 q 974 498 974 972 q 832 136 974 271 q 456 0 691 0 l 111 0 m 330 794 l 330 178 l 439 178 q 662 263 581 178 q 743 496 743 349 q 663 714 743 635 q 437 794 583 794 l 330 794 m 696 -197 l 299 -197 l 299 -81 l 696 -81 l 696 -197 z "},"ḏ":{"ha":860,"x_min":49,"x_max":770,"o":"m 625 -197 l 227 -197 l 227 -81 l 625 -81 l 625 -197 m 770 0 l 555 0 l 555 96 l 553 96 q 338 -17 479 -17 q 128 75 208 -17 q 49 332 49 167 q 136 608 49 504 q 366 711 224 711 q 553 615 500 711 l 555 615 l 555 1028 l 770 1028 l 770 0 m 559 338 l 559 390 q 520 503 559 458 q 418 547 481 547 q 307 491 347 547 q 267 338 267 435 q 305 197 267 246 q 412 147 344 147 q 518 199 477 147 q 559 338 559 252 z "},"Ḍ":{"ha":1023,"x_min":111,"x_max":974,"o":"m 111 0 l 111 972 l 456 972 q 974 498 974 972 q 832 136 974 271 q 456 0 691 0 l 111 0 m 330 794 l 330 178 l 439 178 q 662 263 581 178 q 743 496 743 349 q 663 714 743 635 q 437 794 583 794 l 330 794 m 482 -265 q 407 -238 437 -265 q 378 -172 378 -211 q 408 -106 378 -132 q 482 -81 437 -81 q 556 -106 528 -81 q 585 -172 585 -132 q 556 -239 585 -212 q 482 -265 528 -265 z "},"ḍ":{"ha":860,"x_min":49,"x_max":770,"o":"m 770 0 l 555 0 l 555 96 l 553 96 q 338 -17 479 -17 q 128 75 208 -17 q 49 332 49 167 q 136 608 49 504 q 366 711 224 711 q 553 615 500 711 l 555 615 l 555 1028 l 770 1028 l 770 0 m 559 338 l 559 390 q 520 503 559 458 q 418 547 481 547 q 307 491 347 547 q 267 338 267 435 q 305 197 267 246 q 412 147 344 147 q 518 199 477 147 q 559 338 559 252 m 371 -265 q 296 -238 326 -265 q 267 -172 267 -211 q 296 -106 267 -132 q 371 -81 326 -81 q 445 -106 416 -81 q 474 -172 474 -132 q 445 -239 474 -212 q 371 -265 416 -265 z "},"Ḑ":{"ha":1023,"x_min":111,"x_max":974,"o":"m 111 0 l 111 972 l 456 972 q 974 498 974 972 q 832 136 974 271 q 456 0 691 0 l 111 0 m 330 794 l 330 178 l 439 178 q 662 263 581 178 q 743 496 743 349 q 663 714 743 635 q 437 794 583 794 l 330 794 m 620 -75 l 506 -314 l 374 -314 l 435 -75 l 620 -75 z "},"ḑ":{"ha":860,"x_min":49,"x_max":770,"o":"m 770 0 l 555 0 l 555 96 l 553 96 q 338 -17 479 -17 q 128 75 208 -17 q 49 332 49 167 q 136 608 49 504 q 366 711 224 711 q 553 615 500 711 l 555 615 l 555 1028 l 770 1028 l 770 0 m 559 338 l 559 390 q 520 503 559 458 q 418 547 481 547 q 307 491 347 547 q 267 338 267 435 q 305 197 267 246 q 412 147 344 147 q 518 199 477 147 q 559 338 559 252 m 513 -75 l 399 -314 l 267 -314 l 328 -75 l 513 -75 z "},"Đ":{"ha":1024,"x_min":0,"x_max":974,"o":"m 111 0 l 111 397 l 0 397 l 0 578 l 111 578 l 111 972 l 456 972 q 974 498 974 972 q 832 136 974 271 q 456 0 691 0 l 111 0 m 330 794 l 330 578 l 514 578 l 514 397 l 330 397 l 330 178 l 439 178 q 662 263 581 178 q 743 496 743 349 q 663 714 743 635 q 437 794 583 794 l 330 794 z "},"đ":{"ha":878,"x_min":49,"x_max":867,"o":"m 867 794 l 770 794 l 770 0 l 555 0 l 555 96 l 553 96 q 338 -17 479 -17 q 128 75 208 -17 q 49 332 49 167 q 136 608 49 504 q 366 711 224 711 q 553 615 500 711 l 555 615 l 555 794 l 332 794 l 332 933 l 555 933 l 555 1028 l 770 1028 l 770 933 l 867 933 l 867 794 m 559 338 l 559 390 q 520 503 559 458 q 418 547 481 547 q 307 491 347 547 q 267 338 267 435 q 305 197 267 246 q 412 147 344 147 q 518 199 477 147 q 559 338 559 252 z "},"Ɖ":{"ha":1024,"x_min":0,"x_max":974,"o":"m 111 0 l 111 397 l 0 397 l 0 578 l 111 578 l 111 972 l 456 972 q 974 498 974 972 q 832 136 974 271 q 456 0 691 0 l 111 0 m 330 794 l 330 578 l 514 578 l 514 397 l 330 397 l 330 178 l 439 178 q 662 263 581 178 q 743 496 743 349 q 663 714 743 635 q 437 794 583 794 l 330 794 z "},"ɖ":{"ha":859,"x_min":49,"x_max":925,"o":"m 925 -301 q 782 -326 878 -326 q 554 -83 554 -326 l 554 96 l 551 96 q 338 -17 478 -17 q 129 75 208 -17 q 49 332 49 168 q 136 607 49 503 q 364 711 223 711 q 551 615 498 711 l 554 615 l 554 1028 l 768 1028 l 768 -54 q 856 -163 768 -163 q 925 -143 892 -163 l 925 -301 m 559 334 l 559 395 q 519 505 559 462 q 416 547 479 547 q 304 491 345 547 q 264 338 264 435 q 410 147 264 147 q 519 197 479 147 q 559 334 559 248 z "},"Ɗ":{"ha":1232,"x_min":-35,"x_max":1182,"o":"m 319 0 l 319 794 l 289 794 q 196 761 231 794 q 161 676 161 728 q 176 591 161 634 l -18 591 q -35 692 -35 635 q 56 891 -35 810 q 297 972 146 972 l 664 972 q 1182 498 1182 972 q 1041 136 1182 271 q 664 0 899 0 l 319 0 m 539 794 l 539 178 l 647 178 q 870 263 789 178 q 951 496 951 349 q 871 714 951 635 q 646 794 791 794 l 539 794 z "},"ɗ":{"ha":859,"x_min":49,"x_max":925,"o":"m 925 864 q 852 880 892 880 q 768 771 768 880 l 768 0 l 554 0 l 554 96 l 551 96 q 338 -17 478 -17 q 129 75 208 -17 q 49 332 49 168 q 136 607 49 503 q 364 711 223 711 q 551 615 498 711 l 554 615 l 554 771 q 811 1044 554 1044 q 925 1028 874 1044 l 925 864 m 559 334 l 559 395 q 519 505 559 462 q 416 547 479 547 q 304 491 345 547 q 264 338 264 435 q 410 147 264 147 q 519 197 479 147 q 559 334 559 248 z "},"E":{"ha":739,"x_min":111,"x_max":694,"o":"m 694 0 l 111 0 l 111 972 l 672 972 l 672 794 l 330 794 l 330 578 l 648 578 l 648 400 l 330 400 l 330 178 l 694 178 l 694 0 z "},"e":{"ha":751,"x_min":49,"x_max":714,"o":"m 714 286 l 261 286 q 452 135 272 135 q 653 189 566 135 l 653 35 q 403 -17 557 -17 q 142 76 235 -17 q 49 336 49 170 q 149 610 49 509 q 396 711 250 711 q 631 621 548 711 q 714 376 714 531 l 714 286 m 515 418 q 395 567 515 567 q 306 524 343 567 q 260 418 268 481 l 515 418 z "},"È":{"ha":739,"x_min":111,"x_max":694,"o":"m 694 0 l 111 0 l 111 972 l 672 972 l 672 794 l 330 794 l 330 578 l 648 578 l 648 400 l 330 400 l 330 178 l 694 178 l 694 0 m 519 1063 l 366 1063 l 153 1282 l 343 1282 l 519 1063 z "},"è":{"ha":751,"x_min":49,"x_max":714,"o":"m 714 286 l 261 286 q 452 135 272 135 q 653 189 566 135 l 653 35 q 403 -17 557 -17 q 142 76 235 -17 q 49 336 49 170 q 149 610 49 509 q 396 711 250 711 q 631 621 548 711 q 714 376 714 531 l 714 286 m 515 418 q 395 567 515 567 q 306 524 343 567 q 260 418 268 481 l 515 418 m 539 804 l 385 804 l 172 1023 l 363 1023 l 539 804 z "},"É":{"ha":739,"x_min":111,"x_max":694,"o":"m 694 0 l 111 0 l 111 972 l 672 972 l 672 794 l 330 794 l 330 578 l 648 578 l 648 400 l 330 400 l 330 178 l 694 178 l 694 0 m 633 1282 l 421 1063 l 267 1063 l 443 1282 l 633 1282 z "},"é":{"ha":751,"x_min":49,"x_max":714,"o":"m 714 286 l 261 286 q 452 135 272 135 q 653 189 566 135 l 653 35 q 403 -17 557 -17 q 142 76 235 -17 q 49 336 49 170 q 149 610 49 509 q 396 711 250 711 q 631 621 548 711 q 714 376 714 531 l 714 286 m 515 418 q 395 567 515 567 q 306 524 343 567 q 260 418 268 481 l 515 418 m 625 1023 l 412 804 l 258 804 l 434 1023 l 625 1023 z "},"Ê":{"ha":739,"x_min":111,"x_max":694,"o":"m 694 0 l 111 0 l 111 972 l 672 972 l 672 794 l 330 794 l 330 578 l 648 578 l 648 400 l 330 400 l 330 178 l 694 178 l 694 0 m 632 1063 l 492 1063 l 385 1190 l 285 1063 l 144 1063 l 304 1283 l 472 1283 l 632 1063 z "},"ê":{"ha":751,"x_min":49,"x_max":714,"o":"m 714 286 l 261 286 q 452 135 272 135 q 653 189 566 135 l 653 35 q 403 -17 557 -17 q 142 76 235 -17 q 49 336 49 170 q 149 610 49 509 q 396 711 250 711 q 631 621 548 711 q 714 376 714 531 l 714 286 m 515 418 q 395 567 515 567 q 306 524 343 567 q 260 418 268 481 l 515 418 m 644 804 l 503 804 l 396 932 l 296 804 l 156 804 l 315 1025 l 484 1025 l 644 804 z "},"Ě":{"ha":739,"x_min":111,"x_max":694,"o":"m 694 0 l 111 0 l 111 972 l 672 972 l 672 794 l 330 794 l 330 578 l 648 578 l 648 400 l 330 400 l 330 178 l 694 178 l 694 0 m 647 1283 l 486 1063 l 317 1063 l 158 1283 l 297 1283 l 402 1156 l 508 1283 l 647 1283 z "},"ě":{"ha":751,"x_min":49,"x_max":714,"o":"m 714 286 l 261 286 q 452 135 272 135 q 653 189 566 135 l 653 35 q 403 -17 557 -17 q 142 76 235 -17 q 49 336 49 170 q 149 610 49 509 q 396 711 250 711 q 631 621 548 711 q 714 376 714 531 l 714 286 m 515 418 q 395 567 515 567 q 306 524 343 567 q 260 418 268 481 l 515 418 m 634 1025 l 473 804 l 304 804 l 145 1025 l 284 1025 l 389 897 l 495 1025 l 634 1025 z "},"Ë":{"ha":739,"x_min":111,"x_max":694,"o":"m 694 0 l 111 0 l 111 972 l 672 972 l 672 794 l 330 794 l 330 578 l 648 578 l 648 400 l 330 400 l 330 178 l 694 178 l 694 0 m 551 1063 q 476 1089 505 1063 q 447 1156 447 1116 q 476 1223 447 1197 q 551 1249 505 1249 q 626 1222 596 1249 q 655 1156 655 1196 q 626 1089 655 1115 q 551 1063 597 1063 m 240 1063 q 165 1089 194 1063 q 136 1156 136 1116 q 165 1222 136 1196 q 240 1249 195 1249 q 315 1222 286 1249 q 344 1156 344 1196 q 315 1088 344 1114 q 240 1063 286 1063 z "},"ë":{"ha":751,"x_min":49,"x_max":714,"o":"m 714 286 l 261 286 q 452 135 272 135 q 653 189 566 135 l 653 35 q 403 -17 557 -17 q 142 76 235 -17 q 49 336 49 170 q 149 610 49 509 q 396 711 250 711 q 631 621 548 711 q 714 376 714 531 l 714 286 m 515 418 q 395 567 515 567 q 306 524 343 567 q 260 418 268 481 l 515 418 m 548 804 q 473 831 503 804 q 444 897 444 857 q 473 964 444 939 q 548 990 503 990 q 623 964 593 990 q 652 897 652 938 q 623 830 652 857 q 548 804 594 804 m 237 804 q 162 831 191 804 q 133 897 133 858 q 163 964 133 938 q 237 990 193 990 q 312 964 283 990 q 341 897 341 938 q 312 830 341 856 q 237 804 283 804 z "},"Ē":{"ha":739,"x_min":111,"x_max":694,"o":"m 694 0 l 111 0 l 111 972 l 672 972 l 672 794 l 330 794 l 330 578 l 648 578 l 648 400 l 330 400 l 330 178 l 694 178 l 694 0 m 586 1063 l 189 1063 l 189 1179 l 586 1179 l 586 1063 z "},"ē":{"ha":751,"x_min":49,"x_max":714,"o":"m 714 286 l 261 286 q 452 135 272 135 q 653 189 566 135 l 653 35 q 403 -17 557 -17 q 142 76 235 -17 q 49 336 49 170 q 149 610 49 509 q 396 711 250 711 q 631 621 548 711 q 714 376 714 531 l 714 286 m 515 418 q 395 567 515 567 q 306 524 343 567 q 260 418 268 481 l 515 418 m 587 804 l 190 804 l 190 921 l 587 921 l 587 804 z "},"Ḕ":{"ha":739,"x_min":111,"x_max":694,"o":"m 694 0 l 111 0 l 111 972 l 672 972 l 672 794 l 330 794 l 330 578 l 648 578 l 648 400 l 330 400 l 330 178 l 694 178 l 694 0 m 596 1055 l 199 1055 l 199 1172 l 596 1172 l 596 1055 m 507 1213 l 373 1213 l 194 1379 l 384 1379 l 507 1213 z "},"ḕ":{"ha":751,"x_min":49,"x_max":714,"o":"m 714 286 l 261 286 q 452 135 272 135 q 653 189 566 135 l 653 35 q 403 -17 557 -17 q 142 76 235 -17 q 49 336 49 170 q 149 610 49 509 q 396 711 250 711 q 631 621 548 711 q 714 376 714 531 l 714 286 m 515 418 q 395 567 515 567 q 306 524 343 567 q 260 418 268 481 l 515 418 m 587 804 l 190 804 l 190 921 l 587 921 l 587 804 m 500 962 l 366 962 l 187 1128 l 377 1128 l 500 962 z "},"Ḗ":{"ha":739,"x_min":111,"x_max":694,"o":"m 694 0 l 111 0 l 111 972 l 672 972 l 672 794 l 330 794 l 330 578 l 648 578 l 648 400 l 330 400 l 330 178 l 694 178 l 694 0 m 596 1055 l 199 1055 l 199 1172 l 596 1172 l 596 1055 m 610 1379 l 431 1213 l 297 1213 l 419 1379 l 610 1379 z "},"ḗ":{"ha":751,"x_min":49,"x_max":714,"o":"m 714 286 l 261 286 q 452 135 272 135 q 653 189 566 135 l 653 35 q 403 -17 557 -17 q 142 76 235 -17 q 49 336 49 170 q 149 610 49 509 q 396 711 250 711 q 631 621 548 711 q 714 376 714 531 l 714 286 m 515 418 q 395 567 515 567 q 306 524 343 567 q 260 418 268 481 l 515 418 m 587 804 l 190 804 l 190 921 l 587 921 l 587 804 m 587 1128 l 408 962 l 275 962 l 397 1128 l 587 1128 z "},"Ĕ":{"ha":739,"x_min":111,"x_max":694,"o":"m 694 0 l 111 0 l 111 972 l 672 972 l 672 794 l 330 794 l 330 578 l 648 578 l 648 400 l 330 400 l 330 178 l 694 178 l 694 0 m 628 1271 q 558 1119 620 1175 q 397 1063 497 1063 q 236 1121 298 1063 q 171 1271 174 1179 l 292 1271 q 400 1179 304 1179 q 506 1271 493 1179 l 628 1271 z "},"ĕ":{"ha":751,"x_min":49,"x_max":714,"o":"m 714 286 l 261 286 q 452 135 272 135 q 653 189 566 135 l 653 35 q 403 -17 557 -17 q 142 76 235 -17 q 49 336 49 170 q 149 610 49 509 q 396 711 250 711 q 631 621 548 711 q 714 376 714 531 l 714 286 m 515 418 q 395 567 515 567 q 306 524 343 567 q 260 418 268 481 l 515 418 m 618 1013 q 548 861 610 917 q 387 804 487 804 q 226 862 288 804 q 161 1013 163 920 l 282 1013 q 390 921 294 921 q 496 1013 483 921 l 618 1013 z "},"Ȇ":{"ha":739,"x_min":111,"x_max":694,"o":"m 694 0 l 111 0 l 111 972 l 672 972 l 672 794 l 330 794 l 330 578 l 648 578 l 648 400 l 330 400 l 330 178 l 694 178 l 694 0 m 623 1063 l 501 1063 q 394 1154 490 1154 q 288 1063 302 1154 l 166 1063 q 236 1215 174 1158 q 397 1271 297 1271 q 558 1213 496 1271 q 623 1063 621 1155 z "},"ȇ":{"ha":751,"x_min":49,"x_max":714,"o":"m 714 286 l 261 286 q 452 135 272 135 q 653 189 566 135 l 653 35 q 403 -17 557 -17 q 142 76 235 -17 q 49 336 49 170 q 149 610 49 509 q 396 711 250 711 q 631 621 548 711 q 714 376 714 531 l 714 286 m 515 418 q 395 567 515 567 q 306 524 343 567 q 260 418 268 481 l 515 418 m 610 804 l 488 804 q 380 896 476 896 q 275 804 288 896 l 153 804 q 222 956 161 900 q 383 1013 283 1013 q 545 955 482 1013 q 610 804 607 897 z "},"Ė":{"ha":739,"x_min":111,"x_max":694,"o":"m 694 0 l 111 0 l 111 972 l 672 972 l 672 794 l 330 794 l 330 578 l 648 578 l 648 400 l 330 400 l 330 178 l 694 178 l 694 0 m 399 1063 q 325 1090 354 1063 q 295 1156 295 1117 q 325 1222 295 1196 q 399 1247 355 1247 q 474 1221 445 1247 q 503 1156 503 1196 q 474 1089 503 1116 q 399 1063 445 1063 z "},"ė":{"ha":751,"x_min":49,"x_max":714,"o":"m 714 286 l 261 286 q 452 135 272 135 q 653 189 566 135 l 653 35 q 403 -17 557 -17 q 142 76 235 -17 q 49 336 49 170 q 149 610 49 509 q 396 711 250 711 q 631 621 548 711 q 714 376 714 531 l 714 286 m 515 418 q 395 567 515 567 q 306 524 343 567 q 260 418 268 481 l 515 418 m 404 804 q 329 831 359 804 q 300 897 300 859 q 330 963 300 938 q 404 989 359 989 q 478 963 450 989 q 507 897 507 937 q 478 831 507 857 q 404 804 450 804 z "},"Ȅ":{"ha":739,"x_min":30,"x_max":694,"o":"m 694 0 l 111 0 l 111 972 l 672 972 l 672 794 l 330 794 l 330 578 l 648 578 l 648 400 l 330 400 l 330 178 l 694 178 l 694 0 m 597 1063 l 454 1063 l 287 1279 l 454 1279 l 597 1063 m 344 1063 l 201 1063 l 30 1279 l 199 1279 l 344 1063 z "},"ȅ":{"ha":751,"x_min":37,"x_max":714,"o":"m 714 286 l 261 286 q 452 135 272 135 q 653 189 566 135 l 653 35 q 403 -17 557 -17 q 142 76 235 -17 q 49 336 49 170 q 149 610 49 509 q 396 711 250 711 q 631 621 548 711 q 714 376 714 531 l 714 286 m 515 418 q 395 567 515 567 q 306 524 343 567 q 260 418 268 481 l 515 418 m 604 804 l 461 804 l 294 1021 l 461 1021 l 604 804 m 351 804 l 208 804 l 37 1021 l 206 1021 l 351 804 z "},"Ḙ":{"ha":739,"x_min":111,"x_max":694,"o":"m 694 0 l 111 0 l 111 972 l 672 972 l 672 794 l 330 794 l 330 578 l 648 578 l 648 400 l 330 400 l 330 178 l 694 178 l 694 0 m 656 -300 l 515 -300 l 408 -173 l 309 -300 l 168 -300 l 328 -80 l 496 -80 l 656 -300 z "},"ḙ":{"ha":751,"x_min":49,"x_max":714,"o":"m 714 286 l 261 286 q 452 135 272 135 q 653 189 566 135 l 653 35 q 403 -17 557 -17 q 142 76 235 -17 q 49 336 49 170 q 149 610 49 509 q 396 711 250 711 q 631 621 548 711 q 714 376 714 531 l 714 286 m 515 418 q 395 567 515 567 q 306 524 343 567 q 260 418 268 481 l 515 418 m 642 -300 l 502 -300 l 395 -173 l 295 -300 l 155 -300 l 314 -80 l 482 -80 l 642 -300 z "},"Ḛ":{"ha":739,"x_min":111,"x_max":694,"o":"m 694 0 l 111 0 l 111 972 l 672 972 l 672 794 l 330 794 l 330 578 l 648 578 l 648 400 l 330 400 l 330 178 l 694 178 l 694 0 m 645 -67 q 607 -214 645 -162 q 505 -266 570 -266 q 391 -237 446 -266 q 307 -205 330 -205 q 253 -278 253 -205 l 157 -278 q 195 -132 157 -184 q 299 -79 232 -79 q 413 -113 354 -79 q 494 -142 467 -142 q 547 -67 547 -142 l 645 -67 z "},"ḛ":{"ha":751,"x_min":49,"x_max":714,"o":"m 714 286 l 261 286 q 452 135 272 135 q 653 189 566 135 l 653 35 q 403 -17 557 -17 q 142 76 235 -17 q 49 336 49 170 q 149 610 49 509 q 396 711 250 711 q 631 621 548 711 q 714 376 714 531 l 714 286 m 515 418 q 395 567 515 567 q 306 524 343 567 q 260 418 268 481 l 515 418 m 637 -67 q 599 -214 637 -162 q 496 -266 562 -266 q 382 -237 438 -266 q 299 -205 322 -205 q 245 -278 245 -205 l 149 -278 q 186 -132 149 -184 q 291 -79 224 -79 q 405 -113 346 -79 q 486 -142 458 -142 q 539 -67 539 -142 l 637 -67 z "},"Ẹ":{"ha":739,"x_min":111,"x_max":694,"o":"m 694 0 l 111 0 l 111 972 l 672 972 l 672 794 l 330 794 l 330 578 l 648 578 l 648 400 l 330 400 l 330 178 l 694 178 l 694 0 m 413 -265 q 338 -238 368 -265 q 309 -172 309 -211 q 338 -106 309 -132 q 413 -81 368 -81 q 487 -106 458 -81 q 516 -172 516 -132 q 487 -239 516 -212 q 413 -265 458 -265 z "},"ẹ":{"ha":751,"x_min":49,"x_max":714,"o":"m 714 286 l 261 286 q 452 135 272 135 q 653 189 566 135 l 653 35 q 403 -17 557 -17 q 142 76 235 -17 q 49 336 49 170 q 149 610 49 509 q 396 711 250 711 q 631 621 548 711 q 714 376 714 531 l 714 286 m 515 418 q 395 567 515 567 q 306 524 343 567 q 260 418 268 481 l 515 418 m 395 -265 q 320 -238 349 -265 q 290 -172 290 -211 q 320 -106 290 -132 q 395 -81 350 -81 q 469 -106 440 -81 q 498 -172 498 -132 q 469 -239 498 -212 q 395 -265 440 -265 z "},"Ẽ":{"ha":739,"x_min":111,"x_max":694,"o":"m 694 0 l 111 0 l 111 972 l 672 972 l 672 794 l 330 794 l 330 578 l 648 578 l 648 400 l 330 400 l 330 178 l 694 178 l 694 0 m 640 1274 q 603 1127 640 1179 q 500 1075 565 1075 q 386 1104 441 1075 q 302 1136 326 1136 q 248 1063 248 1136 l 153 1063 q 190 1209 153 1157 q 294 1261 227 1261 q 408 1228 349 1261 q 490 1198 462 1198 q 543 1274 543 1198 l 640 1274 z "},"ẽ":{"ha":726,"x_min":49,"x_max":714,"o":"m 714 286 l 261 286 q 452 135 272 135 q 653 189 566 135 l 653 35 q 403 -17 557 -17 q 142 76 235 -17 q 49 336 49 170 q 149 610 49 509 q 396 711 250 711 q 631 621 548 711 q 714 376 714 531 l 714 286 m 515 418 q 395 567 515 567 q 306 524 343 567 q 260 418 268 481 l 515 418 m 627 1015 q 589 868 627 920 q 486 817 551 817 q 372 846 428 817 q 289 878 312 878 q 235 804 235 878 l 139 804 q 176 951 139 899 q 281 1003 214 1003 q 395 970 336 1003 q 476 940 448 940 q 529 1015 529 940 l 627 1015 z "},"Ȩ":{"ha":739,"x_min":111,"x_max":694,"o":"m 694 0 l 111 0 l 111 972 l 672 972 l 672 794 l 330 794 l 330 578 l 648 578 l 648 400 l 330 400 l 330 178 l 694 178 l 694 0 m 298 -306 l 298 -212 q 347 -216 322 -216 q 431 -167 431 -216 q 355 -122 431 -122 q 330 -123 347 -122 l 330 0 l 447 0 l 447 -56 q 574 -168 574 -61 q 358 -309 574 -309 q 298 -306 327 -309 z "},"ȩ":{"ha":751,"x_min":49,"x_max":714,"o":"m 714 286 l 261 286 q 452 135 272 135 q 653 189 566 135 l 653 35 q 403 -17 557 -17 q 142 76 235 -17 q 49 336 49 170 q 149 610 49 509 q 396 711 250 711 q 631 621 548 711 q 714 376 714 531 l 714 286 m 515 418 q 395 567 515 567 q 306 524 343 567 q 260 418 268 481 l 515 418 m 277 -306 l 277 -212 q 326 -216 300 -216 q 409 -167 409 -216 q 334 -122 409 -122 q 309 -123 325 -122 l 309 0 l 425 0 l 425 -56 q 552 -168 552 -61 q 336 -309 552 -309 q 277 -306 305 -309 z "},"Ḝ":{"ha":739,"x_min":111,"x_max":694,"o":"m 694 0 l 111 0 l 111 972 l 672 972 l 672 794 l 330 794 l 330 578 l 648 578 l 648 400 l 330 400 l 330 178 l 694 178 l 694 0 m 298 -306 l 298 -212 q 347 -216 322 -216 q 431 -167 431 -216 q 355 -122 431 -122 q 330 -123 347 -122 l 330 0 l 447 0 l 447 -56 q 574 -168 574 -61 q 358 -309 574 -309 q 298 -306 327 -309 m 629 1250 q 560 1098 621 1154 q 399 1042 498 1042 q 237 1100 300 1042 q 172 1250 175 1158 l 294 1250 q 401 1158 305 1158 q 507 1250 494 1158 l 629 1250 z "},"ḝ":{"ha":751,"x_min":49,"x_max":714,"o":"m 714 286 l 261 286 q 452 135 272 135 q 653 189 566 135 l 653 35 q 403 -17 557 -17 q 142 76 235 -17 q 49 336 49 170 q 149 610 49 509 q 396 711 250 711 q 631 621 548 711 q 714 376 714 531 l 714 286 m 515 418 q 395 567 515 567 q 306 524 343 567 q 260 418 268 481 l 515 418 m 298 -306 l 298 -212 q 347 -216 322 -216 q 431 -167 431 -216 q 355 -122 431 -122 q 330 -123 347 -122 l 330 0 l 447 0 l 447 -56 q 574 -168 574 -61 q 358 -309 574 -309 q 298 -306 327 -309 m 625 1013 q 555 861 616 917 q 394 804 494 804 q 233 862 295 804 q 168 1013 170 920 l 289 1013 q 397 921 300 921 q 503 1013 490 921 l 625 1013 z "},"Ę":{"ha":739,"x_min":111,"x_max":694,"o":"m 694 0 l 111 0 l 111 972 l 672 972 l 672 794 l 330 794 l 330 578 l 648 578 l 648 400 l 330 400 l 330 178 l 694 178 l 694 0 m 624 -271 q 585 -280 608 -277 q 538 -284 562 -284 q 446 -254 481 -284 q 412 -166 412 -224 q 419 -122 412 -145 q 441 -78 427 -100 q 476 -36 455 -56 q 524 0 497 -16 l 629 0 q 551 -76 576 -39 q 526 -141 526 -113 q 537 -175 526 -163 q 568 -186 549 -186 q 595 -184 581 -186 q 623 -178 610 -182 l 624 -271 z "},"ę":{"ha":751,"x_min":49,"x_max":714,"o":"m 714 286 l 261 286 q 452 135 272 135 q 653 189 566 135 l 653 35 q 403 -17 557 -17 q 142 76 235 -17 q 49 336 49 170 q 149 610 49 509 q 396 711 250 711 q 631 621 548 711 q 714 376 714 531 l 714 286 m 515 418 q 395 567 515 567 q 306 524 343 567 q 260 418 268 481 l 515 418 m 548 -271 q 509 -280 532 -277 q 463 -284 486 -284 q 370 -254 405 -284 q 336 -166 336 -224 q 343 -122 336 -145 q 365 -78 351 -100 q 400 -36 379 -56 q 448 0 421 -16 l 553 0 q 475 -76 500 -39 q 450 -141 450 -113 q 461 -175 450 -163 q 492 -186 473 -186 q 519 -184 505 -186 q 547 -178 534 -182 l 548 -271 z "},"Ǝ":{"ha":739,"x_min":45,"x_max":628,"o":"m 628 0 l 45 0 l 45 178 l 408 178 l 408 396 l 90 396 l 90 575 l 408 575 l 408 794 l 66 794 l 66 972 l 628 972 l 628 0 z "},"ǝ":{"ha":751,"x_min":37,"x_max":703,"o":"m 37 408 l 490 408 q 300 559 480 559 q 98 505 186 559 l 98 660 q 349 711 195 711 q 610 618 517 711 q 703 358 703 525 q 602 84 703 185 q 355 -17 502 -17 q 120 73 203 -17 q 37 318 37 163 l 37 408 m 492 277 l 236 277 q 357 127 236 127 q 446 170 408 127 q 492 277 484 213 z "},"Ə":{"ha":1056,"x_min":53,"x_max":1006,"o":"m 53 576 l 768 576 q 465 810 728 810 q 164 707 320 810 l 164 901 q 497 989 304 989 q 874 860 742 989 q 1006 498 1006 731 q 871 126 1006 269 q 515 -17 736 -17 q 180 119 308 -17 q 53 479 53 256 l 53 576 m 768 403 l 290 403 q 362 227 302 291 q 517 163 423 163 q 682 227 616 163 q 768 403 749 292 z "},"ə":{"ha":751,"x_min":37,"x_max":703,"o":"m 37 408 l 490 408 q 300 559 480 559 q 98 505 186 559 l 98 660 q 349 711 195 711 q 610 618 517 711 q 703 358 703 525 q 602 84 703 185 q 355 -17 502 -17 q 120 73 203 -17 q 37 318 37 163 l 37 408 m 492 277 l 236 277 q 357 127 236 127 q 446 170 408 127 q 492 277 484 213 z "},"Ɛ":{"ha":775,"x_min":53,"x_max":726,"o":"m 726 29 q 469 -17 612 -17 q 161 58 270 -17 q 53 269 53 133 q 104 422 53 359 q 249 510 156 486 l 249 514 q 86 718 86 566 q 192 916 86 843 q 481 989 297 989 q 710 947 604 989 l 710 755 q 494 800 609 800 q 315 693 315 800 q 521 586 315 586 l 602 586 l 602 404 l 514 404 q 339 378 394 404 q 283 288 283 351 q 488 172 283 172 q 726 222 619 172 l 726 29 z "},"ɛ":{"ha":618,"x_min":35,"x_max":576,"o":"m 576 11 q 375 -17 491 -17 q 122 37 210 -17 q 35 193 35 92 q 182 366 35 332 l 182 368 q 61 513 61 403 q 146 659 61 606 q 385 711 231 711 q 567 690 480 711 l 567 532 q 406 555 490 555 q 273 488 273 555 q 414 425 273 425 l 476 425 l 476 278 l 410 278 q 287 263 326 278 q 248 208 248 249 q 396 139 248 139 q 576 171 501 139 l 576 11 z "},"F":{"ha":722,"x_min":111,"x_max":673,"o":"m 673 794 l 330 794 l 330 555 l 646 555 l 646 378 l 330 378 l 330 0 l 111 0 l 111 972 l 673 972 l 673 794 z "},"f":{"ha":532,"x_min":31,"x_max":543,"o":"m 543 864 q 464 880 502 880 q 361 768 361 880 l 361 694 l 519 694 l 519 536 l 361 536 l 361 0 l 147 0 l 147 536 l 31 536 l 31 694 l 147 694 l 147 781 q 224 972 147 899 q 435 1044 302 1044 q 543 1031 500 1044 l 543 864 z "},"Ḟ":{"ha":722,"x_min":111,"x_max":673,"o":"m 673 794 l 330 794 l 330 555 l 646 555 l 646 378 l 330 378 l 330 0 l 111 0 l 111 972 l 673 972 l 673 794 m 400 1063 q 325 1090 355 1063 q 296 1156 296 1117 q 326 1222 296 1196 q 400 1247 355 1247 q 474 1221 446 1247 q 503 1156 503 1196 q 474 1089 503 1116 q 400 1063 446 1063 z "},"ḟ":{"ha":532,"x_min":31,"x_max":543,"o":"m 543 864 q 464 880 502 880 q 361 768 361 880 l 361 694 l 519 694 l 519 536 l 361 536 l 361 0 l 147 0 l 147 536 l 31 536 l 31 694 l 147 694 l 147 781 q 224 972 147 899 q 435 1044 302 1044 q 543 1031 500 1044 l 543 864 m 157 1063 q 82 1090 111 1063 q 52 1156 52 1117 q 82 1222 52 1196 q 157 1247 112 1247 q 231 1221 202 1247 q 260 1156 260 1196 q 231 1089 260 1116 q 157 1063 202 1063 z "},"Ƒ":{"ha":724,"x_min":-77,"x_max":673,"o":"m 673 794 l 330 794 l 330 555 l 646 555 l 646 378 l 330 378 l 330 36 q 252 -195 330 -113 q 35 -278 173 -278 q -77 -260 -26 -278 l -77 -71 q 4 -89 -39 -89 q 111 39 111 -89 l 111 972 l 673 972 l 673 794 z "},"ƒ":{"ha":532,"x_min":-33,"x_max":543,"o":"m 543 864 q 464 880 501 880 q 361 768 361 880 l 361 694 l 519 694 l 519 536 l 361 536 l 361 60 q 286 -186 361 -94 q 69 -278 211 -278 q -33 -258 22 -278 l -33 -90 q 46 -115 11 -115 q 147 44 147 -115 l 147 536 l 31 536 l 31 694 l 147 694 l 147 781 q 224 972 147 899 q 435 1044 302 1044 q 543 1031 498 1044 l 543 864 z "},"ɸ":{"ha":953,"x_min":49,"x_max":904,"o":"m 578 -17 l 578 -319 l 379 -319 l 379 -17 q 138 96 228 -1 q 49 342 49 192 q 139 591 49 494 q 379 711 229 689 l 379 1028 l 578 1028 l 578 711 q 815 598 727 695 q 904 359 904 501 q 815 107 904 208 q 578 -17 727 6 m 578 547 l 578 147 q 705 353 705 174 q 578 547 705 521 m 379 147 l 379 547 q 248 347 248 519 q 379 147 248 174 z "},"G":{"ha":987,"x_min":50,"x_max":909,"o":"m 909 65 q 555 -17 767 -17 q 185 113 321 -17 q 50 471 50 243 q 198 844 50 700 q 591 989 346 989 q 864 946 746 989 l 864 741 q 589 806 751 806 q 367 717 452 806 q 281 481 281 629 q 358 249 281 331 q 566 167 435 167 q 690 189 644 167 l 690 379 l 496 379 l 496 554 l 909 554 l 909 65 z "},"g":{"ha":860,"x_min":49,"x_max":771,"o":"m 771 79 q 659 -220 771 -114 q 335 -326 547 -326 q 113 -286 195 -326 l 113 -106 q 329 -168 220 -168 q 497 -111 437 -168 q 557 45 557 -54 l 557 100 l 554 100 q 338 -17 481 -17 q 127 77 205 -17 q 49 328 49 170 q 136 608 49 504 q 364 711 222 711 q 554 614 491 711 l 557 614 l 557 694 l 771 694 l 771 79 m 559 334 l 559 389 q 520 501 559 454 q 419 547 481 547 q 307 492 348 547 q 267 335 267 436 q 305 198 267 248 q 411 147 344 147 q 518 198 477 147 q 559 334 559 250 z "},"Ǵ":{"ha":987,"x_min":50,"x_max":909,"o":"m 909 65 q 555 -17 767 -17 q 185 113 321 -17 q 50 471 50 243 q 198 844 50 700 q 591 989 346 989 q 864 946 746 989 l 864 741 q 589 806 751 806 q 367 717 452 806 q 281 481 281 629 q 358 249 281 331 q 566 167 435 167 q 690 189 644 167 l 690 379 l 496 379 l 496 554 l 909 554 l 909 65 m 823 1280 l 610 1061 l 456 1061 l 632 1280 l 823 1280 z "},"ǵ":{"ha":860,"x_min":49,"x_max":771,"o":"m 771 79 q 659 -220 771 -114 q 335 -326 547 -326 q 113 -286 195 -326 l 113 -106 q 329 -168 220 -168 q 497 -111 437 -168 q 557 45 557 -54 l 557 100 l 554 100 q 338 -17 481 -17 q 127 77 205 -17 q 49 328 49 170 q 136 608 49 504 q 364 711 222 711 q 554 614 491 711 l 557 614 l 557 694 l 771 694 l 771 79 m 559 334 l 559 389 q 520 501 559 454 q 419 547 481 547 q 307 492 348 547 q 267 335 267 436 q 305 198 267 248 q 411 147 344 147 q 518 198 477 147 q 559 334 559 250 m 680 1025 l 467 806 l 313 806 l 489 1025 l 680 1025 z "},"Ĝ":{"ha":987,"x_min":50,"x_max":909,"o":"m 909 65 q 555 -17 767 -17 q 185 113 321 -17 q 50 471 50 243 q 198 844 50 700 q 591 989 346 989 q 864 946 746 989 l 864 741 q 589 806 751 806 q 367 717 452 806 q 281 481 281 629 q 358 249 281 331 q 566 167 435 167 q 690 189 644 167 l 690 379 l 496 379 l 496 554 l 909 554 l 909 65 m 811 1063 l 671 1063 l 564 1190 l 464 1063 l 323 1063 l 483 1283 l 651 1283 l 811 1063 z "},"ĝ":{"ha":860,"x_min":49,"x_max":771,"o":"m 771 79 q 659 -220 771 -114 q 335 -326 547 -326 q 113 -286 195 -326 l 113 -106 q 329 -168 220 -168 q 497 -111 437 -168 q 557 45 557 -54 l 557 100 l 554 100 q 338 -17 481 -17 q 127 77 205 -17 q 49 328 49 170 q 136 608 49 504 q 364 711 222 711 q 554 614 491 711 l 557 614 l 557 694 l 771 694 l 771 79 m 559 334 l 559 389 q 520 501 559 454 q 419 547 481 547 q 307 492 348 547 q 267 335 267 436 q 305 198 267 248 q 411 147 344 147 q 518 198 477 147 q 559 334 559 250 m 673 804 l 533 804 l 426 932 l 326 804 l 186 804 l 345 1025 l 513 1025 l 673 804 z "},"Ǧ":{"ha":987,"x_min":50,"x_max":909,"o":"m 909 65 q 555 -17 767 -17 q 185 113 321 -17 q 50 471 50 243 q 198 844 50 700 q 591 989 346 989 q 864 946 746 989 l 864 741 q 589 806 751 806 q 367 717 452 806 q 281 481 281 629 q 358 249 281 331 q 566 167 435 167 q 690 189 644 167 l 690 379 l 496 379 l 496 554 l 909 554 l 909 65 m 785 1283 l 623 1063 l 455 1063 l 296 1283 l 435 1283 l 540 1156 l 646 1283 l 785 1283 z "},"ǧ":{"ha":860,"x_min":49,"x_max":771,"o":"m 771 79 q 659 -220 771 -114 q 335 -326 547 -326 q 113 -286 195 -326 l 113 -106 q 329 -168 220 -168 q 497 -111 437 -168 q 557 45 557 -54 l 557 100 l 554 100 q 338 -17 481 -17 q 127 77 205 -17 q 49 328 49 170 q 136 608 49 504 q 364 711 222 711 q 554 614 491 711 l 557 614 l 557 694 l 771 694 l 771 79 m 559 334 l 559 389 q 520 501 559 454 q 419 547 481 547 q 307 492 348 547 q 267 335 267 436 q 305 198 267 248 q 411 147 344 147 q 518 198 477 147 q 559 334 559 250 m 656 1017 l 494 797 l 326 797 l 167 1017 l 306 1017 l 411 890 l 517 1017 l 656 1017 z "},"Ḡ":{"ha":987,"x_min":50,"x_max":909,"o":"m 909 65 q 555 -17 767 -17 q 185 113 321 -17 q 50 471 50 243 q 198 844 50 700 q 591 989 346 989 q 864 946 746 989 l 864 741 q 589 806 751 806 q 367 717 452 806 q 281 481 281 629 q 358 249 281 331 q 566 167 435 167 q 690 189 644 167 l 690 379 l 496 379 l 496 554 l 909 554 l 909 65 m 739 1063 l 342 1063 l 342 1179 l 739 1179 l 739 1063 z "},"ḡ":{"ha":860,"x_min":49,"x_max":771,"o":"m 771 79 q 659 -220 771 -114 q 335 -326 547 -326 q 113 -286 195 -326 l 113 -106 q 329 -168 220 -168 q 497 -111 437 -168 q 557 45 557 -54 l 557 100 l 554 100 q 338 -17 481 -17 q 127 77 205 -17 q 49 328 49 170 q 136 608 49 504 q 364 711 222 711 q 554 614 491 711 l 557 614 l 557 694 l 771 694 l 771 79 m 559 334 l 559 389 q 520 501 559 454 q 419 547 481 547 q 307 492 348 547 q 267 335 267 436 q 305 198 267 248 q 411 147 344 147 q 518 198 477 147 q 559 334 559 250 m 609 804 l 212 804 l 212 921 l 609 921 l 609 804 z "},"Ğ":{"ha":987,"x_min":50,"x_max":909,"o":"m 909 65 q 555 -17 767 -17 q 185 113 321 -17 q 50 471 50 243 q 198 844 50 700 q 591 989 346 989 q 864 946 746 989 l 864 741 q 589 806 751 806 q 367 717 452 806 q 281 481 281 629 q 358 249 281 331 q 566 167 435 167 q 690 189 644 167 l 690 379 l 496 379 l 496 554 l 909 554 l 909 65 m 775 1271 q 706 1119 767 1175 q 545 1063 644 1063 q 383 1121 446 1063 q 318 1271 321 1179 l 439 1271 q 547 1179 451 1179 q 653 1271 640 1179 l 775 1271 z "},"ğ":{"ha":860,"x_min":49,"x_max":771,"o":"m 771 79 q 659 -220 771 -114 q 335 -326 547 -326 q 113 -286 195 -326 l 113 -106 q 329 -168 220 -168 q 497 -111 437 -168 q 557 45 557 -54 l 557 100 l 554 100 q 338 -17 481 -17 q 127 77 205 -17 q 49 328 49 170 q 136 608 49 504 q 364 711 222 711 q 554 614 491 711 l 557 614 l 557 694 l 771 694 l 771 79 m 559 334 l 559 389 q 520 501 559 454 q 419 547 481 547 q 307 492 348 547 q 267 335 267 436 q 305 198 267 248 q 411 147 344 147 q 518 198 477 147 q 559 334 559 250 m 659 1013 q 589 861 650 917 q 428 804 528 804 q 267 862 329 804 q 201 1013 204 920 l 323 1013 q 431 921 334 921 q 536 1013 524 921 l 659 1013 z "},"Ġ":{"ha":987,"x_min":50,"x_max":909,"o":"m 909 65 q 555 -17 767 -17 q 185 113 321 -17 q 50 471 50 243 q 198 844 50 700 q 591 989 346 989 q 864 946 746 989 l 864 741 q 589 806 751 806 q 367 717 452 806 q 281 481 281 629 q 358 249 281 331 q 566 167 435 167 q 690 189 644 167 l 690 379 l 496 379 l 496 554 l 909 554 l 909 65 m 555 1063 q 480 1090 510 1063 q 451 1156 451 1117 q 481 1222 451 1196 q 555 1247 511 1247 q 630 1221 601 1247 q 659 1156 659 1196 q 630 1089 659 1116 q 555 1063 601 1063 z "},"ġ":{"ha":860,"x_min":49,"x_max":771,"o":"m 771 79 q 659 -220 771 -114 q 335 -326 547 -326 q 113 -286 195 -326 l 113 -106 q 329 -168 220 -168 q 497 -111 437 -168 q 557 45 557 -54 l 557 100 l 554 100 q 338 -17 481 -17 q 127 77 205 -17 q 49 328 49 170 q 136 608 49 504 q 364 711 222 711 q 554 614 491 711 l 557 614 l 557 694 l 771 694 l 771 79 m 559 334 l 559 389 q 520 501 559 454 q 419 547 481 547 q 307 492 348 547 q 267 335 267 436 q 305 198 267 248 q 411 147 344 147 q 518 198 477 147 q 559 334 559 250 m 430 804 q 355 831 385 804 q 326 897 326 859 q 355 963 326 938 q 430 989 385 989 q 504 963 475 989 q 533 897 533 937 q 504 831 533 857 q 430 804 475 804 z "},"Ģ":{"ha":987,"x_min":50,"x_max":909,"o":"m 909 65 q 555 -17 767 -17 q 185 113 321 -17 q 50 471 50 243 q 198 844 50 700 q 591 989 346 989 q 864 946 746 989 l 864 741 q 589 806 751 806 q 367 717 452 806 q 281 481 281 629 q 358 249 281 331 q 566 167 435 167 q 690 189 644 167 l 690 379 l 496 379 l 496 554 l 909 554 l 909 65 m 659 -79 l 545 -318 l 414 -318 l 475 -79 l 659 -79 z "},"ģ":{"ha":860,"x_min":49,"x_max":771,"o":"m 771 79 q 659 -220 771 -114 q 335 -326 547 -326 q 113 -286 195 -326 l 113 -106 q 329 -168 220 -168 q 497 -111 437 -168 q 557 45 557 -54 l 557 100 l 554 100 q 338 -17 481 -17 q 127 77 205 -17 q 49 328 49 170 q 136 608 49 504 q 364 711 222 711 q 554 614 491 711 l 557 614 l 557 694 l 771 694 l 771 79 m 559 334 l 559 389 q 520 501 559 454 q 419 547 481 547 q 307 492 348 547 q 267 335 267 436 q 305 198 267 248 q 411 147 344 147 q 518 198 477 147 q 559 334 559 250 m 557 1043 l 496 804 l 311 804 l 425 1043 l 557 1043 z "},"Ǥ":{"ha":987,"x_min":50,"x_max":1002,"o":"m 1002 232 l 909 232 l 909 65 q 555 -17 767 -17 q 185 113 321 -17 q 50 471 50 243 q 198 844 50 700 q 591 989 346 989 q 864 946 746 989 l 864 741 q 589 806 751 806 q 367 717 452 806 q 281 481 281 629 q 359 244 281 329 q 566 160 437 160 q 690 179 637 160 l 690 232 l 496 232 l 496 361 l 690 361 l 690 427 l 496 427 l 496 574 l 909 574 l 909 361 l 1002 361 l 1002 232 z "},"ǥ":{"ha":887,"x_min":7,"x_max":872,"o":"m 798 79 q 770 -93 798 -18 q 686 -220 741 -168 q 549 -299 631 -272 q 362 -326 468 -326 q 140 -286 223 -326 l 140 -106 q 356 -168 247 -168 q 452 -153 410 -168 q 524 -111 494 -138 q 568 -44 553 -83 q 584 45 584 -5 l 584 100 l 581 100 q 365 -17 508 -17 q 253 4 303 -17 q 165 64 203 25 q 106 158 128 102 q 78 281 83 213 l 7 281 l 7 398 l 80 398 q 115 528 89 470 q 181 627 140 586 q 275 689 221 667 q 391 711 328 711 q 581 614 518 711 l 584 614 l 584 694 l 798 694 l 798 398 l 872 398 l 872 281 l 798 281 l 798 79 m 446 547 q 348 509 387 547 q 298 398 310 470 l 587 398 q 574 456 585 429 q 545 503 563 483 q 501 535 526 524 q 446 547 476 547 m 438 147 q 532 183 494 147 q 582 281 570 220 l 298 281 q 345 183 309 218 q 438 147 380 147 z "},"Ɠ":{"ha":989,"x_min":50,"x_max":1026,"o":"m 1026 940 q 958 958 991 958 q 886 925 912 958 q 860 838 860 892 q 868 742 860 785 l 863 737 q 589 806 737 806 q 367 718 452 806 q 282 481 282 629 q 359 249 282 330 q 566 167 435 167 q 690 189 644 167 l 690 379 l 496 379 l 496 554 l 909 554 l 909 65 q 555 -17 767 -17 q 185 113 321 -17 q 50 471 50 243 q 198 844 50 700 q 590 989 345 989 q 724 972 668 989 q 800 1082 743 1040 q 937 1124 857 1124 q 1026 1108 986 1124 l 1026 940 z "},"ɠ":{"ha":859,"x_min":49,"x_max":925,"o":"m 925 864 q 852 880 892 880 q 768 771 768 880 l 768 79 q 657 -220 768 -115 q 334 -326 545 -326 q 113 -286 190 -326 l 113 -106 q 329 -168 220 -168 q 498 -112 439 -168 q 557 45 557 -56 l 557 100 l 554 100 q 336 -17 479 -17 q 126 76 203 -17 q 49 328 49 169 q 135 608 49 504 q 363 711 221 711 q 551 614 489 711 l 554 614 l 554 771 q 811 1044 554 1044 q 925 1028 874 1044 l 925 864 m 559 330 l 559 392 q 520 503 559 458 q 418 547 481 547 q 305 491 347 547 q 264 334 264 434 q 302 197 264 248 q 410 147 341 147 q 518 198 477 147 q 559 330 559 248 z "},"Ɣ":{"ha":928,"x_min":7,"x_max":921,"o":"m 921 972 l 608 196 l 633 155 q 724 -92 724 9 q 650 -257 724 -188 q 460 -326 576 -326 q 275 -258 345 -326 q 204 -92 204 -190 q 222 7 204 -41 q 296 151 240 56 l 319 192 l 7 972 l 249 972 l 427 473 q 465 336 439 439 l 468 336 q 509 473 479 379 l 688 972 l 921 972 m 464 40 q 415 -86 415 -45 q 464 -154 415 -154 q 513 -86 513 -154 q 464 40 513 -45 z "},"ɣ":{"ha":812,"x_min":-21,"x_max":812,"o":"m 812 694 l 517 172 l 555 110 q 632 -96 632 -14 q 567 -247 632 -187 q 389 -306 501 -306 q 221 -248 282 -306 q 160 -96 160 -189 q 236 110 160 -15 l 275 174 l -21 694 l 214 694 l 396 353 l 578 694 l 812 694 m 396 26 q 355 -87 355 -44 q 396 -139 355 -139 q 436 -87 436 -139 q 396 26 436 -43 z "},"H":{"ha":1064,"x_min":111,"x_max":953,"o":"m 953 0 l 733 0 l 733 396 l 330 396 l 330 0 l 111 0 l 111 972 l 330 972 l 330 585 l 733 585 l 733 972 l 953 972 l 953 0 z "},"h":{"ha":836,"x_min":90,"x_max":757,"o":"m 757 0 l 543 0 l 543 395 q 432 547 543 547 q 340 505 375 547 q 304 396 304 462 l 304 0 l 90 0 l 90 1028 l 304 1028 l 304 591 l 307 591 q 521 711 386 711 q 757 427 757 711 l 757 0 z "},"Ĥ":{"ha":1064,"x_min":111,"x_max":953,"o":"m 953 0 l 733 0 l 733 396 l 330 396 l 330 0 l 111 0 l 111 972 l 330 972 l 330 585 l 733 585 l 733 972 l 953 972 l 953 0 m 776 1063 l 635 1063 l 528 1190 l 429 1063 l 288 1063 l 448 1283 l 616 1283 l 776 1063 z "},"ĥ":{"ha":836,"x_min":90,"x_max":757,"o":"m 757 0 l 543 0 l 543 395 q 432 547 543 547 q 340 505 375 547 q 304 396 304 462 l 304 0 l 90 0 l 90 1028 l 304 1028 l 304 591 l 307 591 q 521 711 386 711 q 757 427 757 711 l 757 0 m 686 1089 l 546 1089 l 439 1217 l 339 1089 l 199 1089 l 358 1310 l 526 1310 l 686 1089 z "},"Ȟ":{"ha":1064,"x_min":111,"x_max":953,"o":"m 953 0 l 733 0 l 733 396 l 330 396 l 330 0 l 111 0 l 111 972 l 330 972 l 330 585 l 733 585 l 733 972 l 953 972 l 953 0 m 777 1283 l 615 1063 l 447 1063 l 288 1283 l 427 1283 l 532 1156 l 637 1283 l 777 1283 z "},"ȟ":{"ha":836,"x_min":90,"x_max":757,"o":"m 757 0 l 543 0 l 543 395 q 432 547 543 547 q 340 505 375 547 q 304 396 304 462 l 304 0 l 90 0 l 90 1028 l 304 1028 l 304 591 l 307 591 q 521 711 386 711 q 757 427 757 711 l 757 0 m 659 1310 l 497 1089 l 329 1089 l 170 1310 l 309 1310 l 414 1182 l 519 1310 l 659 1310 z "},"Ḧ":{"ha":1064,"x_min":111,"x_max":953,"o":"m 953 0 l 733 0 l 733 396 l 330 396 l 330 0 l 111 0 l 111 972 l 330 972 l 330 585 l 733 585 l 733 972 l 953 972 l 953 0 m 684 1063 q 609 1089 638 1063 q 580 1156 580 1116 q 609 1223 580 1197 q 684 1249 638 1249 q 759 1222 729 1249 q 788 1156 788 1196 q 759 1089 788 1115 q 684 1063 730 1063 m 373 1063 q 298 1089 327 1063 q 269 1156 269 1116 q 298 1222 269 1196 q 373 1249 328 1249 q 448 1222 419 1249 q 477 1156 477 1196 q 448 1088 477 1114 q 373 1063 419 1063 z "},"ḧ":{"ha":836,"x_min":90,"x_max":760,"o":"m 757 0 l 543 0 l 543 395 q 432 547 543 547 q 340 505 375 547 q 304 396 304 462 l 304 0 l 90 0 l 90 1028 l 304 1028 l 304 591 l 307 591 q 521 711 386 711 q 757 427 757 711 l 757 0 m 655 1063 q 581 1089 610 1063 q 551 1156 551 1116 q 581 1223 551 1197 q 655 1249 610 1249 q 730 1222 701 1249 q 760 1156 760 1196 q 730 1089 760 1115 q 655 1063 701 1063 m 345 1063 q 269 1089 298 1063 q 240 1156 240 1116 q 270 1222 240 1196 q 345 1249 300 1249 q 419 1222 391 1249 q 448 1156 448 1196 q 419 1088 448 1114 q 345 1063 391 1063 z "},"Ḣ":{"ha":1064,"x_min":111,"x_max":953,"o":"m 953 0 l 733 0 l 733 396 l 330 396 l 330 0 l 111 0 l 111 972 l 330 972 l 330 585 l 733 585 l 733 972 l 953 972 l 953 0 m 531 1063 q 456 1090 486 1063 q 427 1156 427 1117 q 456 1222 427 1196 q 531 1247 486 1247 q 605 1221 576 1247 q 634 1156 634 1196 q 605 1089 634 1116 q 531 1063 576 1063 z "},"ḣ":{"ha":836,"x_min":90,"x_max":757,"o":"m 757 0 l 543 0 l 543 395 q 432 547 543 547 q 340 505 375 547 q 304 396 304 462 l 304 0 l 90 0 l 90 1028 l 304 1028 l 304 591 l 307 591 q 521 711 386 711 q 757 427 757 711 l 757 0 m 503 804 q 428 831 458 804 q 399 897 399 859 q 429 963 399 938 q 503 989 458 989 q 577 963 549 989 q 606 897 606 937 q 577 831 606 857 q 503 804 549 804 z "},"Ḥ":{"ha":1064,"x_min":111,"x_max":953,"o":"m 953 0 l 733 0 l 733 396 l 330 396 l 330 0 l 111 0 l 111 972 l 330 972 l 330 585 l 733 585 l 733 972 l 953 972 l 953 0 m 537 -265 q 462 -238 492 -265 q 433 -172 433 -211 q 463 -106 433 -132 q 537 -81 492 -81 q 611 -106 583 -81 q 640 -172 640 -132 q 611 -239 640 -212 q 537 -265 583 -265 z "},"ḥ":{"ha":836,"x_min":90,"x_max":757,"o":"m 757 0 l 543 0 l 543 395 q 432 547 543 547 q 340 505 375 547 q 304 396 304 462 l 304 0 l 90 0 l 90 1028 l 304 1028 l 304 591 l 307 591 q 521 711 386 711 q 757 427 757 711 l 757 0 m 426 -265 q 351 -238 380 -265 q 321 -172 321 -211 q 351 -106 321 -132 q 426 -81 381 -81 q 500 -106 471 -81 q 529 -172 529 -132 q 500 -239 529 -212 q 426 -265 471 -265 z "},"Ḫ":{"ha":1064,"x_min":111,"x_max":953,"o":"m 953 0 l 733 0 l 733 396 l 330 396 l 330 0 l 111 0 l 111 972 l 330 972 l 330 585 l 733 585 l 733 972 l 953 972 l 953 0 m 758 -80 q 689 -232 750 -176 q 528 -288 627 -288 q 366 -230 429 -288 q 301 -80 304 -172 l 422 -80 q 530 -172 434 -172 q 636 -80 623 -172 l 758 -80 z "},"ḫ":{"ha":836,"x_min":90,"x_max":757,"o":"m 757 0 l 543 0 l 543 395 q 432 547 543 547 q 340 505 375 547 q 304 396 304 462 l 304 0 l 90 0 l 90 1028 l 304 1028 l 304 591 l 307 591 q 521 711 386 711 q 757 427 757 711 l 757 0 m 650 -80 q 580 -232 642 -176 q 419 -288 519 -288 q 258 -230 320 -288 q 193 -80 195 -172 l 314 -80 q 422 -172 326 -172 q 528 -80 515 -172 l 650 -80 z "},"Ḩ":{"ha":1064,"x_min":104,"x_max":953,"o":"m 953 0 l 733 0 l 733 396 l 330 396 l 330 0 l 111 0 l 111 972 l 330 972 l 330 585 l 733 585 l 733 972 l 953 972 l 953 0 m 104 -306 l 104 -212 q 153 -216 128 -216 q 237 -167 237 -216 q 161 -122 237 -122 q 136 -123 153 -122 l 136 0 l 253 0 l 253 -56 q 380 -168 380 -61 q 164 -309 380 -309 q 104 -306 133 -309 z "},"ḩ":{"ha":836,"x_min":90,"x_max":757,"o":"m 757 0 l 543 0 l 543 395 q 432 547 543 547 q 340 505 375 547 q 304 396 304 462 l 304 0 l 90 0 l 90 1028 l 304 1028 l 304 591 l 307 591 q 521 711 386 711 q 757 427 757 711 l 757 0 m 92 -306 l 92 -212 q 141 -216 116 -216 q 224 -167 224 -216 q 149 -122 224 -122 q 124 -123 140 -122 l 124 0 l 241 0 l 241 -56 q 368 -168 368 -61 q 152 -309 368 -309 q 92 -306 121 -309 z "},"Ħ":{"ha":1064,"x_min":0,"x_max":1064,"o":"m 1064 690 l 953 690 l 953 0 l 733 0 l 733 396 l 330 396 l 330 0 l 111 0 l 111 690 l 0 690 l 0 829 l 111 829 l 111 972 l 330 972 l 330 829 l 733 829 l 733 972 l 953 972 l 953 829 l 1064 829 l 1064 690 m 733 585 l 733 690 l 330 690 l 330 585 l 733 585 z "},"ħ":{"ha":856,"x_min":18,"x_max":779,"o":"m 779 0 l 568 0 l 568 375 q 457 528 568 528 q 363 486 397 528 q 329 379 329 445 l 329 0 l 115 0 l 115 800 l 18 800 l 18 907 l 115 907 l 115 1028 l 329 1028 l 329 907 l 553 907 l 553 800 l 329 800 l 329 576 l 332 576 q 546 696 410 696 q 779 411 779 696 l 779 0 z "},"I":{"ha":440,"x_min":30,"x_max":412,"o":"m 412 972 l 412 803 l 330 803 l 330 170 l 412 170 l 412 0 l 30 0 l 30 170 l 111 170 l 111 803 l 30 803 l 30 972 l 412 972 z "},"i":{"ha":395,"x_min":75,"x_max":322,"o":"m 199 804 q 110 837 144 804 q 75 916 75 869 q 110 994 75 964 q 199 1025 144 1025 q 288 994 254 1025 q 322 916 322 964 q 288 836 322 867 q 199 804 254 804 m 304 0 l 90 0 l 90 694 l 304 694 l 304 0 z "},"Ì":{"ha":440,"x_min":-5,"x_max":412,"o":"m 412 972 l 412 803 l 330 803 l 330 170 l 412 170 l 412 0 l 30 0 l 30 170 l 111 170 l 111 803 l 30 803 l 30 972 l 412 972 m 361 1063 l 208 1063 l -5 1282 l 185 1282 l 361 1063 z "},"ì":{"ha":395,"x_min":-18,"x_max":349,"o":"m 304 0 l 90 0 l 90 694 l 304 694 l 304 0 m 349 804 l 195 804 l -18 1023 l 173 1023 l 349 804 z "},"Í":{"ha":440,"x_min":30,"x_max":441,"o":"m 412 972 l 412 803 l 330 803 l 330 170 l 412 170 l 412 0 l 30 0 l 30 170 l 111 170 l 111 803 l 30 803 l 30 972 l 412 972 m 441 1282 l 229 1063 l 75 1063 l 251 1282 l 441 1282 z "},"í":{"ha":395,"x_min":48,"x_max":415,"o":"m 304 0 l 90 0 l 90 694 l 304 694 l 304 0 m 415 1023 l 203 804 l 48 804 l 224 1023 l 415 1023 z "},"Î":{"ha":440,"x_min":-18,"x_max":469,"o":"m 412 972 l 412 803 l 330 803 l 330 170 l 412 170 l 412 0 l 30 0 l 30 170 l 111 170 l 111 803 l 30 803 l 30 972 l 412 972 m 469 1063 l 329 1063 l 222 1190 l 122 1063 l -18 1063 l 141 1283 l 309 1283 l 469 1063 z "},"î":{"ha":395,"x_min":-41,"x_max":446,"o":"m 304 0 l 90 0 l 90 694 l 304 694 l 304 0 m 446 804 l 306 804 l 199 932 l 99 804 l -41 804 l 118 1025 l 286 1025 l 446 804 z "},"Ǐ":{"ha":440,"x_min":-22,"x_max":467,"o":"m 412 972 l 412 803 l 330 803 l 330 170 l 412 170 l 412 0 l 30 0 l 30 170 l 111 170 l 111 803 l 30 803 l 30 972 l 412 972 m 467 1283 l 306 1063 l 138 1063 l -22 1283 l 117 1283 l 222 1156 l 328 1283 l 467 1283 z "},"ǐ":{"ha":395,"x_min":-47,"x_max":442,"o":"m 304 0 l 90 0 l 90 694 l 304 694 l 304 0 m 442 1025 l 281 804 l 113 804 l -47 1025 l 92 1025 l 197 897 l 303 1025 l 442 1025 z "},"Ĩ":{"ha":440,"x_min":-23,"x_max":465,"o":"m 412 972 l 412 803 l 330 803 l 330 170 l 412 170 l 412 0 l 30 0 l 30 170 l 111 170 l 111 803 l 30 803 l 30 972 l 412 972 m 465 1274 q 427 1127 465 1179 q 324 1075 389 1075 q 210 1104 266 1075 q 127 1136 150 1136 q 73 1063 73 1136 l -23 1063 q 14 1209 -23 1157 q 119 1261 52 1261 q 233 1228 174 1261 q 314 1198 286 1198 q 367 1274 367 1198 l 465 1274 z "},"ĩ":{"ha":395,"x_min":-46,"x_max":441,"o":"m 304 0 l 90 0 l 90 694 l 304 694 l 304 0 m 441 1015 q 404 868 441 920 q 301 817 366 817 q 187 846 243 817 q 104 878 127 878 q 50 804 50 878 l -46 804 q -9 951 -46 899 q 96 1003 28 1003 q 210 970 151 1003 q 291 940 263 940 q 344 1015 344 940 l 441 1015 z "},"Ï":{"ha":440,"x_min":-35,"x_max":484,"o":"m 412 972 l 412 803 l 330 803 l 330 170 l 412 170 l 412 0 l 30 0 l 30 170 l 111 170 l 111 803 l 30 803 l 30 972 l 412 972 m 380 1063 q 305 1089 334 1063 q 276 1156 276 1116 q 305 1223 276 1197 q 380 1249 334 1249 q 455 1222 425 1249 q 484 1156 484 1196 q 455 1089 484 1115 q 380 1063 426 1063 m 69 1063 q -6 1089 23 1063 q -35 1156 -35 1116 q -5 1222 -35 1196 q 69 1249 24 1249 q 144 1222 115 1249 q 173 1156 173 1196 q 144 1088 173 1114 q 69 1063 115 1063 z "},"ï":{"ha":395,"x_min":-58,"x_max":462,"o":"m 304 0 l 90 0 l 90 694 l 304 694 l 304 0 m 357 804 q 283 831 312 804 q 254 897 254 857 q 283 964 254 939 q 357 990 312 990 q 432 964 403 990 q 462 897 462 938 q 433 830 462 857 q 357 804 404 804 m 47 804 q -28 831 1 804 q -58 897 -58 858 q -28 964 -58 938 q 47 990 2 990 q 122 964 93 990 q 151 897 151 938 q 122 830 151 856 q 47 804 93 804 z "},"Ḯ":{"ha":440,"x_min":-58,"x_max":507,"o":"m 412 972 l 412 803 l 330 803 l 330 170 l 412 170 l 412 0 l 30 0 l 30 170 l 111 170 l 111 803 l 30 803 l 30 972 l 412 972 m 456 1357 l 277 1190 l 143 1190 l 265 1357 l 456 1357 m 416 1063 q 351 1086 376 1063 q 326 1144 326 1109 q 351 1202 326 1180 q 416 1225 376 1225 q 481 1202 456 1225 q 507 1144 507 1179 q 482 1086 507 1109 q 416 1063 457 1063 m 33 1063 q -33 1086 -7 1063 q -58 1144 -58 1109 q -33 1202 -58 1180 q 33 1225 -7 1225 q 98 1202 73 1225 q 124 1144 124 1179 q 99 1086 124 1109 q 33 1063 74 1063 z "},"ḯ":{"ha":395,"x_min":-82,"x_max":484,"o":"m 304 0 l 90 0 l 90 694 l 304 694 l 304 0 m 432 1121 l 253 954 l 119 954 l 241 1121 l 432 1121 m 392 827 q 327 850 353 827 q 302 907 302 873 q 327 966 302 943 q 392 988 353 988 q 458 965 432 988 q 484 907 484 943 q 458 849 484 872 q 392 827 433 827 m 9 827 q -56 850 -31 827 q -82 907 -82 873 q -56 966 -82 943 q 9 988 -31 988 q 75 965 49 988 q 100 907 100 943 q 75 849 100 872 q 9 827 50 827 z "},"Ī":{"ha":440,"x_min":22,"x_max":419,"o":"m 412 972 l 412 803 l 330 803 l 330 170 l 412 170 l 412 0 l 30 0 l 30 170 l 111 170 l 111 803 l 30 803 l 30 972 l 412 972 m 419 1063 l 22 1063 l 22 1179 l 419 1179 l 419 1063 z "},"ī":{"ha":395,"x_min":-1,"x_max":396,"o":"m 304 0 l 90 0 l 90 694 l 304 694 l 304 0 m 396 804 l -1 804 l -1 921 l 396 921 l 396 804 z "},"Ĭ":{"ha":440,"x_min":-7,"x_max":450,"o":"m 412 972 l 412 803 l 330 803 l 330 170 l 412 170 l 412 0 l 30 0 l 30 170 l 111 170 l 111 803 l 30 803 l 30 972 l 412 972 m 450 1271 q 380 1119 441 1175 q 219 1063 319 1063 q 58 1121 120 1063 q -7 1271 -5 1179 l 114 1271 q 222 1179 125 1179 q 328 1271 315 1179 l 450 1271 z "},"ĭ":{"ha":395,"x_min":-31,"x_max":427,"o":"m 304 0 l 90 0 l 90 694 l 304 694 l 304 0 m 427 1013 q 357 861 418 917 q 196 804 296 804 q 35 862 97 804 q -31 1013 -28 920 l 91 1013 q 199 921 102 921 q 304 1013 292 921 l 427 1013 z "},"Ȋ":{"ha":440,"x_min":-7,"x_max":450,"o":"m 412 972 l 412 803 l 330 803 l 330 170 l 412 170 l 412 0 l 30 0 l 30 170 l 111 170 l 111 803 l 30 803 l 30 972 l 412 972 m 450 1063 l 328 1063 q 221 1154 317 1154 q 115 1063 129 1154 l -7 1063 q 63 1215 1 1158 q 224 1271 124 1271 q 385 1213 323 1271 q 450 1063 448 1155 z "},"ȋ":{"ha":395,"x_min":-32,"x_max":425,"o":"m 304 0 l 90 0 l 90 694 l 304 694 l 304 0 m 425 804 l 303 804 q 196 896 292 896 q 90 804 104 896 l -32 804 q 38 956 -24 900 q 199 1013 99 1013 q 360 955 298 1013 q 425 804 422 897 z "},"Ȉ":{"ha":440,"x_min":-136,"x_max":432,"o":"m 412 972 l 412 803 l 330 803 l 330 170 l 412 170 l 412 0 l 30 0 l 30 170 l 111 170 l 111 803 l 30 803 l 30 972 l 412 972 m 432 1063 l 289 1063 l 121 1279 l 289 1279 l 432 1063 m 178 1063 l 35 1063 l -136 1279 l 34 1279 l 178 1063 z "},"ȉ":{"ha":395,"x_min":-151,"x_max":417,"o":"m 304 0 l 90 0 l 90 694 l 304 694 l 304 0 m 417 804 l 274 804 l 106 1021 l 274 1021 l 417 804 m 163 804 l 20 804 l -151 1021 l 19 1021 l 163 804 z "},"Ḭ":{"ha":440,"x_min":-15,"x_max":473,"o":"m 412 972 l 412 803 l 330 803 l 330 170 l 412 170 l 412 0 l 30 0 l 30 170 l 111 170 l 111 803 l 30 803 l 30 972 l 412 972 m 473 -67 q 435 -214 473 -162 q 332 -266 397 -266 q 218 -237 274 -266 q 135 -205 158 -205 q 81 -278 81 -205 l -15 -278 q 22 -132 -15 -184 q 127 -79 60 -79 q 241 -113 182 -79 q 322 -142 294 -142 q 375 -67 375 -142 l 473 -67 z "},"ḭ":{"ha":395,"x_min":-26,"x_max":462,"o":"m 199 804 q 110 837 144 804 q 75 916 75 869 q 110 994 75 964 q 199 1025 144 1025 q 288 994 254 1025 q 322 916 322 964 q 288 836 322 867 q 199 804 254 804 m 304 0 l 90 0 l 90 694 l 304 694 l 304 0 m 462 -67 q 424 -214 462 -162 q 321 -266 387 -266 q 208 -237 263 -266 q 124 -205 147 -205 q 70 -278 70 -205 l -26 -278 q 12 -132 -26 -184 q 116 -79 49 -79 q 230 -113 171 -79 q 311 -142 283 -142 q 364 -67 364 -142 l 462 -67 z "},"Ị":{"ha":440,"x_min":30,"x_max":412,"o":"m 412 972 l 412 803 l 330 803 l 330 170 l 412 170 l 412 0 l 30 0 l 30 170 l 111 170 l 111 803 l 30 803 l 30 972 l 412 972 m 222 -265 q 148 -238 177 -265 q 118 -172 118 -211 q 148 -106 118 -132 q 222 -81 178 -81 q 297 -106 268 -81 q 326 -172 326 -132 q 297 -239 326 -212 q 222 -265 268 -265 z "},"ị":{"ha":395,"x_min":75,"x_max":322,"o":"m 199 804 q 110 837 144 804 q 75 916 75 869 q 110 994 75 964 q 199 1025 144 1025 q 288 994 254 1025 q 322 916 322 964 q 288 836 322 867 q 199 804 254 804 m 304 0 l 90 0 l 90 694 l 304 694 l 304 0 m 199 -265 q 124 -238 154 -265 q 95 -172 95 -211 q 125 -106 95 -132 q 199 -81 155 -81 q 274 -106 245 -81 q 302 -172 302 -132 q 274 -239 302 -212 q 199 -265 245 -265 z "},"Į":{"ha":440,"x_min":30,"x_max":412,"o":"m 412 972 l 412 803 l 330 803 l 330 170 l 412 170 l 412 0 l 30 0 l 30 170 l 111 170 l 111 803 l 30 803 l 30 972 l 412 972 m 324 -271 q 285 -280 308 -277 q 239 -284 262 -284 q 146 -254 181 -284 q 112 -166 112 -224 q 119 -122 112 -145 q 141 -78 127 -100 q 176 -36 155 -56 q 224 0 197 -16 l 330 0 q 251 -76 277 -39 q 226 -141 226 -113 q 237 -175 226 -163 q 269 -186 249 -186 q 296 -184 281 -186 q 323 -178 310 -182 l 324 -271 z "},"į":{"ha":395,"x_min":75,"x_max":322,"o":"m 199 804 q 110 837 144 804 q 75 916 75 869 q 110 994 75 964 q 199 1025 144 1025 q 288 994 254 1025 q 322 916 322 964 q 288 836 322 867 q 199 804 254 804 m 304 0 l 90 0 l 90 694 l 304 694 l 304 0 m 299 -271 q 260 -280 283 -277 q 214 -284 237 -284 q 121 -254 156 -284 q 87 -166 87 -224 q 94 -122 87 -145 q 116 -78 102 -100 q 151 -36 130 -56 q 199 0 172 -16 l 304 0 q 226 -76 252 -39 q 201 -141 201 -113 q 212 -175 201 -163 q 243 -186 224 -186 q 271 -184 256 -186 q 298 -178 285 -182 l 299 -271 z "},"İ":{"ha":440,"x_min":30,"x_max":412,"o":"m 412 972 l 412 803 l 330 803 l 330 170 l 412 170 l 412 0 l 30 0 l 30 170 l 111 170 l 111 803 l 30 803 l 30 972 l 412 972 m 220 1063 q 145 1090 175 1063 q 116 1156 116 1117 q 146 1222 116 1196 q 220 1247 176 1247 q 295 1221 266 1247 q 323 1156 323 1196 q 295 1089 323 1116 q 220 1063 266 1063 z "},"ı":{"ha":395,"x_min":90,"x_max":304,"o":"m 304 0 l 90 0 l 90 694 l 304 694 l 304 0 z "},"ɪ":{"ha":559,"x_min":56,"x_max":503,"o":"m 503 0 l 56 0 l 56 158 l 172 158 l 172 536 l 56 536 l 56 694 l 503 694 l 503 536 l 386 536 l 386 158 l 503 158 l 503 0 z "},"Ɨ":{"ha":440,"x_min":22,"x_max":419,"o":"m 412 972 l 412 803 l 330 803 l 330 586 l 419 586 l 419 401 l 330 401 l 330 170 l 412 170 l 412 0 l 30 0 l 30 170 l 111 170 l 111 401 l 22 401 l 22 586 l 111 586 l 111 803 l 30 803 l 30 972 l 412 972 z "},"ɨ":{"ha":503,"x_min":28,"x_max":475,"o":"m 253 804 q 164 837 199 804 q 129 916 129 869 q 164 995 129 964 q 253 1025 199 1025 q 342 994 308 1025 q 376 916 376 964 q 342 836 376 867 q 253 804 308 804 m 475 306 l 358 306 l 358 0 l 144 0 l 144 306 l 28 306 l 28 444 l 144 444 l 144 694 l 358 694 l 358 444 l 475 444 l 475 306 z "},"ᵻ":{"ha":559,"x_min":56,"x_max":503,"o":"m 475 300 l 386 300 l 386 158 l 503 158 l 503 0 l 56 0 l 56 158 l 172 158 l 172 300 l 78 300 l 78 416 l 172 416 l 172 536 l 56 536 l 56 694 l 503 694 l 503 536 l 386 536 l 386 416 l 475 416 l 475 300 z "},"Ĳ":{"ha":1059,"x_min":30,"x_max":958,"o":"m 412 972 l 412 803 l 330 803 l 330 170 l 412 170 l 412 0 l 30 0 l 30 170 l 111 170 l 111 803 l 30 803 l 30 972 l 412 972 m 958 386 q 867 87 958 191 q 605 -17 777 -17 q 463 9 528 -17 l 463 215 q 589 172 519 172 q 739 395 739 172 l 739 972 l 958 972 l 958 386 z "},"ĳ":{"ha":840,"x_min":75,"x_max":767,"o":"m 199 804 q 110 837 144 804 q 75 916 75 869 q 110 994 75 964 q 199 1025 144 1025 q 288 994 254 1025 q 322 916 322 964 q 288 836 322 867 q 199 804 254 804 m 304 0 l 90 0 l 90 694 l 304 694 l 304 0 m 644 804 q 555 837 589 804 q 520 916 520 869 q 555 994 520 964 q 644 1025 589 1025 q 733 994 699 1025 q 767 916 767 964 q 733 836 767 867 q 644 804 699 804 m 749 12 q 674 -234 749 -142 q 457 -326 599 -326 q 355 -306 410 -326 l 355 -138 q 434 -163 399 -163 q 535 -4 535 -163 l 535 694 l 749 694 l 749 12 z "},"Ɩ":{"ha":524,"x_min":111,"x_max":496,"o":"m 496 8 q 351 -17 427 -17 q 111 271 111 -17 l 111 972 l 330 972 l 330 288 q 425 172 330 172 q 496 192 463 172 l 496 8 z "},"ɩ":{"ha":460,"x_min":83,"x_max":453,"o":"m 453 8 q 310 -17 406 -17 q 83 218 83 -17 l 83 694 l 296 694 l 296 256 q 383 147 296 147 q 453 167 420 147 l 453 8 z "},"ᵼ":{"ha":456,"x_min":14,"x_max":443,"o":"m 411 300 l 319 300 l 319 246 q 378 158 319 158 q 443 174 409 158 l 443 9 q 317 -13 395 -13 q 104 214 104 -13 l 104 300 l 14 300 l 14 416 l 104 416 l 104 694 l 319 694 l 319 416 l 411 416 l 411 300 z "},"J":{"ha":618,"x_min":22,"x_max":517,"o":"m 517 386 q 426 87 517 191 q 164 -17 336 -17 q 22 9 87 -17 l 22 215 q 149 172 79 172 q 298 395 298 172 l 298 972 l 517 972 l 517 386 z "},"j":{"ha":395,"x_min":-90,"x_max":322,"o":"m 199 804 q 110 837 144 804 q 75 916 75 869 q 110 994 75 964 q 199 1025 144 1025 q 288 994 254 1025 q 322 916 322 964 q 288 836 322 867 q 199 804 254 804 m 304 12 q 229 -234 304 -142 q 12 -326 154 -326 q -90 -306 -35 -326 l -90 -138 q -11 -163 -45 -163 q 90 -4 90 -163 l 90 694 l 304 694 l 304 12 z "},"ȷ":{"ha":395,"x_min":-90,"x_max":304,"o":"m 304 12 q 229 -234 304 -142 q 12 -326 154 -326 q -90 -306 -35 -326 l -90 -138 q -11 -163 -45 -163 q 90 -4 90 -163 l 90 694 l 304 694 l 304 12 z "},"Ĵ":{"ha":618,"x_min":22,"x_max":650,"o":"m 517 386 q 426 87 517 191 q 164 -17 336 -17 q 22 9 87 -17 l 22 215 q 149 172 79 172 q 298 395 298 172 l 298 972 l 517 972 l 517 386 m 650 1063 l 510 1063 l 403 1190 l 303 1063 l 163 1063 l 322 1283 l 490 1283 l 650 1063 z "},"ĵ":{"ha":395,"x_min":-90,"x_max":441,"o":"m 304 12 q 229 -234 304 -142 q 12 -326 154 -326 q -90 -306 -35 -326 l -90 -138 q -11 -163 -45 -163 q 90 -4 90 -163 l 90 694 l 304 694 l 304 12 m 441 804 l 300 804 l 193 932 l 94 804 l -47 804 l 113 1025 l 281 1025 l 441 804 z "},"Ɉ":{"ha":618,"x_min":22,"x_max":598,"o":"m 517 386 q 426 87 517 191 q 164 -17 336 -17 q 22 9 87 -17 l 22 215 q 149 172 79 172 q 298 395 298 172 l 298 437 l 143 437 l 143 576 l 298 576 l 298 972 l 517 972 l 517 576 l 598 576 l 598 437 l 517 437 l 517 386 z "},"ɉ":{"ha":395,"x_min":-90,"x_max":374,"o":"m 304 12 q 229 -234 304 -142 q 12 -326 154 -326 q -90 -306 -35 -326 l -90 -138 q -11 -163 -45 -163 q 90 -4 90 -163 l 90 283 l 19 283 l 19 391 l 90 391 l 90 694 l 304 694 l 304 391 l 374 391 l 374 283 l 304 283 l 304 12 m 199 804 q 110 837 144 804 q 75 916 75 869 q 110 994 75 964 q 199 1025 144 1025 q 288 994 254 1025 q 322 916 322 964 q 288 836 322 867 q 199 804 254 804 z "},"ɟ":{"ha":517,"x_min":-31,"x_max":482,"o":"m 482 279 l 366 279 l 366 -62 q 288 -253 366 -180 q 78 -326 211 -326 q -31 -313 18 -326 l -31 -146 q 49 -163 9 -163 q 151 -50 151 -163 l 151 279 l 35 279 l 35 437 l 151 437 l 151 694 l 366 694 l 366 437 l 482 437 l 482 279 z "},"K":{"ha":901,"x_min":111,"x_max":920,"o":"m 920 0 l 643 0 l 359 422 q 334 476 351 435 l 330 476 l 330 0 l 111 0 l 111 972 l 330 972 l 330 513 l 334 513 q 361 567 342 532 l 629 972 l 890 972 l 551 509 l 920 0 z "},"k":{"ha":777,"x_min":90,"x_max":786,"o":"m 786 0 l 529 0 l 307 345 l 304 345 l 304 0 l 90 0 l 90 1028 l 304 1028 l 304 374 l 307 374 l 514 694 l 768 694 l 519 368 l 786 0 z "},"Ḱ":{"ha":901,"x_min":111,"x_max":920,"o":"m 920 0 l 643 0 l 359 422 q 334 476 351 435 l 330 476 l 330 0 l 111 0 l 111 972 l 330 972 l 330 513 l 334 513 q 361 567 342 532 l 629 972 l 890 972 l 551 509 l 920 0 m 686 1282 l 474 1063 l 319 1063 l 496 1282 l 686 1282 z "},"ḱ":{"ha":777,"x_min":90,"x_max":786,"o":"m 786 0 l 529 0 l 307 345 l 304 345 l 304 0 l 90 0 l 90 1028 l 304 1028 l 304 374 l 307 374 l 514 694 l 768 694 l 519 368 l 786 0 m 627 1282 l 414 1063 l 260 1063 l 436 1282 l 627 1282 z "},"Ǩ":{"ha":901,"x_min":111,"x_max":920,"o":"m 920 0 l 643 0 l 359 422 q 334 476 351 435 l 330 476 l 330 0 l 111 0 l 111 972 l 330 972 l 330 513 l 334 513 q 361 567 342 532 l 629 972 l 890 972 l 551 509 l 920 0 m 710 1283 l 549 1063 l 380 1063 l 221 1283 l 360 1283 l 465 1156 l 571 1283 l 710 1283 z "},"ǩ":{"ha":777,"x_min":90,"x_max":786,"o":"m 786 0 l 529 0 l 307 345 l 304 345 l 304 0 l 90 0 l 90 1028 l 304 1028 l 304 374 l 307 374 l 514 694 l 768 694 l 519 368 l 786 0 m 659 1283 l 497 1063 l 329 1063 l 170 1283 l 309 1283 l 414 1156 l 519 1283 l 659 1283 z "},"Ḵ":{"ha":901,"x_min":111,"x_max":920,"o":"m 920 0 l 643 0 l 359 422 q 334 476 351 435 l 330 476 l 330 0 l 111 0 l 111 972 l 330 972 l 330 513 l 334 513 q 361 567 342 532 l 629 972 l 890 972 l 551 509 l 920 0 m 685 -197 l 288 -197 l 288 -81 l 685 -81 l 685 -197 z "},"ḵ":{"ha":777,"x_min":90,"x_max":786,"o":"m 608 -197 l 211 -197 l 211 -81 l 608 -81 l 608 -197 m 786 0 l 529 0 l 307 345 l 304 345 l 304 0 l 90 0 l 90 1028 l 304 1028 l 304 374 l 307 374 l 514 694 l 768 694 l 519 368 l 786 0 z "},"Ḳ":{"ha":901,"x_min":111,"x_max":920,"o":"m 920 0 l 643 0 l 359 422 q 334 476 351 435 l 330 476 l 330 0 l 111 0 l 111 972 l 330 972 l 330 513 l 334 513 q 361 567 342 532 l 629 972 l 890 972 l 551 509 l 920 0 m 477 -265 q 402 -238 432 -265 q 373 -172 373 -211 q 403 -106 373 -132 q 477 -81 433 -81 q 552 -106 523 -81 q 581 -172 581 -132 q 552 -239 581 -212 q 477 -265 523 -265 z "},"ḳ":{"ha":777,"x_min":90,"x_max":786,"o":"m 786 0 l 529 0 l 307 345 l 304 345 l 304 0 l 90 0 l 90 1028 l 304 1028 l 304 374 l 307 374 l 514 694 l 768 694 l 519 368 l 786 0 m 419 -265 q 344 -238 374 -265 q 315 -172 315 -211 q 345 -106 315 -132 q 419 -81 374 -81 q 493 -106 465 -81 q 522 -172 522 -132 q 493 -239 522 -212 q 419 -265 465 -265 z "},"Ķ":{"ha":901,"x_min":111,"x_max":920,"o":"m 920 0 l 643 0 l 359 422 q 334 476 351 435 l 330 476 l 330 0 l 111 0 l 111 972 l 330 972 l 330 513 l 334 513 q 361 567 342 532 l 629 972 l 890 972 l 551 509 l 920 0 m 601 -79 l 487 -318 l 355 -318 l 416 -79 l 601 -79 z "},"ķ":{"ha":777,"x_min":90,"x_max":786,"o":"m 786 0 l 529 0 l 307 345 l 304 345 l 304 0 l 90 0 l 90 1028 l 304 1028 l 304 374 l 307 374 l 514 694 l 768 694 l 519 368 l 786 0 m 519 -79 l 405 -318 l 273 -318 l 334 -79 l 519 -79 z "},"Ƙ":{"ha":901,"x_min":111,"x_max":920,"o":"m 920 0 l 643 0 l 358 419 q 334 468 353 427 l 330 468 l 330 0 l 111 0 l 111 972 l 330 972 l 330 521 l 334 521 q 358 564 345 543 l 494 772 q 642 949 583 909 q 779 989 701 989 q 872 971 827 989 l 872 779 q 804 800 840 800 q 676 692 749 800 l 551 504 l 920 0 z "},"ƙ":{"ha":777,"x_min":90,"x_max":786,"o":"m 786 0 l 529 0 l 307 345 l 304 345 l 304 0 l 90 0 l 90 771 q 347 1044 90 1044 q 461 1028 410 1044 l 461 864 q 389 880 429 880 q 304 771 304 880 l 304 374 l 307 374 l 514 694 l 768 694 l 519 368 l 786 0 z "},"L":{"ha":710,"x_min":111,"x_max":690,"o":"m 690 0 l 111 0 l 111 972 l 330 972 l 330 178 l 690 178 l 690 0 z "},"l":{"ha":395,"x_min":90,"x_max":304,"o":"m 304 0 l 90 0 l 90 1028 l 304 1028 l 304 0 z "},"Ĺ":{"ha":710,"x_min":111,"x_max":690,"o":"m 690 0 l 111 0 l 111 972 l 330 972 l 330 178 l 690 178 l 690 0 m 612 1282 l 400 1063 l 245 1063 l 422 1282 l 612 1282 z "},"ĺ":{"ha":395,"x_min":75,"x_max":442,"o":"m 304 0 l 90 0 l 90 1028 l 304 1028 l 304 0 m 442 1337 l 230 1118 l 75 1118 l 252 1337 l 442 1337 z "},"Ḹ":{"ha":710,"x_min":111,"x_max":690,"o":"m 690 0 l 111 0 l 111 972 l 330 972 l 330 178 l 690 178 l 690 0 m 391 -265 q 316 -238 345 -265 q 286 -172 286 -211 q 316 -106 286 -132 q 391 -81 346 -81 q 465 -106 436 -81 q 494 -172 494 -132 q 465 -239 494 -212 q 391 -265 436 -265 m 590 1063 l 193 1063 l 193 1179 l 590 1179 l 590 1063 z "},"ḹ":{"ha":395,"x_min":-1,"x_max":396,"o":"m 304 0 l 90 0 l 90 1028 l 304 1028 l 304 0 m 200 -265 q 125 -238 155 -265 q 96 -172 96 -211 q 125 -106 96 -132 q 200 -81 155 -81 q 274 -106 245 -81 q 303 -172 303 -132 q 274 -239 303 -212 q 200 -265 245 -265 m 396 1118 l -1 1118 l -1 1235 l 396 1235 l 396 1118 z "},"Ľ":{"ha":710,"x_min":111,"x_max":715,"o":"m 690 0 l 111 0 l 111 972 l 330 972 l 330 178 l 690 178 l 690 0 m 715 974 l 601 735 l 469 735 l 530 974 l 715 974 z "},"ľ":{"ha":506,"x_min":90,"x_max":622,"o":"m 304 0 l 90 0 l 90 1028 l 304 1028 l 304 0 m 622 1028 l 508 789 l 376 789 l 437 1028 l 622 1028 z "},"Ḽ":{"ha":710,"x_min":111,"x_max":690,"o":"m 690 0 l 111 0 l 111 972 l 330 972 l 330 178 l 690 178 l 690 0 m 647 -300 l 507 -300 l 399 -173 l 300 -300 l 159 -300 l 319 -80 l 487 -80 l 647 -300 z "},"ḽ":{"ha":395,"x_min":-45,"x_max":443,"o":"m 304 0 l 90 0 l 90 1028 l 304 1028 l 304 0 m 443 -300 l 302 -300 l 195 -173 l 96 -300 l -45 -300 l 115 -80 l 283 -80 l 443 -300 z "},"Ḻ":{"ha":710,"x_min":111,"x_max":690,"o":"m 690 0 l 111 0 l 111 972 l 330 972 l 330 178 l 690 178 l 690 0 m 600 -197 l 202 -197 l 202 -81 l 600 -81 l 600 -197 z "},"ḻ":{"ha":395,"x_min":-1,"x_max":397,"o":"m 304 0 l 90 0 l 90 1028 l 304 1028 l 304 0 m 397 -197 l -1 -197 l -1 -81 l 397 -81 l 397 -197 z "},"Ḷ":{"ha":710,"x_min":111,"x_max":690,"o":"m 690 0 l 111 0 l 111 972 l 330 972 l 330 178 l 690 178 l 690 0 m 391 -265 q 316 -238 345 -265 q 286 -172 286 -211 q 316 -106 286 -132 q 391 -81 346 -81 q 465 -106 436 -81 q 494 -172 494 -132 q 465 -239 494 -212 q 391 -265 436 -265 z "},"ḷ":{"ha":395,"x_min":90,"x_max":304,"o":"m 304 0 l 90 0 l 90 1028 l 304 1028 l 304 0 m 200 -265 q 125 -238 155 -265 q 96 -172 96 -211 q 125 -106 96 -132 q 200 -81 155 -81 q 274 -106 245 -81 q 303 -172 303 -132 q 274 -239 303 -212 q 200 -265 245 -265 z "},"Ļ":{"ha":710,"x_min":111,"x_max":690,"o":"m 690 0 l 111 0 l 111 972 l 330 972 l 330 178 l 690 178 l 690 0 m 492 -79 l 378 -318 l 247 -318 l 308 -79 l 492 -79 z "},"ļ":{"ha":395,"x_min":46,"x_max":304,"o":"m 304 0 l 90 0 l 90 1028 l 304 1028 l 304 0 m 292 -79 l 178 -318 l 46 -318 l 107 -79 l 292 -79 z "},"Ŀ":{"ha":710,"x_min":111,"x_max":690,"o":"m 690 0 l 111 0 l 111 972 l 330 972 l 330 178 l 690 178 l 690 0 m 561 442 q 486 469 515 442 q 456 535 456 496 q 486 601 456 576 q 561 627 516 627 q 635 601 606 627 q 664 535 664 575 q 635 469 664 495 q 561 442 606 442 z "},"ŀ":{"ha":602,"x_min":90,"x_max":602,"o":"m 304 0 l 90 0 l 90 1028 l 304 1028 l 304 0 m 498 401 q 424 428 453 401 q 394 494 394 455 q 424 560 394 534 q 498 585 454 585 q 573 559 544 585 q 602 494 602 534 q 573 427 602 454 q 498 401 544 401 z "},"Ł":{"ha":710,"x_min":1,"x_max":690,"o":"m 690 0 l 111 0 l 111 317 l 1 258 l 1 437 l 111 494 l 111 972 l 330 972 l 330 600 l 522 701 l 522 524 l 330 422 l 330 178 l 690 178 l 690 0 z "},"ł":{"ha":436,"x_min":20,"x_max":414,"o":"m 414 511 l 322 453 l 322 0 l 109 0 l 109 321 l 20 264 l 20 439 l 109 494 l 109 1028 l 322 1028 l 322 627 l 414 685 l 414 511 z "},"Ƚ":{"ha":710,"x_min":19,"x_max":690,"o":"m 416 450 l 330 450 l 330 178 l 690 178 l 690 0 l 111 0 l 111 450 l 19 450 l 19 567 l 111 567 l 111 972 l 330 972 l 330 567 l 416 567 l 416 450 z "},"ƚ":{"ha":453,"x_min":14,"x_max":439,"o":"m 439 467 l 334 467 l 334 0 l 119 0 l 119 467 l 14 467 l 14 606 l 119 606 l 119 1028 l 334 1028 l 334 606 l 439 606 l 439 467 z "},"Ɫ":{"ha":739,"x_min":5,"x_max":719,"o":"m 719 0 l 140 0 l 140 972 l 359 972 l 359 178 l 719 178 l 719 0 m 493 564 q 455 417 493 469 q 353 366 418 366 q 239 395 294 366 q 155 427 178 427 q 101 353 101 427 l 5 353 q 43 500 5 448 q 147 552 80 552 q 261 519 202 552 q 342 489 315 489 q 395 564 395 489 l 493 564 z "},"ɫ":{"ha":595,"x_min":7,"x_max":587,"o":"m 587 468 q 440 415 522 415 q 404 418 424 415 l 404 0 l 191 0 l 191 475 q 149 479 163 479 q 7 415 76 479 l 7 575 q 154 628 73 628 q 191 625 173 628 l 191 1028 l 404 1028 l 404 568 q 446 564 433 564 q 587 628 519 564 l 587 468 z "},"M":{"ha":1329,"x_min":111,"x_max":1219,"o":"m 1219 0 l 1003 0 l 1003 582 q 1011 790 1003 676 l 1006 790 q 975 661 989 701 l 747 0 l 568 0 l 336 654 q 306 790 327 681 l 300 790 q 309 538 309 646 l 309 0 l 111 0 l 111 972 l 432 972 l 631 396 q 665 257 654 327 l 669 257 q 708 397 688 338 l 907 972 l 1219 972 l 1219 0 z "},"m":{"ha":1272,"x_min":90,"x_max":1193,"o":"m 1193 0 l 979 0 l 979 396 q 868 547 979 547 q 782 502 815 547 q 749 389 749 456 l 749 0 l 534 0 l 534 400 q 425 547 534 547 q 337 504 370 547 q 304 386 304 460 l 304 0 l 90 0 l 90 694 l 304 694 l 304 586 l 307 586 q 400 676 340 642 q 532 711 460 711 q 733 582 679 711 q 966 711 812 711 q 1193 432 1193 711 l 1193 0 z "},"Ḿ":{"ha":1329,"x_min":111,"x_max":1219,"o":"m 1219 0 l 1003 0 l 1003 582 q 1011 790 1003 676 l 1006 790 q 975 661 989 701 l 747 0 l 568 0 l 336 654 q 306 790 327 681 l 300 790 q 309 538 309 646 l 309 0 l 111 0 l 111 972 l 432 972 l 631 396 q 665 257 654 327 l 669 257 q 708 397 688 338 l 907 972 l 1219 972 l 1219 0 m 844 1282 l 632 1063 l 477 1063 l 654 1282 l 844 1282 z "},"ḿ":{"ha":1272,"x_min":90,"x_max":1193,"o":"m 1193 0 l 979 0 l 979 396 q 868 547 979 547 q 782 502 815 547 q 749 389 749 456 l 749 0 l 534 0 l 534 400 q 425 547 534 547 q 337 504 370 547 q 304 386 304 460 l 304 0 l 90 0 l 90 694 l 304 694 l 304 586 l 307 586 q 400 676 340 642 q 532 711 460 711 q 733 582 679 711 q 966 711 812 711 q 1193 432 1193 711 l 1193 0 m 871 1023 l 659 804 l 505 804 l 681 1023 l 871 1023 z "},"Ṁ":{"ha":1329,"x_min":111,"x_max":1219,"o":"m 1219 0 l 1003 0 l 1003 582 q 1011 790 1003 676 l 1006 790 q 975 661 989 701 l 747 0 l 568 0 l 336 654 q 306 790 327 681 l 300 790 q 309 538 309 646 l 309 0 l 111 0 l 111 972 l 432 972 l 631 396 q 665 257 654 327 l 669 257 q 708 397 688 338 l 907 972 l 1219 972 l 1219 0 m 615 1063 q 540 1090 570 1063 q 511 1156 511 1117 q 541 1222 511 1196 q 615 1247 570 1247 q 689 1221 661 1247 q 718 1156 718 1196 q 689 1089 718 1116 q 615 1063 661 1063 z "},"ṁ":{"ha":1272,"x_min":90,"x_max":1193,"o":"m 1193 0 l 979 0 l 979 396 q 868 547 979 547 q 782 502 815 547 q 749 389 749 456 l 749 0 l 534 0 l 534 400 q 425 547 534 547 q 337 504 370 547 q 304 386 304 460 l 304 0 l 90 0 l 90 694 l 304 694 l 304 586 l 307 586 q 400 676 340 642 q 532 711 460 711 q 733 582 679 711 q 966 711 812 711 q 1193 432 1193 711 l 1193 0 m 646 804 q 571 831 600 804 q 541 897 541 859 q 571 963 541 938 q 646 989 601 989 q 720 963 691 989 q 749 897 749 937 q 720 831 749 857 q 646 804 691 804 z "},"Ṃ":{"ha":1329,"x_min":111,"x_max":1219,"o":"m 1219 0 l 1003 0 l 1003 582 q 1011 790 1003 676 l 1006 790 q 975 661 989 701 l 747 0 l 568 0 l 336 654 q 306 790 327 681 l 300 790 q 309 538 309 646 l 309 0 l 111 0 l 111 972 l 432 972 l 631 396 q 665 257 654 327 l 669 257 q 708 397 688 338 l 907 972 l 1219 972 l 1219 0 m 606 -265 q 531 -238 560 -265 q 501 -172 501 -211 q 531 -106 501 -132 q 606 -81 561 -81 q 680 -106 651 -81 q 709 -172 709 -132 q 680 -239 709 -212 q 606 -265 651 -265 z "},"ṃ":{"ha":1272,"x_min":90,"x_max":1193,"o":"m 1193 0 l 979 0 l 979 396 q 868 547 979 547 q 782 502 815 547 q 749 389 749 456 l 749 0 l 534 0 l 534 400 q 425 547 534 547 q 337 504 370 547 q 304 386 304 460 l 304 0 l 90 0 l 90 694 l 304 694 l 304 586 l 307 586 q 400 676 340 642 q 532 711 460 711 q 733 582 679 711 q 966 711 812 711 q 1193 432 1193 711 l 1193 0 m 643 -265 q 568 -238 597 -265 q 538 -172 538 -211 q 568 -106 538 -132 q 643 -81 598 -81 q 717 -106 688 -81 q 746 -172 746 -132 q 717 -239 746 -212 q 643 -265 688 -265 z "},"Ɱ":{"ha":1329,"x_min":111,"x_max":1219,"o":"m 1219 -13 q 1199 -146 1219 -87 q 1140 -244 1178 -204 q 1048 -305 1102 -284 q 926 -326 994 -326 q 815 -309 865 -326 l 815 -119 q 896 -138 852 -138 q 1003 -10 1003 -138 l 1003 582 q 1011 790 1003 676 l 1006 790 q 975 661 988 700 l 747 0 l 568 0 l 336 654 q 306 790 328 680 l 300 790 q 307 655 304 718 q 309 538 309 593 l 309 0 l 111 0 l 111 972 l 432 972 l 631 396 q 665 257 654 327 l 669 257 q 708 397 688 337 l 907 972 l 1219 972 l 1219 -13 z "},"ɱ":{"ha":1272,"x_min":90,"x_max":1193,"o":"m 1193 -53 q 936 -326 1193 -326 q 822 -310 873 -326 l 822 -146 q 895 -163 856 -163 q 979 -53 979 -163 l 979 396 q 868 547 979 547 q 782 502 815 547 q 749 389 749 456 l 749 0 l 534 0 l 534 400 q 425 547 534 547 q 337 503 370 547 q 304 386 304 459 l 304 0 l 90 0 l 90 694 l 304 694 l 304 586 l 307 586 q 532 711 385 711 q 733 582 679 711 q 966 711 813 711 q 1193 432 1193 711 l 1193 -53 z "},"N":{"ha":1097,"x_min":111,"x_max":986,"o":"m 986 0 l 765 0 l 364 611 q 315 692 329 665 l 313 692 q 318 534 318 640 l 318 0 l 111 0 l 111 972 l 347 972 l 733 380 q 782 301 760 340 l 785 301 q 779 435 779 335 l 779 972 l 986 972 l 986 0 z "},"n":{"ha":840,"x_min":90,"x_max":761,"o":"m 761 0 l 547 0 l 547 386 q 432 547 547 547 q 340 505 376 547 q 304 396 304 462 l 304 0 l 90 0 l 90 694 l 304 694 l 304 585 l 307 585 q 530 711 384 711 q 761 425 761 711 l 761 0 z "},"Ǹ":{"ha":1097,"x_min":111,"x_max":986,"o":"m 986 0 l 765 0 l 364 611 q 315 692 329 665 l 313 692 q 318 534 318 640 l 318 0 l 111 0 l 111 972 l 347 972 l 733 380 q 782 301 760 340 l 785 301 q 779 435 779 335 l 779 972 l 986 972 l 986 0 m 627 1063 l 473 1063 l 260 1282 l 450 1282 l 627 1063 z "},"ǹ":{"ha":840,"x_min":90,"x_max":761,"o":"m 761 0 l 547 0 l 547 386 q 432 547 547 547 q 340 505 376 547 q 304 396 304 462 l 304 0 l 90 0 l 90 694 l 304 694 l 304 585 l 307 585 q 530 711 384 711 q 761 425 761 711 l 761 0 m 518 806 l 364 806 l 151 1025 l 342 1025 l 518 806 z "},"Ń":{"ha":1097,"x_min":111,"x_max":986,"o":"m 986 0 l 765 0 l 364 611 q 315 692 329 665 l 313 692 q 318 534 318 640 l 318 0 l 111 0 l 111 972 l 347 972 l 733 380 q 782 301 760 340 l 785 301 q 779 435 779 335 l 779 972 l 986 972 l 986 0 m 775 1282 l 563 1063 l 408 1063 l 585 1282 l 775 1282 z "},"ń":{"ha":840,"x_min":90,"x_max":761,"o":"m 761 0 l 547 0 l 547 386 q 432 547 547 547 q 340 505 376 547 q 304 396 304 462 l 304 0 l 90 0 l 90 694 l 304 694 l 304 585 l 307 585 q 530 711 384 711 q 761 425 761 711 l 761 0 m 659 1023 l 447 804 l 292 804 l 469 1023 l 659 1023 z "},"Ň":{"ha":1097,"x_min":111,"x_max":986,"o":"m 986 0 l 765 0 l 364 611 q 315 692 329 665 l 313 692 q 318 534 318 640 l 318 0 l 111 0 l 111 972 l 347 972 l 733 380 q 782 301 760 340 l 785 301 q 779 435 779 335 l 779 972 l 986 972 l 986 0 m 793 1283 l 632 1063 l 464 1063 l 304 1283 l 444 1283 l 549 1156 l 654 1283 l 793 1283 z "},"ň":{"ha":840,"x_min":90,"x_max":761,"o":"m 761 0 l 547 0 l 547 386 q 432 547 547 547 q 340 505 376 547 q 304 396 304 462 l 304 0 l 90 0 l 90 694 l 304 694 l 304 585 l 307 585 q 530 711 384 711 q 761 425 761 711 l 761 0 m 679 1025 l 517 804 l 349 804 l 190 1025 l 329 1025 l 434 897 l 540 1025 l 679 1025 z "},"Ñ":{"ha":1097,"x_min":111,"x_max":986,"o":"m 986 0 l 765 0 l 364 611 q 315 692 329 665 l 313 692 q 318 534 318 640 l 318 0 l 111 0 l 111 972 l 347 972 l 733 380 q 782 301 760 340 l 785 301 q 779 435 779 335 l 779 972 l 986 972 l 986 0 m 818 1274 q 780 1127 818 1179 q 677 1075 743 1075 q 564 1104 619 1075 q 480 1136 503 1136 q 426 1063 426 1136 l 330 1063 q 368 1209 330 1157 q 472 1261 405 1261 q 586 1228 527 1261 q 667 1198 640 1198 q 720 1274 720 1198 l 818 1274 z "},"ñ":{"ha":840,"x_min":90,"x_max":761,"o":"m 761 0 l 547 0 l 547 386 q 432 547 547 547 q 340 505 376 547 q 304 396 304 462 l 304 0 l 90 0 l 90 694 l 304 694 l 304 585 l 307 585 q 530 711 384 711 q 761 425 761 711 l 761 0 m 666 1015 q 628 868 666 920 q 526 817 591 817 q 412 846 467 817 q 328 878 351 878 q 274 804 274 878 l 178 804 q 216 951 178 899 q 320 1003 253 1003 q 434 970 375 1003 q 515 940 488 940 q 568 1015 568 940 l 666 1015 z "},"Ṅ":{"ha":1097,"x_min":111,"x_max":986,"o":"m 986 0 l 765 0 l 364 611 q 315 692 329 665 l 313 692 q 318 534 318 640 l 318 0 l 111 0 l 111 972 l 347 972 l 733 380 q 782 301 760 340 l 785 301 q 779 435 779 335 l 779 972 l 986 972 l 986 0 m 550 1063 q 475 1090 505 1063 q 446 1156 446 1117 q 475 1222 446 1196 q 550 1247 505 1247 q 624 1221 595 1247 q 653 1156 653 1196 q 624 1089 653 1116 q 550 1063 595 1063 z "},"ṅ":{"ha":840,"x_min":90,"x_max":761,"o":"m 761 0 l 547 0 l 547 386 q 432 547 547 547 q 340 505 376 547 q 304 396 304 462 l 304 0 l 90 0 l 90 694 l 304 694 l 304 585 l 307 585 q 530 711 384 711 q 761 425 761 711 l 761 0 m 432 804 q 357 831 387 804 q 328 897 328 859 q 357 963 328 938 q 432 989 387 989 q 506 963 477 989 q 535 897 535 937 q 506 831 535 857 q 432 804 477 804 z "},"Ṋ":{"ha":1097,"x_min":111,"x_max":986,"o":"m 986 0 l 765 0 l 364 611 q 315 692 329 665 l 313 692 q 318 534 318 640 l 318 0 l 111 0 l 111 972 l 347 972 l 733 380 q 782 301 760 340 l 785 301 q 779 435 779 335 l 779 972 l 986 972 l 986 0 m 808 -300 l 668 -300 l 561 -173 l 461 -300 l 321 -300 l 480 -80 l 648 -80 l 808 -300 z "},"ṋ":{"ha":840,"x_min":90,"x_max":761,"o":"m 761 0 l 547 0 l 547 386 q 432 547 547 547 q 340 505 376 547 q 304 396 304 462 l 304 0 l 90 0 l 90 694 l 304 694 l 304 585 l 307 585 q 530 711 384 711 q 761 425 761 711 l 761 0 m 676 -300 l 536 -300 l 429 -173 l 329 -300 l 189 -300 l 348 -80 l 516 -80 l 676 -300 z "},"Ṉ":{"ha":1097,"x_min":111,"x_max":986,"o":"m 986 0 l 765 0 l 364 611 q 315 692 329 665 l 313 692 q 318 534 318 640 l 318 0 l 111 0 l 111 972 l 347 972 l 733 380 q 782 301 760 340 l 785 301 q 779 435 779 335 l 779 972 l 986 972 l 986 0 m 762 -197 l 365 -197 l 365 -81 l 762 -81 l 762 -197 z "},"ṉ":{"ha":840,"x_min":90,"x_max":761,"o":"m 761 0 l 547 0 l 547 386 q 432 547 547 547 q 340 505 376 547 q 304 396 304 462 l 304 0 l 90 0 l 90 694 l 304 694 l 304 585 l 307 585 q 530 711 384 711 q 761 425 761 711 l 761 0 m 627 -197 l 230 -197 l 230 -81 l 627 -81 l 627 -197 z "},"Ṇ":{"ha":1097,"x_min":111,"x_max":986,"o":"m 986 0 l 765 0 l 364 611 q 315 692 329 665 l 313 692 q 318 534 318 640 l 318 0 l 111 0 l 111 972 l 347 972 l 733 380 q 782 301 760 340 l 785 301 q 779 435 779 335 l 779 972 l 986 972 l 986 0 m 551 -265 q 476 -238 505 -265 q 446 -172 446 -211 q 476 -106 446 -132 q 551 -81 506 -81 q 625 -106 596 -81 q 654 -172 654 -132 q 625 -239 654 -212 q 551 -265 596 -265 z "},"ṇ":{"ha":840,"x_min":90,"x_max":761,"o":"m 761 0 l 547 0 l 547 386 q 432 547 547 547 q 340 505 376 547 q 304 396 304 462 l 304 0 l 90 0 l 90 694 l 304 694 l 304 585 l 307 585 q 530 711 384 711 q 761 425 761 711 l 761 0 m 429 -265 q 354 -238 384 -265 q 325 -172 325 -211 q 355 -106 325 -132 q 429 -81 385 -81 q 504 -106 475 -81 q 532 -172 532 -132 q 504 -239 532 -212 q 429 -265 475 -265 z "},"Ņ":{"ha":1097,"x_min":111,"x_max":986,"o":"m 986 0 l 765 0 l 364 611 q 315 692 329 665 l 313 692 q 318 534 318 640 l 318 0 l 111 0 l 111 972 l 347 972 l 733 380 q 782 301 760 340 l 785 301 q 779 435 779 335 l 779 972 l 986 972 l 986 0 m 671 -79 l 557 -318 l 426 -318 l 487 -79 l 671 -79 z "},"ņ":{"ha":840,"x_min":90,"x_max":761,"o":"m 761 0 l 547 0 l 547 386 q 432 547 547 547 q 340 505 376 547 q 304 396 304 462 l 304 0 l 90 0 l 90 694 l 304 694 l 304 585 l 307 585 q 530 711 384 711 q 761 425 761 711 l 761 0 m 543 -79 l 429 -318 l 297 -318 l 358 -79 l 543 -79 z "},"ŉ":{"ha":951,"x_min":-41,"x_max":872,"o":"m 221 996 l 90 694 l -41 694 l 36 996 l 221 996 m 872 0 l 659 0 l 659 386 q 543 547 659 547 q 452 505 488 547 q 416 396 416 462 l 416 0 l 201 0 l 201 694 l 416 694 l 416 585 l 418 585 q 642 711 495 711 q 872 425 872 711 l 872 0 z "},"Ŋ":{"ha":1085,"x_min":111,"x_max":974,"o":"m 974 583 l 974 316 q 900 62 974 146 q 692 -23 827 -23 q 554 -2 610 -23 l 554 166 q 648 141 598 141 q 727 172 700 141 q 754 264 754 202 l 754 534 q 558 800 754 800 q 395 727 460 800 q 330 541 330 653 l 330 0 l 111 0 l 111 972 l 330 972 l 330 811 l 334 811 q 643 989 444 989 q 888 884 801 989 q 974 583 974 779 z "},"ŋ":{"ha":840,"x_min":90,"x_max":761,"o":"m 761 43 q 484 -286 761 -286 q 367 -265 424 -286 l 367 -97 q 446 -122 412 -122 q 547 36 547 -122 l 547 386 q 432 547 547 547 q 340 505 376 547 q 304 396 304 462 l 304 0 l 90 0 l 90 694 l 304 694 l 304 585 l 307 585 q 530 711 384 711 q 761 425 761 711 l 761 43 z "},"Ɲ":{"ha":1097,"x_min":-77,"x_max":986,"o":"m 986 0 l 765 0 l 364 611 q 315 692 329 665 l 313 692 q 318 534 318 640 l 318 40 q 243 -191 318 -109 q 35 -273 169 -273 q -77 -256 -28 -273 l -77 -66 q 4 -85 -39 -85 q 111 43 111 -85 l 111 972 l 347 972 l 733 380 q 782 301 760 340 l 785 301 q 779 435 779 335 l 779 972 l 986 972 l 986 0 z "},"ɲ":{"ha":838,"x_min":-66,"x_max":761,"o":"m 761 0 l 546 0 l 546 386 q 432 547 546 547 q 340 504 376 547 q 304 396 304 460 l 304 -53 q 47 -326 304 -326 q -66 -310 -15 -326 l -66 -146 q 5 -163 -33 -163 q 90 -53 90 -163 l 90 694 l 304 694 l 304 585 l 307 585 q 530 711 385 711 q 761 425 761 711 l 761 0 z "},"ɳ":{"ha":838,"x_min":90,"x_max":918,"o":"m 918 -301 q 775 -326 871 -326 q 547 -83 547 -326 l 547 386 q 432 547 547 547 q 340 504 376 547 q 304 396 304 460 l 304 0 l 90 0 l 90 694 l 304 694 l 304 585 l 307 585 q 530 711 385 711 q 761 425 761 711 l 761 -54 q 848 -163 761 -163 q 918 -143 886 -163 l 918 -301 z "},"Ƞ":{"ha":1085,"x_min":111,"x_max":974,"o":"m 974 -319 l 754 -319 l 754 534 q 558 800 754 800 q 395 727 460 800 q 330 541 330 654 l 330 0 l 111 0 l 111 972 l 330 972 l 330 811 l 334 811 q 643 989 444 989 q 888 884 802 989 q 974 583 974 779 l 974 -319 z "},"ƞ":{"ha":838,"x_min":90,"x_max":761,"o":"m 761 -319 l 546 -319 l 546 386 q 432 547 546 547 q 340 505 376 547 q 304 396 304 462 l 304 0 l 90 0 l 90 694 l 304 694 l 304 585 l 307 585 q 530 711 384 711 q 761 425 761 711 l 761 -319 z "},"O":{"ha":1053,"x_min":50,"x_max":1003,"o":"m 522 -17 q 182 119 313 -17 q 50 473 50 255 q 184 846 50 704 q 538 989 317 989 q 874 852 746 989 q 1003 493 1003 716 q 870 123 1003 264 q 522 -17 736 -17 m 532 800 q 349 714 416 800 q 281 485 281 627 q 349 256 281 340 q 526 172 416 172 q 706 254 640 172 q 772 481 772 336 q 708 716 772 632 q 532 800 644 800 z "},"o":{"ha":849,"x_min":49,"x_max":800,"o":"m 421 -17 q 148 80 248 -17 q 49 345 49 178 q 152 614 49 517 q 431 711 255 711 q 702 614 604 711 q 800 357 800 517 q 699 83 800 184 q 421 -17 597 -17 m 427 547 q 309 495 351 547 q 267 347 267 443 q 428 147 267 147 q 582 353 582 147 q 427 547 582 547 z "},"Ò":{"ha":1053,"x_min":50,"x_max":1003,"o":"m 522 -17 q 182 119 313 -17 q 50 473 50 255 q 184 846 50 704 q 538 989 317 989 q 874 852 746 989 q 1003 493 1003 716 q 870 123 1003 264 q 522 -17 736 -17 m 532 800 q 349 714 416 800 q 281 485 281 627 q 349 256 281 340 q 526 172 416 172 q 706 254 640 172 q 772 481 772 336 q 708 716 772 632 q 532 800 644 800 m 659 1063 l 505 1063 l 292 1282 l 482 1282 l 659 1063 z "},"ò":{"ha":848,"x_min":49,"x_max":800,"o":"m 421 -17 q 148 80 248 -17 q 49 345 49 178 q 152 614 49 517 q 431 711 255 711 q 702 614 604 711 q 800 357 800 517 q 699 83 800 184 q 421 -17 597 -17 m 427 547 q 309 495 351 547 q 267 347 267 443 q 428 147 267 147 q 582 353 582 147 q 427 547 582 547 m 578 804 l 424 804 l 211 1023 l 401 1023 l 578 804 z "},"Ó":{"ha":1053,"x_min":50,"x_max":1003,"o":"m 522 -17 q 182 119 313 -17 q 50 473 50 255 q 184 846 50 704 q 538 989 317 989 q 874 852 746 989 q 1003 493 1003 716 q 870 123 1003 264 q 522 -17 736 -17 m 532 800 q 349 714 416 800 q 281 485 281 627 q 349 256 281 340 q 526 172 416 172 q 706 254 640 172 q 772 481 772 336 q 708 716 772 632 q 532 800 644 800 m 753 1282 l 541 1063 l 386 1063 l 562 1282 l 753 1282 z "},"ó":{"ha":848,"x_min":49,"x_max":800,"o":"m 421 -17 q 148 80 248 -17 q 49 345 49 178 q 152 614 49 517 q 431 711 255 711 q 702 614 604 711 q 800 357 800 517 q 699 83 800 184 q 421 -17 597 -17 m 427 547 q 309 495 351 547 q 267 347 267 443 q 428 147 267 147 q 582 353 582 147 q 427 547 582 547 m 656 1023 l 444 804 l 290 804 l 466 1023 l 656 1023 z "},"Ô":{"ha":1053,"x_min":50,"x_max":1003,"o":"m 522 -17 q 182 119 313 -17 q 50 473 50 255 q 184 846 50 704 q 538 989 317 989 q 874 852 746 989 q 1003 493 1003 716 q 870 123 1003 264 q 522 -17 736 -17 m 532 800 q 349 714 416 800 q 281 485 281 627 q 349 256 281 340 q 526 172 416 172 q 706 254 640 172 q 772 481 772 336 q 708 716 772 632 q 532 800 644 800 m 779 1063 l 639 1063 l 532 1190 l 432 1063 l 292 1063 l 451 1283 l 619 1283 l 779 1063 z "},"ô":{"ha":848,"x_min":49,"x_max":800,"o":"m 421 -17 q 148 80 248 -17 q 49 345 49 178 q 152 614 49 517 q 431 711 255 711 q 702 614 604 711 q 800 357 800 517 q 699 83 800 184 q 421 -17 597 -17 m 427 547 q 309 495 351 547 q 267 347 267 443 q 428 147 267 147 q 582 353 582 147 q 427 547 582 547 m 670 804 l 530 804 l 422 932 l 323 804 l 182 804 l 342 1025 l 510 1025 l 670 804 z "},"Ǒ":{"ha":1053,"x_min":50,"x_max":1003,"o":"m 522 -17 q 182 119 313 -17 q 50 473 50 255 q 184 846 50 704 q 538 989 317 989 q 874 852 746 989 q 1003 493 1003 716 q 870 123 1003 264 q 522 -17 736 -17 m 532 800 q 349 714 416 800 q 281 485 281 627 q 349 256 281 340 q 526 172 416 172 q 706 254 640 172 q 772 481 772 336 q 708 716 772 632 q 532 800 644 800 m 771 1283 l 610 1063 l 441 1063 l 282 1283 l 421 1283 l 526 1156 l 632 1283 l 771 1283 z "},"ǒ":{"ha":849,"x_min":49,"x_max":800,"o":"m 421 -17 q 148 80 248 -17 q 49 345 49 178 q 152 614 49 517 q 431 711 255 711 q 702 614 604 711 q 800 357 800 517 q 699 83 800 184 q 421 -17 597 -17 m 427 547 q 309 495 351 547 q 267 347 267 443 q 428 147 267 147 q 582 353 582 147 q 427 547 582 547 m 669 1025 l 508 804 l 340 804 l 180 1025 l 319 1025 l 425 897 l 530 1025 l 669 1025 z "},"Õ":{"ha":1053,"x_min":50,"x_max":1003,"o":"m 522 -17 q 182 119 313 -17 q 50 473 50 255 q 184 846 50 704 q 538 989 317 989 q 874 852 746 989 q 1003 493 1003 716 q 870 123 1003 264 q 522 -17 736 -17 m 532 800 q 349 714 416 800 q 281 485 281 627 q 349 256 281 340 q 526 172 416 172 q 706 254 640 172 q 772 481 772 336 q 708 716 772 632 q 532 800 644 800 m 778 1274 q 740 1127 778 1179 q 637 1075 703 1075 q 524 1104 579 1075 q 440 1136 463 1136 q 386 1063 386 1136 l 290 1063 q 328 1209 290 1157 q 432 1261 365 1261 q 546 1228 487 1261 q 627 1198 600 1198 q 680 1274 680 1198 l 778 1274 z "},"õ":{"ha":848,"x_min":49,"x_max":800,"o":"m 421 -17 q 148 80 248 -17 q 49 345 49 178 q 152 614 49 517 q 431 711 255 711 q 702 614 604 711 q 800 357 800 517 q 699 83 800 184 q 421 -17 597 -17 m 427 547 q 309 495 351 547 q 267 347 267 443 q 428 147 267 147 q 582 353 582 147 q 427 547 582 547 m 668 1015 q 630 868 668 920 q 528 817 593 817 q 414 846 469 817 q 330 878 353 878 q 276 804 276 878 l 180 804 q 218 951 180 899 q 322 1003 255 1003 q 436 970 377 1003 q 517 940 490 940 q 570 1015 570 940 l 668 1015 z "},"Ṍ":{"ha":1053,"x_min":50,"x_max":1003,"o":"m 522 -17 q 182 119 313 -17 q 50 473 50 255 q 184 846 50 704 q 538 989 317 989 q 874 852 746 989 q 1003 493 1003 716 q 870 123 1003 264 q 522 -17 736 -17 m 532 800 q 349 714 416 800 q 281 485 281 627 q 349 256 281 340 q 526 172 416 172 q 706 254 640 172 q 772 481 772 336 q 708 716 772 632 q 532 800 644 800 m 719 1409 l 540 1242 l 406 1242 l 528 1409 l 719 1409 m 772 1210 q 630 1054 772 1054 q 528 1078 590 1054 q 441 1103 463 1103 q 390 1050 390 1103 l 292 1050 q 330 1166 292 1124 q 437 1207 368 1207 q 540 1183 486 1207 q 623 1158 597 1158 q 674 1210 674 1158 l 772 1210 z "},"ṍ":{"ha":849,"x_min":49,"x_max":800,"o":"m 421 -17 q 148 80 248 -17 q 49 345 49 178 q 152 614 49 517 q 431 711 255 711 q 702 614 604 711 q 800 357 800 517 q 699 83 800 184 q 421 -17 597 -17 m 427 547 q 309 495 351 547 q 267 347 267 443 q 428 147 267 147 q 582 353 582 147 q 427 547 582 547 m 610 1174 l 431 1007 l 297 1007 l 419 1174 l 610 1174 m 663 975 q 521 819 663 819 q 419 843 481 819 q 332 868 354 868 q 281 815 281 868 l 183 815 q 221 931 183 890 q 328 972 258 972 q 431 949 376 972 q 514 924 488 924 q 565 975 565 924 l 663 975 z "},"Ṏ":{"ha":1053,"x_min":50,"x_max":1003,"o":"m 522 -17 q 182 119 313 -17 q 50 473 50 255 q 184 846 50 704 q 538 989 317 989 q 874 852 746 989 q 1003 493 1003 716 q 870 123 1003 264 q 522 -17 736 -17 m 532 800 q 349 714 416 800 q 281 485 281 627 q 349 256 281 340 q 526 172 416 172 q 706 254 640 172 q 772 481 772 336 q 708 716 772 632 q 532 800 644 800 m 676 1247 q 618 1268 641 1247 q 595 1320 595 1289 q 617 1373 595 1352 q 676 1393 640 1393 q 735 1373 712 1393 q 758 1320 758 1352 q 736 1268 758 1289 q 676 1247 713 1247 m 406 1247 q 348 1268 371 1247 q 324 1320 324 1289 q 348 1373 324 1352 q 406 1393 371 1393 q 465 1373 442 1393 q 488 1320 488 1352 q 466 1268 488 1289 q 406 1247 444 1247 m 774 1210 q 632 1054 774 1054 q 530 1078 592 1054 q 443 1103 465 1103 q 392 1050 392 1103 l 294 1050 q 332 1166 294 1124 q 439 1207 370 1207 q 542 1183 488 1207 q 625 1158 600 1158 q 676 1210 676 1158 l 774 1210 z "},"ṏ":{"ha":849,"x_min":49,"x_max":800,"o":"m 421 -17 q 148 80 248 -17 q 49 345 49 178 q 152 614 49 517 q 431 711 255 711 q 702 614 604 711 q 800 357 800 517 q 699 83 800 184 q 421 -17 597 -17 m 427 547 q 309 495 351 547 q 267 347 267 443 q 428 147 267 147 q 582 353 582 147 q 427 547 582 547 m 558 1013 q 500 1034 523 1013 q 477 1086 477 1055 q 499 1138 477 1118 q 558 1158 522 1158 q 617 1138 594 1158 q 640 1086 640 1118 q 618 1033 640 1054 q 558 1013 595 1013 m 288 1013 q 230 1034 253 1013 q 206 1086 206 1055 q 230 1138 206 1118 q 288 1158 253 1158 q 347 1138 324 1158 q 370 1086 370 1118 q 348 1033 370 1054 q 288 1013 326 1013 m 656 975 q 514 819 656 819 q 412 843 474 819 q 325 868 347 868 q 274 815 274 868 l 176 815 q 214 931 176 890 q 321 972 252 972 q 424 949 370 972 q 507 924 481 924 q 558 975 558 924 l 656 975 z "},"Ȭ":{"ha":1053,"x_min":50,"x_max":1003,"o":"m 522 -17 q 182 119 313 -17 q 50 473 50 255 q 184 846 50 704 q 538 989 317 989 q 874 852 746 989 q 1003 493 1003 716 q 870 123 1003 264 q 522 -17 736 -17 m 532 800 q 349 714 416 800 q 281 485 281 627 q 349 256 281 340 q 526 172 416 172 q 706 254 640 172 q 772 481 772 336 q 708 716 772 632 q 532 800 644 800 m 732 1284 l 335 1284 l 335 1400 l 732 1400 l 732 1284 m 773 1233 q 631 1078 773 1078 q 530 1101 591 1078 q 443 1126 465 1126 q 391 1073 391 1126 l 294 1073 q 332 1189 294 1147 q 439 1230 370 1230 q 541 1206 487 1230 q 625 1181 599 1181 q 676 1233 676 1181 l 773 1233 z "},"ȭ":{"ha":849,"x_min":49,"x_max":800,"o":"m 421 -17 q 148 80 248 -17 q 49 345 49 178 q 152 614 49 517 q 431 711 255 711 q 702 614 604 711 q 800 357 800 517 q 699 83 800 184 q 421 -17 597 -17 m 427 547 q 309 495 351 547 q 267 347 267 443 q 428 147 267 147 q 582 353 582 147 q 427 547 582 547 m 622 1025 l 224 1025 l 224 1142 l 622 1142 l 622 1025 m 663 975 q 521 819 663 819 q 420 842 480 819 q 332 867 355 867 q 281 814 281 867 l 184 814 q 221 930 184 889 q 328 972 259 972 q 431 948 376 972 q 514 923 488 923 q 566 975 566 923 l 663 975 z "},"Ö":{"ha":1053,"x_min":50,"x_max":1003,"o":"m 522 -17 q 182 119 313 -17 q 50 473 50 255 q 184 846 50 704 q 538 989 317 989 q 874 852 746 989 q 1003 493 1003 716 q 870 123 1003 264 q 522 -17 736 -17 m 532 800 q 349 714 416 800 q 281 485 281 627 q 349 256 281 340 q 526 172 416 172 q 706 254 640 172 q 772 481 772 336 q 708 716 772 632 q 532 800 644 800 m 681 1063 q 606 1089 635 1063 q 577 1156 577 1116 q 606 1223 577 1197 q 681 1249 635 1249 q 756 1222 726 1249 q 785 1156 785 1196 q 756 1089 785 1115 q 681 1063 727 1063 m 370 1063 q 295 1089 324 1063 q 266 1156 266 1116 q 296 1222 266 1196 q 370 1249 326 1249 q 445 1222 416 1249 q 474 1156 474 1196 q 445 1088 474 1114 q 370 1063 416 1063 z "},"ö":{"ha":848,"x_min":49,"x_max":800,"o":"m 421 -17 q 148 80 248 -17 q 49 345 49 178 q 152 614 49 517 q 431 711 255 711 q 702 614 604 711 q 800 357 800 517 q 699 83 800 184 q 421 -17 597 -17 m 427 547 q 309 495 351 547 q 267 347 267 443 q 428 147 267 147 q 582 353 582 147 q 427 547 582 547 m 583 804 q 508 831 537 804 q 479 897 479 857 q 508 964 479 939 q 583 990 537 990 q 657 964 628 990 q 687 897 687 938 q 658 830 687 857 q 583 804 629 804 m 272 804 q 197 831 226 804 q 168 897 168 858 q 197 964 168 938 q 272 990 227 990 q 347 964 318 990 q 376 897 376 938 q 347 830 376 856 q 272 804 318 804 z "},"Ȫ":{"ha":1053,"x_min":50,"x_max":1003,"o":"m 522 -17 q 182 119 313 -17 q 50 473 50 255 q 184 846 50 704 q 538 989 317 989 q 874 852 746 989 q 1003 493 1003 716 q 870 123 1003 264 q 522 -17 736 -17 m 532 800 q 349 714 416 800 q 281 485 281 627 q 349 256 281 340 q 526 172 416 172 q 706 254 640 172 q 772 481 772 336 q 708 716 772 632 q 532 800 644 800 m 726 1303 l 328 1303 l 328 1419 l 726 1419 l 726 1303 m 681 1063 q 606 1089 635 1063 q 577 1156 577 1116 q 606 1223 577 1197 q 681 1249 635 1249 q 756 1222 726 1249 q 785 1156 785 1196 q 756 1089 785 1115 q 681 1063 727 1063 m 370 1063 q 295 1089 324 1063 q 266 1156 266 1116 q 296 1222 266 1196 q 370 1249 326 1249 q 445 1222 416 1249 q 474 1156 474 1196 q 445 1088 474 1114 q 370 1063 416 1063 z "},"ȫ":{"ha":849,"x_min":49,"x_max":800,"o":"m 421 -17 q 148 80 248 -17 q 49 345 49 178 q 152 614 49 517 q 431 711 255 711 q 702 614 604 711 q 800 357 800 517 q 699 83 800 184 q 421 -17 597 -17 m 427 547 q 309 495 351 547 q 267 347 267 443 q 428 147 267 147 q 582 353 582 147 q 427 547 582 547 m 627 1031 l 230 1031 l 230 1148 l 627 1148 l 627 1031 m 583 784 q 508 810 537 784 q 479 877 479 837 q 508 944 479 918 q 583 970 537 970 q 657 944 628 970 q 687 877 687 918 q 658 810 687 836 q 583 784 629 784 m 272 784 q 197 811 226 784 q 168 877 168 838 q 197 944 168 918 q 272 970 227 970 q 347 944 318 970 q 376 877 376 918 q 347 810 376 836 q 272 784 318 784 z "},"Ō":{"ha":1053,"x_min":50,"x_max":1003,"o":"m 522 -17 q 182 119 313 -17 q 50 473 50 255 q 184 846 50 704 q 538 989 317 989 q 874 852 746 989 q 1003 493 1003 716 q 870 123 1003 264 q 522 -17 736 -17 m 532 800 q 349 714 416 800 q 281 485 281 627 q 349 256 281 340 q 526 172 416 172 q 706 254 640 172 q 772 481 772 336 q 708 716 772 632 q 532 800 644 800 m 725 1063 l 328 1063 l 328 1179 l 725 1179 l 725 1063 z "},"ō":{"ha":849,"x_min":49,"x_max":800,"o":"m 421 -17 q 148 80 248 -17 q 49 345 49 178 q 152 614 49 517 q 431 711 255 711 q 702 614 604 711 q 800 357 800 517 q 699 83 800 184 q 421 -17 597 -17 m 427 547 q 309 495 351 547 q 267 347 267 443 q 428 147 267 147 q 582 353 582 147 q 427 547 582 547 m 622 804 l 224 804 l 224 921 l 622 921 l 622 804 z "},"Ŏ":{"ha":1053,"x_min":50,"x_max":1003,"o":"m 522 -17 q 182 119 313 -17 q 50 473 50 255 q 184 846 50 704 q 538 989 317 989 q 874 852 746 989 q 1003 493 1003 716 q 870 123 1003 264 q 522 -17 736 -17 m 532 800 q 349 714 416 800 q 281 485 281 627 q 349 256 281 340 q 526 172 416 172 q 706 254 640 172 q 772 481 772 336 q 708 716 772 632 q 532 800 644 800 m 755 1271 q 685 1119 747 1175 q 524 1063 624 1063 q 363 1121 425 1063 q 298 1271 300 1179 l 419 1271 q 527 1179 431 1179 q 633 1271 620 1179 l 755 1271 z "},"ŏ":{"ha":849,"x_min":49,"x_max":800,"o":"m 421 -17 q 148 80 248 -17 q 49 345 49 178 q 152 614 49 517 q 431 711 255 711 q 702 614 604 711 q 800 357 800 517 q 699 83 800 184 q 421 -17 597 -17 m 427 547 q 309 495 351 547 q 267 347 267 443 q 428 147 267 147 q 582 353 582 147 q 427 547 582 547 m 653 1013 q 584 861 645 917 q 422 804 522 804 q 261 862 323 804 q 196 1013 199 920 l 317 1013 q 425 921 329 921 q 531 1013 518 921 l 653 1013 z "},"Ȏ":{"ha":1053,"x_min":50,"x_max":1003,"o":"m 522 -17 q 182 119 313 -17 q 50 473 50 255 q 184 846 50 704 q 538 989 317 989 q 874 852 746 989 q 1003 493 1003 716 q 870 123 1003 264 q 522 -17 736 -17 m 532 800 q 349 714 416 800 q 281 485 281 627 q 349 256 281 340 q 526 172 416 172 q 706 254 640 172 q 772 481 772 336 q 708 716 772 632 q 532 800 644 800 m 755 1063 l 633 1063 q 526 1154 622 1154 q 420 1063 434 1154 l 298 1063 q 368 1215 307 1158 q 529 1271 429 1271 q 690 1213 628 1271 q 755 1063 753 1155 z "},"ȏ":{"ha":849,"x_min":49,"x_max":800,"o":"m 421 -17 q 148 80 248 -17 q 49 345 49 178 q 152 614 49 517 q 431 711 255 711 q 702 614 604 711 q 800 357 800 517 q 699 83 800 184 q 421 -17 597 -17 m 427 547 q 309 495 351 547 q 267 347 267 443 q 428 147 267 147 q 582 353 582 147 q 427 547 582 547 m 656 804 l 534 804 q 427 896 523 896 q 321 804 335 896 l 199 804 q 269 956 208 900 q 430 1013 330 1013 q 591 955 529 1013 q 656 804 654 897 z "},"Ṑ":{"ha":1053,"x_min":50,"x_max":1003,"o":"m 522 -17 q 182 119 313 -17 q 50 473 50 255 q 184 846 50 704 q 538 989 317 989 q 874 852 746 989 q 1003 493 1003 716 q 870 123 1003 264 q 522 -17 736 -17 m 532 800 q 349 714 416 800 q 281 485 281 627 q 349 256 281 340 q 526 172 416 172 q 706 254 640 172 q 772 481 772 336 q 708 716 772 632 q 532 800 644 800 m 725 1055 l 328 1055 l 328 1172 l 725 1172 l 725 1055 m 631 1213 l 497 1213 l 318 1379 l 508 1379 l 631 1213 z "},"ṑ":{"ha":849,"x_min":49,"x_max":800,"o":"m 421 -17 q 148 80 248 -17 q 49 345 49 178 q 152 614 49 517 q 431 711 255 711 q 702 614 604 711 q 800 357 800 517 q 699 83 800 184 q 421 -17 597 -17 m 427 547 q 309 495 351 547 q 267 347 267 443 q 428 147 267 147 q 582 353 582 147 q 427 547 582 547 m 627 804 l 229 804 l 229 921 l 627 921 l 627 804 m 539 962 l 406 962 l 227 1128 l 416 1128 l 539 962 z "},"Ṓ":{"ha":1053,"x_min":50,"x_max":1003,"o":"m 522 -17 q 182 119 313 -17 q 50 473 50 255 q 184 846 50 704 q 538 989 317 989 q 874 852 746 989 q 1003 493 1003 716 q 870 123 1003 264 q 522 -17 736 -17 m 532 800 q 349 714 416 800 q 281 485 281 627 q 349 256 281 340 q 526 172 416 172 q 706 254 640 172 q 772 481 772 336 q 708 716 772 632 q 532 800 644 800 m 725 1055 l 328 1055 l 328 1172 l 725 1172 l 725 1055 m 741 1379 l 562 1213 l 429 1213 l 551 1379 l 741 1379 z "},"ṓ":{"ha":849,"x_min":49,"x_max":800,"o":"m 421 -17 q 148 80 248 -17 q 49 345 49 178 q 152 614 49 517 q 431 711 255 711 q 702 614 604 711 q 800 357 800 517 q 699 83 800 184 q 421 -17 597 -17 m 427 547 q 309 495 351 547 q 267 347 267 443 q 428 147 267 147 q 582 353 582 147 q 427 547 582 547 m 627 804 l 229 804 l 229 921 l 627 921 l 627 804 m 626 1128 l 447 962 l 313 962 l 435 1128 l 626 1128 z "},"Ȯ":{"ha":1053,"x_min":50,"x_max":1003,"o":"m 522 -17 q 182 119 313 -17 q 50 473 50 255 q 184 846 50 704 q 538 989 317 989 q 874 852 746 989 q 1003 493 1003 716 q 870 123 1003 264 q 522 -17 736 -17 m 532 800 q 349 714 416 800 q 281 485 281 627 q 349 256 281 340 q 526 172 416 172 q 706 254 640 172 q 772 481 772 336 q 708 716 772 632 q 532 800 644 800 m 526 1063 q 451 1090 481 1063 q 422 1156 422 1117 q 452 1222 422 1196 q 526 1247 481 1247 q 601 1221 572 1247 q 629 1156 629 1196 q 601 1089 629 1116 q 526 1063 572 1063 z "},"ȯ":{"ha":849,"x_min":49,"x_max":800,"o":"m 421 -17 q 148 80 248 -17 q 49 345 49 178 q 152 614 49 517 q 431 711 255 711 q 702 614 604 711 q 800 357 800 517 q 699 83 800 184 q 421 -17 597 -17 m 427 547 q 309 495 351 547 q 267 347 267 443 q 428 147 267 147 q 582 353 582 147 q 427 547 582 547 m 424 804 q 349 831 378 804 q 319 897 319 859 q 349 963 319 938 q 424 989 379 989 q 498 963 469 989 q 527 897 527 937 q 498 831 527 857 q 424 804 469 804 z "},"Ȱ":{"ha":1053,"x_min":50,"x_max":1003,"o":"m 522 -17 q 182 119 313 -17 q 50 473 50 255 q 184 846 50 704 q 538 989 317 989 q 874 852 746 989 q 1003 493 1003 716 q 870 123 1003 264 q 522 -17 736 -17 m 532 800 q 349 714 416 800 q 281 485 281 627 q 349 256 281 340 q 526 172 416 172 q 706 254 640 172 q 772 481 772 336 q 708 716 772 632 q 532 800 644 800 m 526 1056 q 451 1083 481 1056 q 422 1149 422 1110 q 452 1215 422 1190 q 526 1240 481 1240 q 601 1215 572 1240 q 629 1149 629 1189 q 601 1082 629 1109 q 526 1056 572 1056 m 726 1279 l 328 1279 l 328 1396 l 726 1396 l 726 1279 z "},"ȱ":{"ha":849,"x_min":49,"x_max":800,"o":"m 421 -17 q 148 80 248 -17 q 49 345 49 178 q 152 614 49 517 q 431 711 255 711 q 702 614 604 711 q 800 357 800 517 q 699 83 800 184 q 421 -17 597 -17 m 427 547 q 309 495 351 547 q 267 347 267 443 q 428 147 267 147 q 582 353 582 147 q 427 547 582 547 m 424 804 q 349 831 378 804 q 319 897 319 859 q 349 963 319 938 q 424 989 379 989 q 498 963 469 989 q 527 897 527 937 q 498 831 527 857 q 424 804 469 804 m 623 1023 l 225 1023 l 225 1140 l 623 1140 l 623 1023 z "},"Ȍ":{"ha":1053,"x_min":50,"x_max":1003,"o":"m 522 -17 q 182 119 313 -17 q 50 473 50 255 q 184 846 50 704 q 538 989 317 989 q 874 852 746 989 q 1003 493 1003 716 q 870 123 1003 264 q 522 -17 736 -17 m 532 800 q 349 714 416 800 q 281 485 281 627 q 349 256 281 340 q 526 172 416 172 q 706 254 640 172 q 772 481 772 336 q 708 716 772 632 q 532 800 644 800 m 749 1063 l 606 1063 l 438 1279 l 606 1279 l 749 1063 m 495 1063 l 352 1063 l 181 1279 l 351 1279 l 495 1063 z "},"ȍ":{"ha":849,"x_min":49,"x_max":800,"o":"m 421 -17 q 148 80 248 -17 q 49 345 49 178 q 152 614 49 517 q 431 711 255 711 q 702 614 604 711 q 800 357 800 517 q 699 83 800 184 q 421 -17 597 -17 m 427 547 q 309 495 351 547 q 267 347 267 443 q 428 147 267 147 q 582 353 582 147 q 427 547 582 547 m 650 804 l 507 804 l 339 1021 l 507 1021 l 650 804 m 396 804 l 253 804 l 82 1021 l 252 1021 l 396 804 z "},"Ő":{"ha":1053,"x_min":50,"x_max":1003,"o":"m 522 -17 q 182 119 313 -17 q 50 473 50 255 q 184 846 50 704 q 538 989 317 989 q 874 852 746 989 q 1003 493 1003 716 q 870 123 1003 264 q 522 -17 736 -17 m 532 800 q 349 714 416 800 q 281 485 281 627 q 349 256 281 340 q 526 172 416 172 q 706 254 640 172 q 772 481 772 336 q 708 716 772 632 q 532 800 644 800 m 866 1279 l 695 1063 l 553 1063 l 697 1279 l 866 1279 m 610 1279 l 441 1063 l 298 1063 l 441 1279 l 610 1279 z "},"ő":{"ha":849,"x_min":49,"x_max":800,"o":"m 421 -17 q 148 80 248 -17 q 49 345 49 178 q 152 614 49 517 q 431 711 255 711 q 702 614 604 711 q 800 357 800 517 q 699 83 800 184 q 421 -17 597 -17 m 427 547 q 309 495 351 547 q 267 347 267 443 q 428 147 267 147 q 582 353 582 147 q 427 547 582 547 m 750 1021 l 579 804 l 437 804 l 581 1021 l 750 1021 m 494 1021 l 326 804 l 182 804 l 326 1021 l 494 1021 z "},"Ọ":{"ha":1053,"x_min":50,"x_max":1003,"o":"m 522 -17 q 182 119 313 -17 q 50 473 50 255 q 184 846 50 704 q 538 989 317 989 q 874 852 746 989 q 1003 493 1003 716 q 870 123 1003 264 q 522 -17 736 -17 m 532 800 q 349 714 416 800 q 281 485 281 627 q 349 256 281 340 q 526 172 416 172 q 706 254 640 172 q 772 481 772 336 q 708 716 772 632 q 532 800 644 800 m 527 -265 q 452 -238 481 -265 q 422 -172 422 -211 q 452 -106 422 -132 q 527 -81 482 -81 q 601 -106 572 -81 q 630 -172 630 -132 q 601 -239 630 -212 q 527 -265 572 -265 z "},"ọ":{"ha":849,"x_min":49,"x_max":800,"o":"m 421 -17 q 148 80 248 -17 q 49 345 49 178 q 152 614 49 517 q 431 711 255 711 q 702 614 604 711 q 800 357 800 517 q 699 83 800 184 q 421 -17 597 -17 m 427 547 q 309 495 351 547 q 267 347 267 443 q 428 147 267 147 q 582 353 582 147 q 427 547 582 547 m 423 -265 q 348 -238 378 -265 q 319 -172 319 -211 q 349 -106 319 -132 q 423 -81 378 -81 q 497 -106 469 -81 q 526 -172 526 -132 q 497 -239 526 -212 q 423 -265 469 -265 z "},"Ǫ":{"ha":1053,"x_min":50,"x_max":1003,"o":"m 522 -17 q 182 119 313 -17 q 50 473 50 255 q 184 846 50 704 q 538 989 317 989 q 874 852 746 989 q 1003 493 1003 716 q 870 123 1003 264 q 522 -17 736 -17 m 532 800 q 349 714 416 800 q 281 485 281 627 q 349 256 281 340 q 526 172 416 172 q 706 254 640 172 q 772 481 772 336 q 708 716 772 632 q 532 800 644 800 m 648 -271 q 609 -280 631 -277 q 562 -284 586 -284 q 470 -254 505 -284 q 435 -166 435 -224 q 443 -122 435 -145 q 465 -78 450 -100 q 500 -36 479 -56 q 548 0 521 -16 l 653 0 q 575 -76 600 -39 q 549 -141 549 -113 q 561 -175 549 -163 q 592 -186 572 -186 q 619 -184 605 -186 q 647 -178 633 -182 l 648 -271 z "},"ǫ":{"ha":849,"x_min":49,"x_max":800,"o":"m 421 -17 q 148 80 248 -17 q 49 345 49 178 q 152 614 49 517 q 431 711 255 711 q 702 614 604 711 q 800 357 800 517 q 699 83 800 184 q 421 -17 597 -17 m 427 547 q 309 495 351 547 q 267 347 267 443 q 428 147 267 147 q 582 353 582 147 q 427 547 582 547 m 543 -271 q 504 -280 527 -277 q 458 -284 481 -284 q 366 -254 400 -284 q 331 -166 331 -224 q 338 -122 331 -145 q 360 -78 346 -100 q 395 -36 374 -56 q 444 0 416 -16 l 549 0 q 470 -76 496 -39 q 445 -141 445 -113 q 456 -175 445 -163 q 488 -186 468 -186 q 515 -184 500 -186 q 543 -178 529 -182 l 543 -271 z "},"Ǭ":{"ha":1053,"x_min":50,"x_max":1003,"o":"m 522 -17 q 182 119 313 -17 q 50 473 50 255 q 184 846 50 704 q 538 989 317 989 q 874 852 746 989 q 1003 493 1003 716 q 870 123 1003 264 q 522 -17 736 -17 m 532 800 q 349 714 416 800 q 281 485 281 627 q 349 256 281 340 q 526 172 416 172 q 706 254 640 172 q 772 481 772 336 q 708 716 772 632 q 532 800 644 800 m 648 -271 q 609 -280 631 -277 q 562 -284 586 -284 q 470 -254 505 -284 q 435 -166 435 -224 q 443 -122 435 -145 q 465 -78 450 -100 q 500 -36 479 -56 q 548 0 521 -16 l 653 0 q 575 -76 600 -39 q 549 -141 549 -113 q 561 -175 549 -163 q 592 -186 572 -186 q 619 -184 605 -186 q 647 -178 633 -182 l 648 -271 m 725 1063 l 328 1063 l 328 1179 l 725 1179 l 725 1063 z "},"ǭ":{"ha":849,"x_min":49,"x_max":800,"o":"m 421 -17 q 148 80 248 -17 q 49 345 49 178 q 152 614 49 517 q 431 711 255 711 q 702 614 604 711 q 800 357 800 517 q 699 83 800 184 q 421 -17 597 -17 m 427 547 q 309 495 351 547 q 267 347 267 443 q 428 147 267 147 q 582 353 582 147 q 427 547 582 547 m 543 -271 q 504 -280 527 -277 q 458 -284 481 -284 q 366 -254 400 -284 q 331 -166 331 -224 q 338 -122 331 -145 q 360 -78 346 -100 q 395 -36 374 -56 q 444 0 416 -16 l 549 0 q 470 -76 496 -39 q 445 -141 445 -113 q 456 -175 445 -163 q 488 -186 468 -186 q 515 -184 500 -186 q 543 -178 529 -182 l 543 -271 m 622 804 l 224 804 l 224 921 l 622 921 l 622 804 z "},"Ɵ":{"ha":1053,"x_min":50,"x_max":1003,"o":"m 522 -17 q 182 119 313 -17 q 50 473 50 255 q 184 846 50 704 q 538 989 317 989 q 874 852 746 989 q 1003 493 1003 716 q 870 123 1003 264 q 522 -17 736 -17 m 765 568 q 687 740 747 680 q 532 800 626 800 q 372 739 435 800 q 289 568 308 677 l 765 568 m 766 403 l 289 403 q 370 233 307 294 q 526 172 434 172 q 686 233 623 172 q 766 403 749 293 z "},"ɵ":{"ha":842,"x_min":49,"x_max":793,"o":"m 416 -17 q 147 80 245 -17 q 49 345 49 176 q 151 614 49 517 q 428 711 252 711 q 696 614 600 711 q 793 357 793 517 q 693 83 793 183 q 416 -17 593 -17 m 572 414 q 422 547 548 547 q 269 414 296 547 l 572 414 m 572 282 l 269 282 q 424 147 295 147 q 572 282 547 147 z "},"Ø":{"ha":1053,"x_min":50,"x_max":1003,"o":"m 236 74 l 139 -41 l 54 29 l 155 149 q 50 473 50 279 q 183 846 50 704 q 538 989 317 989 q 810 908 696 989 l 897 1010 l 982 940 l 890 833 q 1003 493 1003 701 q 870 123 1003 264 q 522 -17 736 -17 q 236 74 359 -17 m 689 766 q 532 818 623 818 q 337 725 409 818 q 265 481 265 633 q 297 310 265 382 l 689 766 m 753 675 l 361 216 q 526 154 429 154 q 717 241 645 154 q 789 479 789 328 q 753 675 789 591 z "},"ø":{"ha":849,"x_min":26,"x_max":818,"o":"m 818 685 l 724 586 q 800 357 800 489 q 700 83 800 181 q 421 -16 600 -16 q 199 43 287 -16 l 107 -53 l 26 20 l 119 117 q 49 346 49 212 q 152 615 49 517 q 432 713 256 713 q 643 657 553 713 l 737 757 l 818 685 m 524 536 q 428 564 486 564 q 253 349 253 564 q 265 267 253 299 l 524 536 m 585 441 l 318 164 q 427 134 359 134 q 597 353 597 134 q 585 441 597 403 z "},"Ǿ":{"ha":1053,"x_min":50,"x_max":1003,"o":"m 236 74 l 139 -41 l 54 29 l 155 149 q 50 473 50 279 q 183 846 50 704 q 538 989 317 989 q 810 908 696 989 l 897 1010 l 982 940 l 890 833 q 1003 493 1003 701 q 870 123 1003 264 q 522 -17 736 -17 q 236 74 359 -17 m 689 766 q 532 818 623 818 q 337 725 409 818 q 265 481 265 633 q 297 310 265 382 l 689 766 m 753 675 l 361 216 q 526 154 429 154 q 717 241 645 154 q 789 479 789 328 q 753 675 789 591 m 779 1282 l 567 1063 l 412 1063 l 589 1282 l 779 1282 z "},"ǿ":{"ha":849,"x_min":26,"x_max":818,"o":"m 818 685 l 724 586 q 800 357 800 489 q 700 83 800 181 q 421 -16 600 -16 q 199 43 287 -16 l 107 -53 l 26 20 l 119 117 q 49 346 49 212 q 152 615 49 517 q 432 713 256 713 q 643 657 553 713 l 737 757 l 818 685 m 524 536 q 428 564 486 564 q 253 349 253 564 q 265 267 253 299 l 524 536 m 585 441 l 318 164 q 427 134 359 134 q 597 353 597 134 q 585 441 597 403 m 650 1023 l 437 804 l 283 804 l 459 1023 l 650 1023 z "},"Ɔ":{"ha":868,"x_min":60,"x_max":818,"o":"m 60 20 l 60 231 q 282 172 158 172 q 503 258 419 172 q 587 492 587 345 q 508 716 587 633 q 294 800 429 800 q 60 737 168 800 l 60 937 q 338 989 167 989 q 690 858 562 989 q 818 507 818 726 q 673 128 818 273 q 300 -17 529 -17 q 60 20 159 -17 z "},"ɔ":{"ha":664,"x_min":52,"x_max":615,"o":"m 52 16 l 52 197 q 201 147 118 147 q 347 201 294 147 q 400 350 400 256 q 349 495 400 443 q 208 547 298 547 q 52 497 125 547 l 52 669 q 258 711 125 711 q 516 614 418 711 q 615 364 615 517 q 510 85 615 187 q 227 -17 404 -17 q 52 16 107 -17 z "},"Œ":{"ha":1305,"x_min":50,"x_max":1261,"o":"m 1261 0 l 700 0 q 621 -8 682 0 q 514 -17 559 -17 q 178 121 306 -17 q 50 473 50 258 q 182 847 50 705 q 532 989 313 989 q 634 981 574 989 q 708 972 694 972 l 1239 972 l 1239 794 l 897 794 l 897 575 l 1215 575 l 1215 396 l 897 396 l 897 178 l 1261 178 l 1261 0 m 672 207 l 672 765 q 530 800 614 800 q 349 712 416 800 q 282 482 282 625 q 351 257 282 341 q 528 172 419 172 q 672 207 606 172 z "},"œ":{"ha":1284,"x_min":49,"x_max":1246,"o":"m 1246 286 l 791 286 q 983 135 801 135 q 1183 189 1097 135 l 1183 35 q 949 -17 1087 -17 q 684 111 778 -17 l 681 111 q 404 -16 588 -16 q 147 81 245 -16 q 49 345 49 178 q 149 614 49 515 q 412 713 248 713 q 574 679 503 713 q 679 593 645 646 l 682 593 q 937 711 762 711 q 1164 621 1082 711 q 1246 378 1246 530 l 1246 286 m 1046 418 q 928 567 1046 567 q 836 524 873 567 q 791 418 799 481 l 1046 418 m 428 547 q 309 495 351 547 q 267 347 267 442 q 427 149 267 149 q 582 350 582 149 q 542 495 582 444 q 428 547 501 547 z "},"P":{"ha":853,"x_min":111,"x_max":822,"o":"m 330 335 l 330 0 l 111 0 l 111 972 l 454 972 q 822 663 822 972 q 716 426 822 516 q 435 335 611 335 l 330 335 m 330 804 l 330 501 l 416 501 q 591 654 591 501 q 416 804 591 804 l 330 804 z "},"p":{"ha":861,"x_min":90,"x_max":812,"o":"m 307 81 l 304 81 l 304 -319 l 90 -319 l 90 694 l 304 694 l 304 590 l 307 590 q 530 711 387 711 q 739 619 665 711 q 812 367 812 526 q 727 88 812 193 q 498 -17 641 -17 q 307 81 373 -17 m 301 366 l 301 310 q 339 193 301 238 q 439 147 377 147 q 552 204 512 147 q 593 364 593 260 q 450 547 593 547 q 343 497 385 547 q 301 366 301 448 z "},"Ṕ":{"ha":853,"x_min":111,"x_max":822,"o":"m 330 335 l 330 0 l 111 0 l 111 972 l 454 972 q 822 663 822 972 q 716 426 822 516 q 435 335 611 335 l 330 335 m 330 804 l 330 501 l 416 501 q 591 654 591 501 q 416 804 591 804 l 330 804 m 654 1282 l 442 1063 l 288 1063 l 464 1282 l 654 1282 z "},"ṕ":{"ha":861,"x_min":90,"x_max":812,"o":"m 307 81 l 304 81 l 304 -319 l 90 -319 l 90 694 l 304 694 l 304 590 l 307 590 q 530 711 387 711 q 739 619 665 711 q 812 367 812 526 q 727 88 812 193 q 498 -17 641 -17 q 307 81 373 -17 m 301 366 l 301 310 q 339 193 301 238 q 439 147 377 147 q 552 204 512 147 q 593 364 593 260 q 450 547 593 547 q 343 497 385 547 q 301 366 301 448 m 654 1023 l 442 804 l 288 804 l 464 1023 l 654 1023 z "},"Ṗ":{"ha":853,"x_min":111,"x_max":822,"o":"m 330 335 l 330 0 l 111 0 l 111 972 l 454 972 q 822 663 822 972 q 716 426 822 516 q 435 335 611 335 l 330 335 m 330 804 l 330 501 l 416 501 q 591 654 591 501 q 416 804 591 804 l 330 804 m 444 1063 q 369 1090 399 1063 q 340 1156 340 1117 q 370 1222 340 1196 q 444 1247 399 1247 q 518 1221 490 1247 q 547 1156 547 1196 q 518 1089 547 1116 q 444 1063 490 1063 z "},"ṗ":{"ha":861,"x_min":90,"x_max":812,"o":"m 307 81 l 304 81 l 304 -319 l 90 -319 l 90 694 l 304 694 l 304 590 l 307 590 q 530 711 387 711 q 739 619 665 711 q 812 367 812 526 q 727 88 812 193 q 498 -17 641 -17 q 307 81 373 -17 m 301 366 l 301 310 q 339 193 301 238 q 439 147 377 147 q 552 204 512 147 q 593 364 593 260 q 450 547 593 547 q 343 497 385 547 q 301 366 301 448 m 460 804 q 386 831 415 804 q 356 897 356 859 q 386 963 356 938 q 460 989 416 989 q 535 963 506 989 q 564 897 564 937 q 535 831 564 857 q 460 804 506 804 z "},"Ᵽ":{"ha":853,"x_min":19,"x_max":822,"o":"m 330 335 l 330 0 l 111 0 l 111 597 l 19 597 l 19 701 l 111 701 l 111 972 l 454 972 q 822 663 822 972 q 716 426 822 516 q 435 335 611 335 l 330 335 m 330 804 l 330 701 l 473 701 l 473 597 l 330 597 l 330 501 l 416 501 q 591 654 591 501 q 416 804 591 804 l 330 804 z "},"ᵽ":{"ha":861,"x_min":9,"x_max":895,"o":"m 895 300 l 809 300 q 726 88 795 172 q 498 -17 641 -17 q 307 81 373 -17 l 304 81 l 304 -319 l 90 -319 l 90 300 l 9 300 l 9 416 l 90 416 l 90 694 l 304 694 l 304 590 l 307 590 q 530 711 387 711 q 739 618 665 711 q 810 416 800 541 l 895 416 l 895 300 m 588 300 l 301 300 q 339 193 304 235 q 439 147 377 147 q 552 203 512 147 q 588 300 579 241 m 450 547 q 342 497 385 547 q 305 416 315 464 l 589 416 q 450 547 570 547 z "},"Ƥ":{"ha":1063,"x_min":-35,"x_max":1031,"o":"m 539 335 l 539 0 l 319 0 l 319 804 l 289 804 q 196 768 231 804 q 161 676 161 731 q 176 591 161 634 l -18 591 q -35 692 -35 635 q 56 891 -35 810 q 297 972 146 972 l 663 972 q 1031 663 1031 972 q 925 426 1031 516 q 643 335 820 335 l 539 335 m 539 804 l 539 501 l 625 501 q 800 654 800 501 q 625 804 800 804 l 539 804 z "},"ƥ":{"ha":861,"x_min":90,"x_max":812,"o":"m 307 81 l 304 81 l 304 -319 l 90 -319 l 90 771 q 347 1044 90 1044 q 461 1028 410 1044 l 461 864 q 389 880 429 880 q 304 771 304 880 l 304 590 l 307 590 q 530 711 387 711 q 739 619 665 711 q 812 367 812 526 q 727 88 812 193 q 498 -17 641 -17 q 307 81 373 -17 m 301 366 l 301 310 q 339 193 301 238 q 439 147 377 147 q 552 204 512 147 q 593 364 593 260 q 450 547 593 547 q 343 497 385 547 q 301 366 301 448 z "},"Q":{"ha":1053,"x_min":50,"x_max":1074,"o":"m 532 800 q 349 713 417 800 q 281 485 281 627 q 348 256 281 341 q 526 172 416 172 q 706 254 640 172 q 772 481 772 336 q 709 715 772 631 q 532 800 645 800 m 705 18 q 772 -44 741 -20 q 837 -83 804 -68 q 903 -102 869 -97 q 977 -108 937 -108 q 1000 -107 987 -108 q 1026 -103 1013 -106 q 1052 -98 1040 -101 q 1074 -91 1064 -95 l 1074 -275 q 1014 -288 1053 -281 q 921 -294 976 -294 q 799 -272 854 -294 q 691 -213 743 -250 q 592 -124 640 -175 q 491 -15 543 -73 q 310 26 391 -12 q 171 131 229 65 q 82 284 113 196 q 50 473 50 372 q 183 846 50 705 q 539 989 317 989 q 874 852 746 989 q 1003 493 1003 716 q 924 193 1003 319 q 705 18 846 69 z "},"q":{"ha":860,"x_min":49,"x_max":770,"o":"m 770 -319 l 555 -319 l 555 96 l 553 96 q 339 -17 480 -17 q 129 74 208 -17 q 49 330 49 165 q 136 608 49 504 q 364 711 224 711 q 553 614 492 711 l 555 614 l 555 694 l 770 694 l 770 -319 m 559 332 l 559 387 q 520 501 559 455 q 419 547 481 547 q 307 491 348 547 q 267 336 267 435 q 306 197 267 248 q 410 147 346 147 q 518 198 477 147 q 559 332 559 249 z "},"Ɋ":{"ha":1076,"x_min":50,"x_max":1141,"o":"m 516 800 q 346 713 412 800 q 281 486 281 627 q 344 259 281 345 q 510 173 408 173 q 682 255 619 173 q 745 484 745 336 l 745 491 q 684 718 744 637 q 516 800 623 800 m 964 -14 q 1059 -122 965 -122 q 1141 -97 1096 -122 l 1141 -264 q 1026 -286 1084 -286 q 762 -12 762 -286 l 762 144 q 745 122 753 133 q 449 -16 634 -16 q 159 120 268 -16 q 50 475 50 256 q 160 849 50 709 q 462 989 271 989 q 744 853 637 989 q 758 833 751 844 l 758 972 l 964 972 l 964 -14 z "},"ɋ":{"ha":860,"x_min":49,"x_max":945,"o":"m 555 -12 l 555 96 l 553 96 q 338 -17 479 -17 q 128 75 208 -17 q 49 332 49 167 q 136 608 49 504 q 366 711 224 711 q 553 615 500 711 l 555 615 l 555 694 l 770 694 l 770 -14 q 864 -122 770 -122 q 945 -97 901 -122 l 945 -264 q 831 -286 888 -286 q 555 -12 555 -286 m 559 338 l 559 390 q 520 503 559 458 q 418 547 481 547 q 307 491 347 547 q 267 338 267 435 q 305 197 267 246 q 412 147 344 147 q 518 199 477 147 q 559 338 559 252 z "},"R":{"ha":907,"x_min":111,"x_max":927,"o":"m 927 0 l 675 0 l 524 250 q 492 301 507 279 q 460 339 476 323 q 427 364 444 355 q 389 372 410 372 l 330 372 l 330 0 l 111 0 l 111 972 l 458 972 q 812 708 812 972 q 797 614 812 657 q 753 536 781 571 q 684 477 724 502 q 594 437 644 452 l 594 435 q 636 413 616 428 q 675 377 656 397 q 712 333 694 357 q 743 288 729 310 l 927 0 m 330 808 l 330 538 l 425 538 q 538 578 496 538 q 582 681 582 620 q 429 808 582 808 l 330 808 z "},"r":{"ha":553,"x_min":90,"x_max":543,"o":"m 543 501 q 453 522 505 522 q 344 471 383 522 q 304 332 304 420 l 304 0 l 90 0 l 90 694 l 304 694 l 304 566 l 307 566 q 490 707 358 707 q 543 699 524 707 l 543 501 z "},"Ŕ":{"ha":907,"x_min":111,"x_max":927,"o":"m 927 0 l 675 0 l 524 250 q 492 301 507 279 q 460 339 476 323 q 427 364 444 355 q 389 372 410 372 l 330 372 l 330 0 l 111 0 l 111 972 l 458 972 q 812 708 812 972 q 797 614 812 657 q 753 536 781 571 q 684 477 724 502 q 594 437 644 452 l 594 435 q 636 413 616 428 q 675 377 656 397 q 712 333 694 357 q 743 288 729 310 l 927 0 m 330 808 l 330 538 l 425 538 q 538 578 496 538 q 582 681 582 620 q 429 808 582 808 l 330 808 m 664 1282 l 452 1063 l 297 1063 l 473 1282 l 664 1282 z "},"ŕ":{"ha":553,"x_min":90,"x_max":543,"o":"m 543 501 q 453 522 505 522 q 344 471 383 522 q 304 332 304 420 l 304 0 l 90 0 l 90 694 l 304 694 l 304 566 l 307 566 q 490 707 358 707 q 543 699 524 707 l 543 501 m 524 1023 l 311 804 l 157 804 l 333 1023 l 524 1023 z "},"Ř":{"ha":907,"x_min":111,"x_max":927,"o":"m 927 0 l 675 0 l 524 250 q 492 301 507 279 q 460 339 476 323 q 427 364 444 355 q 389 372 410 372 l 330 372 l 330 0 l 111 0 l 111 972 l 458 972 q 812 708 812 972 q 797 614 812 657 q 753 536 781 571 q 684 477 724 502 q 594 437 644 452 l 594 435 q 636 413 616 428 q 675 377 656 397 q 712 333 694 357 q 743 288 729 310 l 927 0 m 330 808 l 330 538 l 425 538 q 538 578 496 538 q 582 681 582 620 q 429 808 582 808 l 330 808 m 676 1283 l 515 1063 l 347 1063 l 187 1283 l 326 1283 l 431 1156 l 537 1283 l 676 1283 z "},"ř":{"ha":553,"x_min":46,"x_max":543,"o":"m 543 501 q 453 522 505 522 q 344 471 383 522 q 304 332 304 420 l 304 0 l 90 0 l 90 694 l 304 694 l 304 566 l 307 566 q 490 707 358 707 q 543 699 524 707 l 543 501 m 535 1025 l 374 804 l 205 804 l 46 1025 l 185 1025 l 290 897 l 396 1025 l 535 1025 z "},"Ṝ":{"ha":907,"x_min":111,"x_max":927,"o":"m 927 0 l 675 0 l 524 250 q 492 301 507 279 q 460 339 476 323 q 427 364 444 355 q 389 372 410 372 l 330 372 l 330 0 l 111 0 l 111 972 l 458 972 q 812 708 812 972 q 797 614 812 657 q 753 536 781 571 q 684 477 724 502 q 594 437 644 452 l 594 435 q 636 413 616 428 q 675 377 656 397 q 712 333 694 357 q 743 288 729 310 l 927 0 m 330 808 l 330 538 l 425 538 q 538 578 496 538 q 582 681 582 620 q 429 808 582 808 l 330 808 m 465 -265 q 390 -238 420 -265 q 361 -172 361 -211 q 391 -106 361 -132 q 465 -81 420 -81 q 539 -106 511 -81 q 568 -172 568 -132 q 539 -239 568 -212 q 465 -265 511 -265 m 651 1063 l 254 1063 l 254 1179 l 651 1179 l 651 1063 z "},"ṝ":{"ha":553,"x_min":90,"x_max":543,"o":"m 543 501 q 453 522 505 522 q 344 471 383 522 q 304 332 304 420 l 304 0 l 90 0 l 90 694 l 304 694 l 304 566 l 307 566 q 490 707 358 707 q 543 699 524 707 l 543 501 m 296 -265 q 221 -238 250 -265 q 191 -172 191 -211 q 221 -106 191 -132 q 296 -81 251 -81 q 370 -106 341 -81 q 399 -172 399 -132 q 370 -239 399 -212 q 296 -265 341 -265 m 507 804 l 109 804 l 109 921 l 507 921 l 507 804 z "},"Ȓ":{"ha":907,"x_min":111,"x_max":927,"o":"m 927 0 l 675 0 l 524 250 q 492 301 507 279 q 460 339 476 323 q 427 364 444 355 q 389 372 410 372 l 330 372 l 330 0 l 111 0 l 111 972 l 458 972 q 812 708 812 972 q 797 614 812 657 q 753 536 781 571 q 684 477 724 502 q 594 437 644 452 l 594 435 q 636 413 616 428 q 675 377 656 397 q 712 333 694 357 q 743 288 729 310 l 927 0 m 330 808 l 330 538 l 425 538 q 538 578 496 538 q 582 681 582 620 q 429 808 582 808 l 330 808 m 652 1063 l 530 1063 q 422 1154 518 1154 q 317 1063 330 1154 l 195 1063 q 264 1215 203 1158 q 425 1271 326 1271 q 587 1213 524 1271 q 652 1063 649 1155 z "},"ȓ":{"ha":553,"x_min":90,"x_max":548,"o":"m 543 501 q 453 522 505 522 q 344 471 383 522 q 304 332 304 420 l 304 0 l 90 0 l 90 694 l 304 694 l 304 566 l 307 566 q 490 707 358 707 q 543 699 524 707 l 543 501 m 548 804 l 426 804 q 319 896 414 896 q 213 804 227 896 l 91 804 q 160 956 99 900 q 321 1013 222 1013 q 483 955 420 1013 q 548 804 545 897 z "},"Ṙ":{"ha":907,"x_min":111,"x_max":927,"o":"m 927 0 l 675 0 l 524 250 q 492 301 507 279 q 460 339 476 323 q 427 364 444 355 q 389 372 410 372 l 330 372 l 330 0 l 111 0 l 111 972 l 458 972 q 812 708 812 972 q 797 614 812 657 q 753 536 781 571 q 684 477 724 502 q 594 437 644 452 l 594 435 q 636 413 616 428 q 675 377 656 397 q 712 333 694 357 q 743 288 729 310 l 927 0 m 330 808 l 330 538 l 425 538 q 538 578 496 538 q 582 681 582 620 q 429 808 582 808 l 330 808 m 448 1063 q 373 1090 403 1063 q 344 1156 344 1117 q 374 1222 344 1196 q 448 1247 404 1247 q 523 1221 494 1247 q 551 1156 551 1196 q 523 1089 551 1116 q 448 1063 494 1063 z "},"ṙ":{"ha":553,"x_min":90,"x_max":543,"o":"m 543 501 q 453 522 505 522 q 344 471 383 522 q 304 332 304 420 l 304 0 l 90 0 l 90 694 l 304 694 l 304 566 l 307 566 q 490 707 358 707 q 543 699 524 707 l 543 501 m 307 804 q 232 831 261 804 q 202 897 202 859 q 232 963 202 938 q 307 989 262 989 q 381 963 352 989 q 410 897 410 937 q 381 831 410 857 q 307 804 352 804 z "},"Ȑ":{"ha":907,"x_min":74,"x_max":927,"o":"m 927 0 l 675 0 l 524 250 q 492 301 507 279 q 460 339 476 323 q 427 364 444 355 q 389 372 410 372 l 330 372 l 330 0 l 111 0 l 111 972 l 458 972 q 812 708 812 972 q 797 614 812 657 q 753 536 781 571 q 684 477 724 502 q 594 437 644 452 l 594 435 q 636 413 616 428 q 675 377 656 397 q 712 333 694 357 q 743 288 729 310 l 927 0 m 330 808 l 330 538 l 425 538 q 538 578 496 538 q 582 681 582 620 q 429 808 582 808 l 330 808 m 642 1063 l 498 1063 l 331 1279 l 498 1279 l 642 1063 m 388 1063 l 245 1063 l 74 1279 l 243 1279 l 388 1063 z "},"ȑ":{"ha":553,"x_min":-72,"x_max":543,"o":"m 543 501 q 453 522 505 522 q 344 471 383 522 q 304 332 304 420 l 304 0 l 90 0 l 90 694 l 304 694 l 304 566 l 307 566 q 490 707 358 707 q 543 699 524 707 l 543 501 m 496 804 l 353 804 l 185 1021 l 353 1021 l 496 804 m 242 804 l 99 804 l -72 1021 l 98 1021 l 242 804 z "},"Ṟ":{"ha":907,"x_min":111,"x_max":927,"o":"m 927 0 l 675 0 l 524 250 q 492 301 507 279 q 460 339 476 323 q 427 364 444 355 q 389 372 410 372 l 330 372 l 330 0 l 111 0 l 111 972 l 458 972 q 812 708 812 972 q 797 614 812 657 q 753 536 781 571 q 684 477 724 502 q 594 437 644 452 l 594 435 q 636 413 616 428 q 675 377 656 397 q 712 333 694 357 q 743 288 729 310 l 927 0 m 330 808 l 330 538 l 425 538 q 538 578 496 538 q 582 681 582 620 q 429 808 582 808 l 330 808 m 661 -197 l 264 -197 l 264 -81 l 661 -81 l 661 -197 z "},"ṟ":{"ha":553,"x_min":90,"x_max":543,"o":"m 543 501 q 453 522 505 522 q 344 471 383 522 q 304 332 304 420 l 304 0 l 90 0 l 90 694 l 304 694 l 304 566 l 307 566 q 490 707 358 707 q 543 699 524 707 l 543 501 m 517 -197 l 120 -197 l 120 -81 l 517 -81 l 517 -197 z "},"Ṛ":{"ha":907,"x_min":111,"x_max":927,"o":"m 927 0 l 675 0 l 524 250 q 492 301 507 279 q 460 339 476 323 q 427 364 444 355 q 389 372 410 372 l 330 372 l 330 0 l 111 0 l 111 972 l 458 972 q 812 708 812 972 q 797 614 812 657 q 753 536 781 571 q 684 477 724 502 q 594 437 644 452 l 594 435 q 636 413 616 428 q 675 377 656 397 q 712 333 694 357 q 743 288 729 310 l 927 0 m 330 808 l 330 538 l 425 538 q 538 578 496 538 q 582 681 582 620 q 429 808 582 808 l 330 808 m 465 -265 q 390 -238 420 -265 q 361 -172 361 -211 q 391 -106 361 -132 q 465 -81 420 -81 q 539 -106 511 -81 q 568 -172 568 -132 q 539 -239 568 -212 q 465 -265 511 -265 z "},"ṛ":{"ha":553,"x_min":90,"x_max":543,"o":"m 543 501 q 453 522 505 522 q 344 471 383 522 q 304 332 304 420 l 304 0 l 90 0 l 90 694 l 304 694 l 304 566 l 307 566 q 490 707 358 707 q 543 699 524 707 l 543 501 m 296 -265 q 221 -238 250 -265 q 191 -172 191 -211 q 221 -106 191 -132 q 296 -81 251 -81 q 370 -106 341 -81 q 399 -172 399 -132 q 370 -239 399 -212 q 296 -265 341 -265 z "},"Ŗ":{"ha":907,"x_min":111,"x_max":927,"o":"m 927 0 l 675 0 l 524 250 q 492 301 507 279 q 460 339 476 323 q 427 364 444 355 q 389 372 410 372 l 330 372 l 330 0 l 111 0 l 111 972 l 458 972 q 812 708 812 972 q 797 614 812 657 q 753 536 781 571 q 684 477 724 502 q 594 437 644 452 l 594 435 q 636 413 616 428 q 675 377 656 397 q 712 333 694 357 q 743 288 729 310 l 927 0 m 330 808 l 330 538 l 425 538 q 538 578 496 538 q 582 681 582 620 q 429 808 582 808 l 330 808 m 576 -79 l 462 -318 l 330 -318 l 391 -79 l 576 -79 z "},"ŗ":{"ha":553,"x_min":90,"x_max":543,"o":"m 543 501 q 453 522 505 522 q 344 471 383 522 q 304 332 304 420 l 304 0 l 90 0 l 90 694 l 304 694 l 304 566 l 307 566 q 490 707 358 707 q 543 699 524 707 l 543 501 m 402 -79 l 288 -318 l 157 -318 l 218 -79 l 402 -79 z "},"Ɍ":{"ha":907,"x_min":18,"x_max":927,"o":"m 927 0 l 675 0 l 524 250 q 492 301 507 279 q 460 339 476 323 q 427 364 444 355 q 389 372 410 372 l 330 372 l 330 0 l 111 0 l 111 387 l 18 387 l 18 526 l 111 526 l 111 972 l 458 972 q 812 708 812 972 q 797 614 812 657 q 753 536 781 571 q 684 477 724 502 q 594 437 644 452 l 594 435 q 636 413 616 428 q 675 377 656 397 q 712 333 694 357 q 743 288 729 310 l 927 0 m 330 808 l 330 538 l 425 538 q 538 578 496 538 q 582 681 582 620 q 429 808 582 808 l 330 808 z "},"ɍ":{"ha":553,"x_min":19,"x_max":543,"o":"m 543 501 q 453 522 505 522 q 344 471 383 522 q 304 332 304 420 l 412 332 l 412 224 l 304 224 l 304 0 l 90 0 l 90 224 l 19 224 l 19 332 l 90 332 l 90 694 l 304 694 l 304 566 l 307 566 q 490 707 358 707 q 543 699 524 707 l 543 501 z "},"Ɽ":{"ha":907,"x_min":111,"x_max":927,"o":"m 927 0 l 675 0 l 524 250 q 492 301 507 279 q 460 339 476 323 q 427 364 444 355 q 389 372 410 372 l 330 372 l 330 0 q 425 -122 331 -122 q 507 -97 462 -122 l 507 -264 q 392 -286 450 -286 q 111 0 112 -286 l 111 972 l 458 972 q 812 708 812 972 q 797 614 812 657 q 753 536 781 571 q 684 477 724 502 q 594 437 644 452 l 594 435 q 636 413 616 428 q 675 377 656 397 q 712 333 694 357 q 743 288 729 310 l 927 0 m 330 808 l 330 538 l 425 538 q 538 578 496 538 q 582 681 582 620 q 429 808 582 808 l 330 808 z "},"ɽ":{"ha":554,"x_min":90,"x_max":543,"o":"m 543 501 q 453 522 501 522 q 344 471 384 522 q 304 332 304 420 l 304 -54 q 392 -163 304 -163 q 461 -143 429 -163 l 461 -301 q 318 -326 414 -326 q 90 -83 90 -326 l 90 694 l 304 694 l 304 566 l 307 566 q 490 707 359 707 q 543 699 519 707 l 543 501 z "},"S":{"ha":779,"x_min":62,"x_max":730,"o":"m 66 37 l 66 254 q 195 180 125 205 q 334 155 264 155 q 407 163 376 155 q 458 183 437 170 q 489 215 479 197 q 499 254 499 233 q 483 304 499 282 q 438 346 467 327 q 372 382 410 365 q 288 418 333 400 q 118 534 174 466 q 62 700 62 603 q 93 830 62 776 q 176 920 123 885 q 298 972 229 956 q 444 989 367 989 q 579 980 520 989 q 687 951 637 970 l 687 749 q 634 779 663 766 q 574 800 605 791 q 514 812 544 808 q 456 817 484 817 q 389 809 419 817 q 337 789 358 802 q 304 759 316 777 q 293 718 293 741 q 306 674 293 694 q 342 638 319 655 q 400 604 366 621 q 477 570 434 587 q 582 518 535 545 q 661 456 628 490 q 712 377 694 421 q 730 273 730 332 q 699 137 730 192 q 615 47 668 81 q 492 -2 562 13 q 344 -17 422 -17 q 192 -3 264 -17 q 66 37 119 10 z "},"s":{"ha":611,"x_min":45,"x_max":578,"o":"m 45 18 l 45 192 q 150 144 98 160 q 250 129 203 129 q 339 144 307 129 q 372 192 372 160 q 357 226 372 212 q 319 250 342 239 q 268 268 296 260 q 214 286 240 276 q 141 320 173 302 q 89 361 110 338 q 56 416 67 385 q 45 490 45 448 q 70 591 45 549 q 138 660 96 633 q 235 699 180 686 q 349 711 290 711 q 442 704 395 711 q 536 684 490 697 l 536 518 q 449 554 495 542 q 357 566 402 566 q 318 562 336 566 q 285 551 299 558 q 262 533 271 544 q 254 507 254 522 q 267 475 254 488 q 298 451 279 461 q 342 434 318 441 q 390 418 366 426 q 467 385 433 403 q 527 344 502 368 q 565 288 551 320 q 578 212 578 256 q 551 107 578 151 q 480 36 524 63 q 377 -4 435 8 q 257 -17 319 -17 q 45 18 142 -17 z "},"Ś":{"ha":779,"x_min":62,"x_max":730,"o":"m 66 37 l 66 254 q 195 180 125 205 q 334 155 264 155 q 407 163 376 155 q 458 183 437 170 q 489 215 479 197 q 499 254 499 233 q 483 304 499 282 q 438 346 467 327 q 372 382 410 365 q 288 418 333 400 q 118 534 174 466 q 62 700 62 603 q 93 830 62 776 q 176 920 123 885 q 298 972 229 956 q 444 989 367 989 q 579 980 520 989 q 687 951 637 970 l 687 749 q 634 779 663 766 q 574 800 605 791 q 514 812 544 808 q 456 817 484 817 q 389 809 419 817 q 337 789 358 802 q 304 759 316 777 q 293 718 293 741 q 306 674 293 694 q 342 638 319 655 q 400 604 366 621 q 477 570 434 587 q 582 518 535 545 q 661 456 628 490 q 712 377 694 421 q 730 273 730 332 q 699 137 730 192 q 615 47 668 81 q 492 -2 562 13 q 344 -17 422 -17 q 192 -3 264 -17 q 66 37 119 10 m 596 1282 l 384 1063 l 229 1063 l 406 1282 l 596 1282 z "},"ś":{"ha":611,"x_min":45,"x_max":578,"o":"m 45 18 l 45 192 q 150 144 98 160 q 250 129 203 129 q 339 144 307 129 q 372 192 372 160 q 357 226 372 212 q 319 250 342 239 q 268 268 296 260 q 214 286 240 276 q 141 320 173 302 q 89 361 110 338 q 56 416 67 385 q 45 490 45 448 q 70 591 45 549 q 138 660 96 633 q 235 699 180 686 q 349 711 290 711 q 442 704 395 711 q 536 684 490 697 l 536 518 q 449 554 495 542 q 357 566 402 566 q 318 562 336 566 q 285 551 299 558 q 262 533 271 544 q 254 507 254 522 q 267 475 254 488 q 298 451 279 461 q 342 434 318 441 q 390 418 366 426 q 467 385 433 403 q 527 344 502 368 q 565 288 551 320 q 578 212 578 256 q 551 107 578 151 q 480 36 524 63 q 377 -4 435 8 q 257 -17 319 -17 q 45 18 142 -17 m 538 1023 l 326 804 l 171 804 l 347 1023 l 538 1023 z "},"Ṥ":{"ha":779,"x_min":62,"x_max":730,"o":"m 66 37 l 66 254 q 195 180 125 205 q 334 155 264 155 q 407 163 376 155 q 458 183 437 170 q 489 215 479 197 q 499 254 499 233 q 483 304 499 282 q 438 346 467 327 q 372 382 410 365 q 288 418 333 400 q 118 534 174 466 q 62 700 62 603 q 93 830 62 776 q 176 920 123 885 q 298 972 229 956 q 444 989 367 989 q 579 980 520 989 q 687 951 637 970 l 687 749 q 634 779 663 766 q 574 800 605 791 q 514 812 544 808 q 456 817 484 817 q 389 809 419 817 q 337 789 358 802 q 304 759 316 777 q 293 718 293 741 q 306 674 293 694 q 342 638 319 655 q 400 604 366 621 q 477 570 434 587 q 582 518 535 545 q 661 456 628 490 q 712 377 694 421 q 730 273 730 332 q 699 137 730 192 q 615 47 668 81 q 492 -2 562 13 q 344 -17 422 -17 q 192 -3 264 -17 q 66 37 119 10 m 678 1240 l 499 1074 l 366 1074 l 488 1240 l 678 1240 m 283 1137 q 208 1164 237 1137 q 178 1230 178 1191 q 208 1296 178 1270 q 283 1321 238 1321 q 357 1295 328 1321 q 386 1230 386 1270 q 357 1163 386 1190 q 283 1137 328 1137 z "},"ṥ":{"ha":611,"x_min":45,"x_max":587,"o":"m 45 18 l 45 192 q 150 144 98 160 q 250 129 203 129 q 339 144 307 129 q 372 192 372 160 q 357 226 372 212 q 319 250 342 239 q 268 268 296 260 q 214 286 240 276 q 141 320 173 302 q 89 361 110 338 q 56 416 67 385 q 45 490 45 448 q 70 591 45 549 q 138 660 96 633 q 235 699 180 686 q 349 711 290 711 q 442 704 395 711 q 536 684 490 697 l 536 518 q 449 554 495 542 q 357 566 402 566 q 318 562 336 566 q 285 551 299 558 q 262 533 271 544 q 254 507 254 522 q 267 475 254 488 q 298 451 279 461 q 342 434 318 441 q 390 418 366 426 q 467 385 433 403 q 527 344 502 368 q 565 288 551 320 q 578 212 578 256 q 551 107 578 151 q 480 36 524 63 q 377 -4 435 8 q 257 -17 319 -17 q 45 18 142 -17 m 587 993 l 408 827 l 275 827 l 397 993 l 587 993 m 192 894 q 117 921 146 894 q 87 987 87 948 q 117 1053 87 1027 q 192 1078 147 1078 q 266 1053 237 1078 q 295 987 295 1027 q 266 920 295 947 q 192 894 237 894 z "},"Ŝ":{"ha":779,"x_min":62,"x_max":730,"o":"m 66 37 l 66 254 q 195 180 125 205 q 334 155 264 155 q 407 163 376 155 q 458 183 437 170 q 489 215 479 197 q 499 254 499 233 q 483 304 499 282 q 438 346 467 327 q 372 382 410 365 q 288 418 333 400 q 118 534 174 466 q 62 700 62 603 q 93 830 62 776 q 176 920 123 885 q 298 972 229 956 q 444 989 367 989 q 579 980 520 989 q 687 951 637 970 l 687 749 q 634 779 663 766 q 574 800 605 791 q 514 812 544 808 q 456 817 484 817 q 389 809 419 817 q 337 789 358 802 q 304 759 316 777 q 293 718 293 741 q 306 674 293 694 q 342 638 319 655 q 400 604 366 621 q 477 570 434 587 q 582 518 535 545 q 661 456 628 490 q 712 377 694 421 q 730 273 730 332 q 699 137 730 192 q 615 47 668 81 q 492 -2 562 13 q 344 -17 422 -17 q 192 -3 264 -17 q 66 37 119 10 m 625 1063 l 485 1063 l 378 1190 l 278 1063 l 138 1063 l 297 1283 l 465 1283 l 625 1063 z "},"ŝ":{"ha":611,"x_min":45,"x_max":578,"o":"m 45 18 l 45 192 q 150 144 98 160 q 250 129 203 129 q 339 144 307 129 q 372 192 372 160 q 357 226 372 212 q 319 250 342 239 q 268 268 296 260 q 214 286 240 276 q 141 320 173 302 q 89 361 110 338 q 56 416 67 385 q 45 490 45 448 q 70 591 45 549 q 138 660 96 633 q 235 699 180 686 q 349 711 290 711 q 442 704 395 711 q 536 684 490 697 l 536 518 q 449 554 495 542 q 357 566 402 566 q 318 562 336 566 q 285 551 299 558 q 262 533 271 544 q 254 507 254 522 q 267 475 254 488 q 298 451 279 461 q 342 434 318 441 q 390 418 366 426 q 467 385 433 403 q 527 344 502 368 q 565 288 551 320 q 578 212 578 256 q 551 107 578 151 q 480 36 524 63 q 377 -4 435 8 q 257 -17 319 -17 q 45 18 142 -17 m 559 804 l 419 804 l 312 932 l 212 804 l 72 804 l 231 1025 l 399 1025 l 559 804 z "},"Š":{"ha":779,"x_min":62,"x_max":730,"o":"m 66 37 l 66 254 q 195 180 125 205 q 334 155 264 155 q 407 163 376 155 q 458 183 437 170 q 489 215 479 197 q 499 254 499 233 q 483 304 499 282 q 438 346 467 327 q 372 382 410 365 q 288 418 333 400 q 118 534 174 466 q 62 700 62 603 q 93 830 62 776 q 176 920 123 885 q 298 972 229 956 q 444 989 367 989 q 579 980 520 989 q 687 951 637 970 l 687 749 q 634 779 663 766 q 574 800 605 791 q 514 812 544 808 q 456 817 484 817 q 389 809 419 817 q 337 789 358 802 q 304 759 316 777 q 293 718 293 741 q 306 674 293 694 q 342 638 319 655 q 400 604 366 621 q 477 570 434 587 q 582 518 535 545 q 661 456 628 490 q 712 377 694 421 q 730 273 730 332 q 699 137 730 192 q 615 47 668 81 q 492 -2 562 13 q 344 -17 422 -17 q 192 -3 264 -17 q 66 37 119 10 m 660 1283 l 498 1063 l 330 1063 l 171 1283 l 310 1283 l 415 1156 l 521 1283 l 660 1283 z "},"š":{"ha":611,"x_min":45,"x_max":578,"o":"m 45 18 l 45 192 q 150 144 98 160 q 250 129 203 129 q 339 144 307 129 q 372 192 372 160 q 357 226 372 212 q 319 250 342 239 q 268 268 296 260 q 214 286 240 276 q 141 320 173 302 q 89 361 110 338 q 56 416 67 385 q 45 490 45 448 q 70 591 45 549 q 138 660 96 633 q 235 699 180 686 q 349 711 290 711 q 442 704 395 711 q 536 684 490 697 l 536 518 q 449 554 495 542 q 357 566 402 566 q 318 562 336 566 q 285 551 299 558 q 262 533 271 544 q 254 507 254 522 q 267 475 254 488 q 298 451 279 461 q 342 434 318 441 q 390 418 366 426 q 467 385 433 403 q 527 344 502 368 q 565 288 551 320 q 578 212 578 256 q 551 107 578 151 q 480 36 524 63 q 377 -4 435 8 q 257 -17 319 -17 q 45 18 142 -17 m 550 1025 l 389 804 l 220 804 l 61 1025 l 200 1025 l 305 897 l 411 1025 l 550 1025 z "},"Ṧ":{"ha":779,"x_min":62,"x_max":730,"o":"m 66 37 l 66 254 q 195 180 125 205 q 334 155 264 155 q 407 163 376 155 q 458 183 437 170 q 489 215 479 197 q 499 254 499 233 q 483 304 499 282 q 438 346 467 327 q 372 382 410 365 q 288 418 333 400 q 118 534 174 466 q 62 700 62 603 q 93 830 62 776 q 176 920 123 885 q 298 972 229 956 q 444 989 367 989 q 579 980 520 989 q 687 951 637 970 l 687 749 q 634 779 663 766 q 574 800 605 791 q 514 812 544 808 q 456 817 484 817 q 389 809 419 817 q 337 789 358 802 q 304 759 316 777 q 293 718 293 741 q 306 674 293 694 q 342 638 319 655 q 400 604 366 621 q 477 570 434 587 q 582 518 535 545 q 661 456 628 490 q 712 377 694 421 q 730 273 730 332 q 699 137 730 192 q 615 47 668 81 q 492 -2 562 13 q 344 -17 422 -17 q 192 -3 264 -17 q 66 37 119 10 m 398 1235 q 341 1255 363 1235 q 319 1305 319 1276 q 341 1354 319 1335 q 398 1373 364 1373 q 454 1354 433 1373 q 476 1305 476 1335 q 454 1255 476 1275 q 398 1235 432 1235 m 633 1232 l 478 1063 l 316 1063 l 161 1232 l 298 1232 l 401 1139 l 496 1232 l 633 1232 z "},"ṧ":{"ha":611,"x_min":45,"x_max":578,"o":"m 45 18 l 45 192 q 150 144 98 160 q 250 129 203 129 q 339 144 307 129 q 372 192 372 160 q 357 226 372 212 q 319 250 342 239 q 268 268 296 260 q 214 286 240 276 q 141 320 173 302 q 89 361 110 338 q 56 416 67 385 q 45 490 45 448 q 70 591 45 549 q 138 660 96 633 q 235 699 180 686 q 349 711 290 711 q 442 704 395 711 q 536 684 490 697 l 536 518 q 449 554 495 542 q 357 566 402 566 q 318 562 336 566 q 285 551 299 558 q 262 533 271 544 q 254 507 254 522 q 267 475 254 488 q 298 451 279 461 q 342 434 318 441 q 390 418 366 426 q 467 385 433 403 q 527 344 502 368 q 565 288 551 320 q 578 212 578 256 q 551 107 578 151 q 480 36 524 63 q 377 -4 435 8 q 257 -17 319 -17 q 45 18 142 -17 m 300 999 q 243 1019 265 999 q 220 1068 220 1039 q 243 1118 220 1099 q 300 1137 266 1137 q 356 1117 334 1137 q 378 1068 378 1098 q 356 1019 378 1038 q 300 999 334 999 m 534 996 l 380 827 l 218 827 l 63 996 l 199 996 l 302 903 l 398 996 l 534 996 z "},"Ṡ":{"ha":779,"x_min":62,"x_max":730,"o":"m 66 37 l 66 254 q 195 180 125 205 q 334 155 264 155 q 407 163 376 155 q 458 183 437 170 q 489 215 479 197 q 499 254 499 233 q 483 304 499 282 q 438 346 467 327 q 372 382 410 365 q 288 418 333 400 q 118 534 174 466 q 62 700 62 603 q 93 830 62 776 q 176 920 123 885 q 298 972 229 956 q 444 989 367 989 q 579 980 520 989 q 687 951 637 970 l 687 749 q 634 779 663 766 q 574 800 605 791 q 514 812 544 808 q 456 817 484 817 q 389 809 419 817 q 337 789 358 802 q 304 759 316 777 q 293 718 293 741 q 306 674 293 694 q 342 638 319 655 q 400 604 366 621 q 477 570 434 587 q 582 518 535 545 q 661 456 628 490 q 712 377 694 421 q 730 273 730 332 q 699 137 730 192 q 615 47 668 81 q 492 -2 562 13 q 344 -17 422 -17 q 192 -3 264 -17 q 66 37 119 10 m 395 1063 q 320 1090 350 1063 q 291 1156 291 1117 q 321 1222 291 1196 q 395 1247 351 1247 q 470 1221 441 1247 q 498 1156 498 1196 q 470 1089 498 1116 q 395 1063 441 1063 z "},"ṡ":{"ha":611,"x_min":45,"x_max":578,"o":"m 45 18 l 45 192 q 150 144 98 160 q 250 129 203 129 q 339 144 307 129 q 372 192 372 160 q 357 226 372 212 q 319 250 342 239 q 268 268 296 260 q 214 286 240 276 q 141 320 173 302 q 89 361 110 338 q 56 416 67 385 q 45 490 45 448 q 70 591 45 549 q 138 660 96 633 q 235 699 180 686 q 349 711 290 711 q 442 704 395 711 q 536 684 490 697 l 536 518 q 449 554 495 542 q 357 566 402 566 q 318 562 336 566 q 285 551 299 558 q 262 533 271 544 q 254 507 254 522 q 267 475 254 488 q 298 451 279 461 q 342 434 318 441 q 390 418 366 426 q 467 385 433 403 q 527 344 502 368 q 565 288 551 320 q 578 212 578 256 q 551 107 578 151 q 480 36 524 63 q 377 -4 435 8 q 257 -17 319 -17 q 45 18 142 -17 m 307 804 q 232 831 261 804 q 202 897 202 859 q 232 963 202 938 q 307 989 262 989 q 381 963 352 989 q 410 897 410 937 q 381 831 410 857 q 307 804 352 804 z "},"Ṩ":{"ha":779,"x_min":62,"x_max":730,"o":"m 66 37 l 66 254 q 195 180 125 205 q 334 155 264 155 q 407 163 376 155 q 458 183 437 170 q 489 215 479 197 q 499 254 499 233 q 483 304 499 282 q 438 346 467 327 q 372 382 410 365 q 288 418 333 400 q 118 534 174 466 q 62 700 62 603 q 93 830 62 776 q 176 920 123 885 q 298 972 229 956 q 444 989 367 989 q 579 980 520 989 q 687 951 637 970 l 687 749 q 634 779 663 766 q 574 800 605 791 q 514 812 544 808 q 456 817 484 817 q 389 809 419 817 q 337 789 358 802 q 304 759 316 777 q 293 718 293 741 q 306 674 293 694 q 342 638 319 655 q 400 604 366 621 q 477 570 434 587 q 582 518 535 545 q 661 456 628 490 q 712 377 694 421 q 730 273 730 332 q 699 137 730 192 q 615 47 668 81 q 492 -2 562 13 q 344 -17 422 -17 q 192 -3 264 -17 q 66 37 119 10 m 383 1063 q 308 1090 338 1063 q 279 1156 279 1117 q 309 1222 279 1196 q 383 1247 338 1247 q 457 1221 429 1247 q 486 1156 486 1196 q 457 1089 486 1116 q 383 1063 429 1063 m 367 -265 q 292 -238 321 -265 q 262 -172 262 -211 q 292 -106 262 -132 q 367 -81 322 -81 q 441 -106 412 -81 q 470 -172 470 -132 q 441 -239 470 -212 q 367 -265 412 -265 z "},"ṩ":{"ha":611,"x_min":45,"x_max":578,"o":"m 45 18 l 45 192 q 150 144 98 160 q 250 129 203 129 q 339 144 307 129 q 372 192 372 160 q 357 226 372 212 q 319 250 342 239 q 268 268 296 260 q 214 286 240 276 q 141 320 173 302 q 89 361 110 338 q 56 416 67 385 q 45 490 45 448 q 70 591 45 549 q 138 660 96 633 q 235 699 180 686 q 349 711 290 711 q 442 704 395 711 q 536 684 490 697 l 536 518 q 449 554 495 542 q 357 566 402 566 q 318 562 336 566 q 285 551 299 558 q 262 533 271 544 q 254 507 254 522 q 267 475 254 488 q 298 451 279 461 q 342 434 318 441 q 390 418 366 426 q 467 385 433 403 q 527 344 502 368 q 565 288 551 320 q 578 212 578 256 q 551 107 578 151 q 480 36 524 63 q 377 -4 435 8 q 257 -17 319 -17 q 45 18 142 -17 m 315 -265 q 240 -238 270 -265 q 211 -172 211 -211 q 241 -106 211 -132 q 315 -81 271 -81 q 390 -106 361 -81 q 418 -172 418 -132 q 390 -239 418 -212 q 315 -265 361 -265 m 316 804 q 241 831 271 804 q 212 897 212 859 q 241 963 212 938 q 316 989 271 989 q 390 963 361 989 q 419 897 419 937 q 390 831 419 857 q 316 804 361 804 z "},"Ṣ":{"ha":779,"x_min":62,"x_max":730,"o":"m 66 37 l 66 254 q 195 180 125 205 q 334 155 264 155 q 407 163 376 155 q 458 183 437 170 q 489 215 479 197 q 499 254 499 233 q 483 304 499 282 q 438 346 467 327 q 372 382 410 365 q 288 418 333 400 q 118 534 174 466 q 62 700 62 603 q 93 830 62 776 q 176 920 123 885 q 298 972 229 956 q 444 989 367 989 q 579 980 520 989 q 687 951 637 970 l 687 749 q 634 779 663 766 q 574 800 605 791 q 514 812 544 808 q 456 817 484 817 q 389 809 419 817 q 337 789 358 802 q 304 759 316 777 q 293 718 293 741 q 306 674 293 694 q 342 638 319 655 q 400 604 366 621 q 477 570 434 587 q 582 518 535 545 q 661 456 628 490 q 712 377 694 421 q 730 273 730 332 q 699 137 730 192 q 615 47 668 81 q 492 -2 562 13 q 344 -17 422 -17 q 192 -3 264 -17 q 66 37 119 10 m 359 -265 q 284 -238 313 -265 q 254 -172 254 -211 q 284 -106 254 -132 q 359 -81 314 -81 q 433 -106 404 -81 q 462 -172 462 -132 q 433 -239 462 -212 q 359 -265 404 -265 z "},"ṣ":{"ha":611,"x_min":45,"x_max":578,"o":"m 45 18 l 45 192 q 150 144 98 160 q 250 129 203 129 q 339 144 307 129 q 372 192 372 160 q 357 226 372 212 q 319 250 342 239 q 268 268 296 260 q 214 286 240 276 q 141 320 173 302 q 89 361 110 338 q 56 416 67 385 q 45 490 45 448 q 70 591 45 549 q 138 660 96 633 q 235 699 180 686 q 349 711 290 711 q 442 704 395 711 q 536 684 490 697 l 536 518 q 449 554 495 542 q 357 566 402 566 q 318 562 336 566 q 285 551 299 558 q 262 533 271 544 q 254 507 254 522 q 267 475 254 488 q 298 451 279 461 q 342 434 318 441 q 390 418 366 426 q 467 385 433 403 q 527 344 502 368 q 565 288 551 320 q 578 212 578 256 q 551 107 578 151 q 480 36 524 63 q 377 -4 435 8 q 257 -17 319 -17 q 45 18 142 -17 m 318 -265 q 243 -238 273 -265 q 214 -172 214 -211 q 243 -106 214 -132 q 318 -81 273 -81 q 392 -106 363 -81 q 421 -172 421 -132 q 392 -239 421 -212 q 318 -265 363 -265 z "},"Ş":{"ha":779,"x_min":62,"x_max":730,"o":"m 66 37 l 66 254 q 195 180 125 205 q 334 155 264 155 q 407 163 376 155 q 458 183 437 170 q 489 215 479 197 q 499 254 499 233 q 483 304 499 282 q 438 346 467 327 q 372 382 410 365 q 288 418 333 400 q 118 534 174 466 q 62 700 62 603 q 93 830 62 776 q 176 920 123 885 q 298 972 229 956 q 444 989 367 989 q 579 980 520 989 q 687 951 637 970 l 687 749 q 634 779 663 766 q 574 800 605 791 q 514 812 544 808 q 456 817 484 817 q 389 809 419 817 q 337 789 358 802 q 304 759 316 777 q 293 718 293 741 q 306 674 293 694 q 342 638 319 655 q 400 604 366 621 q 477 570 434 587 q 582 518 535 545 q 661 456 628 490 q 712 377 694 421 q 730 273 730 332 q 699 137 730 192 q 615 47 668 81 q 492 -2 562 13 q 344 -17 422 -17 q 192 -3 264 -17 q 66 37 119 10 m 283 -306 l 283 -212 q 332 -216 307 -216 q 415 -167 415 -216 q 340 -122 415 -122 q 315 -123 331 -122 l 315 0 l 431 0 l 431 -56 q 558 -168 558 -61 q 342 -309 558 -309 q 283 -306 311 -309 z "},"ş":{"ha":611,"x_min":45,"x_max":578,"o":"m 45 18 l 45 192 q 150 144 98 160 q 250 129 203 129 q 339 144 307 129 q 372 192 372 160 q 357 226 372 212 q 319 250 342 239 q 268 268 296 260 q 214 286 240 276 q 141 320 173 302 q 89 361 110 338 q 56 416 67 385 q 45 490 45 448 q 70 591 45 549 q 138 660 96 633 q 235 699 180 686 q 349 711 290 711 q 442 704 395 711 q 536 684 490 697 l 536 518 q 449 554 495 542 q 357 566 402 566 q 318 562 336 566 q 285 551 299 558 q 262 533 271 544 q 254 507 254 522 q 267 475 254 488 q 298 451 279 461 q 342 434 318 441 q 390 418 366 426 q 467 385 433 403 q 527 344 502 368 q 565 288 551 320 q 578 212 578 256 q 551 107 578 151 q 480 36 524 63 q 377 -4 435 8 q 257 -17 319 -17 q 45 18 142 -17 m 189 -306 l 189 -212 q 238 -216 213 -216 q 321 -167 321 -216 q 246 -122 321 -122 q 221 -123 237 -122 l 221 0 l 338 0 l 338 -56 q 465 -168 465 -61 q 249 -309 465 -309 q 189 -306 218 -309 z "},"Ș":{"ha":779,"x_min":62,"x_max":730,"o":"m 66 37 l 66 254 q 195 180 125 205 q 334 155 264 155 q 407 163 376 155 q 458 183 437 170 q 489 215 479 197 q 499 254 499 233 q 483 304 499 282 q 438 346 467 327 q 372 382 410 365 q 288 418 333 400 q 118 534 174 466 q 62 700 62 603 q 93 830 62 776 q 176 920 123 885 q 298 972 229 956 q 444 989 367 989 q 579 980 520 989 q 687 951 637 970 l 687 749 q 634 779 663 766 q 574 800 605 791 q 514 812 544 808 q 456 817 484 817 q 389 809 419 817 q 337 789 358 802 q 304 759 316 777 q 293 718 293 741 q 306 674 293 694 q 342 638 319 655 q 400 604 366 621 q 477 570 434 587 q 582 518 535 545 q 661 456 628 490 q 712 377 694 421 q 730 273 730 332 q 699 137 730 192 q 615 47 668 81 q 492 -2 562 13 q 344 -17 422 -17 q 192 -3 264 -17 q 66 37 119 10 m 494 -79 l 380 -318 l 249 -318 l 310 -79 l 494 -79 z "},"ș":{"ha":611,"x_min":45,"x_max":578,"o":"m 45 18 l 45 192 q 150 144 98 160 q 250 129 203 129 q 339 144 307 129 q 372 192 372 160 q 357 226 372 212 q 319 250 342 239 q 268 268 296 260 q 214 286 240 276 q 141 320 173 302 q 89 361 110 338 q 56 416 67 385 q 45 490 45 448 q 70 591 45 549 q 138 660 96 633 q 235 699 180 686 q 349 711 290 711 q 442 704 395 711 q 536 684 490 697 l 536 518 q 449 554 495 542 q 357 566 402 566 q 318 562 336 566 q 285 551 299 558 q 262 533 271 544 q 254 507 254 522 q 267 475 254 488 q 298 451 279 461 q 342 434 318 441 q 390 418 366 426 q 467 385 433 403 q 527 344 502 368 q 565 288 551 320 q 578 212 578 256 q 551 107 578 151 q 480 36 524 63 q 377 -4 435 8 q 257 -17 319 -17 q 45 18 142 -17 m 412 -79 l 298 -318 l 167 -318 l 228 -79 l 412 -79 z "},"ß":{"ha":872,"x_min":90,"x_max":832,"o":"m 370 5 l 370 183 q 489 147 426 147 q 579 183 545 147 q 612 281 612 218 q 552 405 612 359 q 382 454 492 451 l 382 604 q 499 650 457 610 q 541 758 541 691 q 510 848 541 815 q 429 880 480 880 q 304 714 304 880 l 304 0 l 90 0 l 90 711 q 183 954 90 863 q 441 1044 276 1044 q 674 970 589 1044 q 760 779 760 896 q 711 634 760 696 q 586 549 663 572 l 586 546 q 832 275 832 499 q 746 68 832 153 q 514 -17 661 -17 q 370 5 443 -17 z "},"Ʃ":{"ha":790,"x_min":28,"x_max":763,"o":"m 763 0 l 28 0 l 28 117 l 342 492 l 45 847 l 45 972 l 721 972 l 721 793 l 355 793 l 594 502 l 334 176 l 763 176 l 763 0 z "},"ʃ":{"ha":439,"x_min":-69,"x_max":509,"o":"m 509 864 q 429 880 471 880 q 326 768 326 880 l 326 -62 q 249 -253 326 -180 q 39 -326 172 -326 q -69 -313 -20 -326 l -69 -146 q 9 -163 -29 -163 q 113 -50 113 -163 l 113 781 q 190 971 113 899 q 400 1044 267 1044 q 509 1031 460 1044 l 509 864 z "},"T":{"ha":814,"x_min":21,"x_max":794,"o":"m 794 794 l 517 794 l 517 0 l 297 0 l 297 794 l 21 794 l 21 972 l 794 972 l 794 794 z "},"t":{"ha":541,"x_min":28,"x_max":510,"o":"m 510 8 q 367 -17 463 -17 q 140 218 140 -17 l 140 536 l 28 536 l 28 694 l 140 694 l 140 844 l 354 905 l 354 694 l 510 694 l 510 536 l 354 536 l 354 256 q 440 147 354 147 q 510 167 474 147 l 510 8 z "},"Ť":{"ha":814,"x_min":21,"x_max":794,"o":"m 794 794 l 517 794 l 517 0 l 297 0 l 297 794 l 21 794 l 21 972 l 794 972 l 794 794 m 652 1283 l 490 1063 l 322 1063 l 163 1283 l 302 1283 l 407 1156 l 513 1283 l 652 1283 z "},"ť":{"ha":712,"x_min":28,"x_max":755,"o":"m 510 8 q 367 -17 463 -17 q 140 218 140 -17 l 140 536 l 28 536 l 28 694 l 140 694 l 140 844 l 354 905 l 354 694 l 510 694 l 510 536 l 354 536 l 354 256 q 440 147 354 147 q 510 167 474 147 l 510 8 m 755 1028 l 641 789 l 509 789 l 570 1028 l 755 1028 z "},"Ṫ":{"ha":814,"x_min":21,"x_max":794,"o":"m 794 794 l 517 794 l 517 0 l 297 0 l 297 794 l 21 794 l 21 972 l 794 972 l 794 794 m 406 1063 q 331 1090 361 1063 q 302 1156 302 1117 q 332 1222 302 1196 q 406 1247 361 1247 q 480 1221 452 1247 q 509 1156 509 1196 q 480 1089 509 1116 q 406 1063 452 1063 z "},"ṫ":{"ha":541,"x_min":28,"x_max":510,"o":"m 510 8 q 367 -17 463 -17 q 140 218 140 -17 l 140 536 l 28 536 l 28 694 l 140 694 l 140 844 l 354 905 l 354 694 l 510 694 l 510 536 l 354 536 l 354 256 q 440 147 354 147 q 510 167 474 147 l 510 8 m 252 974 q 177 1001 206 974 q 147 1067 147 1028 q 177 1133 147 1107 q 252 1158 207 1158 q 326 1133 297 1158 q 355 1067 355 1107 q 326 1000 355 1027 q 252 974 297 974 z "},"Ṱ":{"ha":814,"x_min":21,"x_max":794,"o":"m 794 794 l 517 794 l 517 0 l 297 0 l 297 794 l 21 794 l 21 972 l 794 972 l 794 794 m 650 -300 l 509 -300 l 402 -173 l 302 -300 l 162 -300 l 321 -80 l 490 -80 l 650 -300 z "},"ṱ":{"ha":541,"x_min":28,"x_max":534,"o":"m 510 8 q 367 -17 463 -17 q 140 218 140 -17 l 140 536 l 28 536 l 28 694 l 140 694 l 140 844 l 354 905 l 354 694 l 510 694 l 510 536 l 354 536 l 354 256 q 440 147 354 147 q 510 167 474 147 l 510 8 m 534 -300 l 394 -300 l 287 -173 l 187 -300 l 47 -300 l 206 -80 l 374 -80 l 534 -300 z "},"Ṯ":{"ha":814,"x_min":21,"x_max":794,"o":"m 794 794 l 517 794 l 517 0 l 297 0 l 297 794 l 21 794 l 21 972 l 794 972 l 794 794 m 608 -197 l 211 -197 l 211 -81 l 608 -81 l 608 -197 z "},"ṯ":{"ha":541,"x_min":28,"x_max":510,"o":"m 510 8 q 367 -17 463 -17 q 140 218 140 -17 l 140 536 l 28 536 l 28 694 l 140 694 l 140 844 l 354 905 l 354 694 l 510 694 l 510 536 l 354 536 l 354 256 q 440 147 354 147 q 510 167 474 147 l 510 8 m 510 -197 l 113 -197 l 113 -81 l 510 -81 l 510 -197 z "},"Ṭ":{"ha":814,"x_min":21,"x_max":794,"o":"m 794 794 l 517 794 l 517 0 l 297 0 l 297 794 l 21 794 l 21 972 l 794 972 l 794 794 m 407 -265 q 332 -238 361 -265 q 302 -172 302 -211 q 332 -106 302 -132 q 407 -81 362 -81 q 481 -106 452 -81 q 510 -172 510 -132 q 481 -239 510 -212 q 407 -265 452 -265 z "},"ṭ":{"ha":541,"x_min":28,"x_max":510,"o":"m 510 8 q 367 -17 463 -17 q 140 218 140 -17 l 140 536 l 28 536 l 28 694 l 140 694 l 140 844 l 354 905 l 354 694 l 510 694 l 510 536 l 354 536 l 354 256 q 440 147 354 147 q 510 167 474 147 l 510 8 m 281 -265 q 206 -238 235 -265 q 176 -172 176 -211 q 206 -106 176 -132 q 281 -81 236 -81 q 355 -106 326 -81 q 384 -172 384 -132 q 355 -239 384 -212 q 281 -265 326 -265 z "},"Ţ":{"ha":814,"x_min":21,"x_max":794,"o":"m 794 794 l 517 794 l 517 0 l 297 0 l 297 794 l 21 794 l 21 972 l 794 972 l 794 794 m 289 -306 l 289 -212 q 338 -216 313 -216 q 421 -167 421 -216 q 346 -122 421 -122 q 321 -123 337 -122 l 321 0 l 437 0 l 437 -56 q 564 -168 564 -61 q 349 -309 564 -309 q 289 -306 317 -309 z "},"ţ":{"ha":541,"x_min":28,"x_max":510,"o":"m 510 8 q 367 -17 463 -17 q 140 218 140 -17 l 140 536 l 28 536 l 28 694 l 140 694 l 140 844 l 354 905 l 354 694 l 510 694 l 510 536 l 354 536 l 354 256 q 440 147 354 147 q 510 167 474 147 l 510 8 m 229 -306 l 229 -212 q 278 -216 253 -216 q 361 -167 361 -216 q 286 -122 361 -122 q 261 -123 277 -122 l 261 0 l 378 0 l 378 -56 q 505 -168 505 -61 q 289 -309 505 -309 q 229 -306 258 -309 z "},"Ț":{"ha":814,"x_min":21,"x_max":794,"o":"m 794 794 l 517 794 l 517 0 l 297 0 l 297 794 l 21 794 l 21 972 l 794 972 l 794 794 m 524 -79 l 410 -318 l 278 -318 l 339 -79 l 524 -79 z "},"ț":{"ha":541,"x_min":28,"x_max":510,"o":"m 510 8 q 367 -17 463 -17 q 140 218 140 -17 l 140 536 l 28 536 l 28 694 l 140 694 l 140 844 l 354 905 l 354 694 l 510 694 l 510 536 l 354 536 l 354 256 q 440 147 354 147 q 510 167 474 147 l 510 8 m 435 -79 l 321 -318 l 190 -318 l 251 -79 l 435 -79 z "},"Ŧ":{"ha":814,"x_min":21,"x_max":794,"o":"m 794 794 l 517 794 l 517 546 l 677 546 l 677 366 l 517 366 l 517 0 l 297 0 l 297 366 l 136 366 l 136 546 l 297 546 l 297 794 l 21 794 l 21 972 l 794 972 l 794 794 z "},"ŧ":{"ha":541,"x_min":28,"x_max":510,"o":"m 510 8 q 367 -17 463 -17 q 140 218 140 -17 l 140 300 l 41 300 l 41 439 l 140 439 l 140 536 l 28 536 l 28 694 l 140 694 l 140 844 l 354 905 l 354 694 l 510 694 l 510 536 l 354 536 l 354 439 l 503 439 l 503 300 l 354 300 l 354 256 q 440 147 354 147 q 510 167 474 147 l 510 8 z "},"Ƭ":{"ha":885,"x_min":-14,"x_max":864,"o":"m 864 794 l 586 794 l 586 0 l 367 0 l 367 794 l 304 794 q 210 763 245 794 q 175 681 175 731 q 186 607 175 644 l 0 607 q -14 696 -14 650 q 72 896 -14 819 q 313 972 158 972 l 864 972 l 864 794 z "},"ƭ":{"ha":541,"x_min":28,"x_max":510,"o":"m 510 8 q 367 -17 463 -17 q 140 218 140 -17 l 140 536 l 28 536 l 28 694 l 140 694 l 140 768 q 203 970 140 897 q 376 1044 265 1044 q 510 1021 448 1044 l 510 860 q 437 880 473 880 q 353 762 353 880 l 353 694 l 510 694 l 510 536 l 353 536 l 353 256 q 440 147 353 147 q 510 167 474 147 l 510 8 z "},"Ʈ":{"ha":815,"x_min":21,"x_max":794,"o":"m 794 794 l 517 794 l 517 39 q 624 -89 517 -89 q 704 -71 666 -89 l 704 -256 q 583 -278 648 -278 q 371 -197 445 -278 q 297 32 297 -117 l 297 794 l 21 794 l 21 972 l 794 972 l 794 794 z "},"ʈ":{"ha":541,"x_min":28,"x_max":510,"o":"m 510 -301 q 367 -326 463 -326 q 140 -92 140 -326 l 140 536 l 28 536 l 28 694 l 140 694 l 140 844 l 353 905 l 353 694 l 510 694 l 510 536 l 353 536 l 353 -54 q 440 -163 353 -163 q 510 -143 477 -163 l 510 -301 z "},"Ð":{"ha":1024,"x_min":0,"x_max":974,"o":"m 111 0 l 111 397 l 0 397 l 0 578 l 111 578 l 111 972 l 456 972 q 974 498 974 972 q 832 136 974 271 q 456 0 691 0 l 111 0 m 330 794 l 330 578 l 514 578 l 514 397 l 330 397 l 330 178 l 439 178 q 662 263 581 178 q 743 496 743 349 q 663 714 743 635 q 437 794 583 794 l 330 794 z "},"ð":{"ha":824,"x_min":49,"x_max":775,"o":"m 513 654 l 515 656 q 383 817 458 755 l 186 720 l 131 815 l 294 893 q 111 1028 188 978 l 350 1028 q 439 962 357 1024 l 624 1053 l 676 960 l 530 889 q 775 382 775 692 q 673 94 775 205 q 406 -17 572 -17 q 143 81 237 -17 q 49 349 49 179 q 139 605 49 505 q 374 705 229 705 q 513 654 453 705 m 415 547 q 306 494 345 547 q 267 349 267 441 q 305 200 267 254 q 412 147 344 147 q 518 202 479 147 q 557 353 557 258 q 415 547 557 547 z "},"Þ":{"ha":853,"x_min":111,"x_max":822,"o":"m 330 191 l 330 0 l 111 0 l 111 972 l 330 972 l 330 829 l 454 829 q 822 519 822 829 q 716 282 822 373 q 435 191 611 191 l 330 191 m 330 661 l 330 358 l 416 358 q 591 511 591 358 q 416 661 591 661 l 330 661 z "},"þ":{"ha":861,"x_min":90,"x_max":812,"o":"m 307 81 l 304 81 l 304 -319 l 90 -319 l 90 1028 l 304 1028 l 304 590 l 307 590 q 530 711 387 711 q 739 619 665 711 q 812 367 812 526 q 727 88 812 193 q 498 -17 641 -17 q 307 81 373 -17 m 301 366 l 301 310 q 339 193 301 238 q 439 147 377 147 q 552 204 512 147 q 593 364 593 260 q 450 547 593 547 q 343 497 385 547 q 301 366 301 448 z "},"U":{"ha":1004,"x_min":100,"x_max":904,"o":"m 904 421 q 496 -17 904 -17 q 100 411 100 -17 l 100 972 l 319 972 l 319 408 q 504 172 319 172 q 685 400 685 172 l 685 972 l 904 972 l 904 421 z "},"u":{"ha":840,"x_min":79,"x_max":750,"o":"m 750 0 l 536 0 l 536 106 l 533 106 q 321 -17 454 -17 q 79 275 79 -17 l 79 694 l 293 694 l 293 294 q 410 147 293 147 q 502 188 467 147 q 536 297 536 228 l 536 694 l 750 694 l 750 0 z "},"Ù":{"ha":1004,"x_min":100,"x_max":904,"o":"m 904 421 q 496 -17 904 -17 q 100 411 100 -17 l 100 972 l 319 972 l 319 408 q 504 172 319 172 q 685 400 685 172 l 685 972 l 904 972 l 904 421 m 624 1063 l 470 1063 l 257 1282 l 448 1282 l 624 1063 z "},"ù":{"ha":840,"x_min":79,"x_max":750,"o":"m 750 0 l 536 0 l 536 106 l 533 106 q 321 -17 454 -17 q 79 275 79 -17 l 79 694 l 293 694 l 293 294 q 410 147 293 147 q 502 188 467 147 q 536 297 536 228 l 536 694 l 750 694 l 750 0 m 532 804 l 378 804 l 165 1023 l 355 1023 l 532 804 z "},"Ú":{"ha":1004,"x_min":100,"x_max":904,"o":"m 904 421 q 496 -17 904 -17 q 100 411 100 -17 l 100 972 l 319 972 l 319 408 q 504 172 319 172 q 685 400 685 172 l 685 972 l 904 972 l 904 421 m 738 1282 l 526 1063 l 371 1063 l 547 1282 l 738 1282 z "},"ú":{"ha":840,"x_min":79,"x_max":750,"o":"m 750 0 l 536 0 l 536 106 l 533 106 q 321 -17 454 -17 q 79 275 79 -17 l 79 694 l 293 694 l 293 294 q 410 147 293 147 q 502 188 467 147 q 536 297 536 228 l 536 694 l 750 694 l 750 0 m 663 1023 l 450 804 l 296 804 l 472 1023 l 663 1023 z "},"Û":{"ha":1004,"x_min":100,"x_max":904,"o":"m 904 421 q 496 -17 904 -17 q 100 411 100 -17 l 100 972 l 319 972 l 319 408 q 504 172 319 172 q 685 400 685 172 l 685 972 l 904 972 l 904 421 m 745 1063 l 605 1063 l 498 1190 l 398 1063 l 258 1063 l 417 1283 l 585 1283 l 745 1063 z "},"û":{"ha":840,"x_min":79,"x_max":750,"o":"m 750 0 l 536 0 l 536 106 l 533 106 q 321 -17 454 -17 q 79 275 79 -17 l 79 694 l 293 694 l 293 294 q 410 147 293 147 q 502 188 467 147 q 536 297 536 228 l 536 694 l 750 694 l 750 0 m 658 804 l 517 804 l 410 932 l 311 804 l 170 804 l 330 1025 l 498 1025 l 658 804 z "},"Ǔ":{"ha":1004,"x_min":100,"x_max":904,"o":"m 904 421 q 496 -17 904 -17 q 100 411 100 -17 l 100 972 l 319 972 l 319 408 q 504 172 319 172 q 685 400 685 172 l 685 972 l 904 972 l 904 421 m 771 1283 l 610 1063 l 441 1063 l 282 1283 l 421 1283 l 526 1156 l 632 1283 l 771 1283 z "},"ǔ":{"ha":840,"x_min":79,"x_max":750,"o":"m 750 0 l 536 0 l 536 106 l 533 106 q 321 -17 454 -17 q 79 275 79 -17 l 79 694 l 293 694 l 293 294 q 410 147 293 147 q 502 188 467 147 q 536 297 536 228 l 536 694 l 750 694 l 750 0 m 665 1025 l 504 804 l 336 804 l 176 1025 l 315 1025 l 420 897 l 526 1025 l 665 1025 z "},"Ũ":{"ha":1004,"x_min":100,"x_max":904,"o":"m 904 421 q 496 -17 904 -17 q 100 411 100 -17 l 100 972 l 319 972 l 319 408 q 504 172 319 172 q 685 400 685 172 l 685 972 l 904 972 l 904 421 m 746 1274 q 708 1127 746 1179 q 606 1075 671 1075 q 492 1104 547 1075 q 408 1136 431 1136 q 354 1063 354 1136 l 258 1063 q 296 1209 258 1157 q 400 1261 333 1261 q 514 1228 455 1261 q 595 1198 568 1198 q 648 1274 648 1198 l 746 1274 z "},"ũ":{"ha":840,"x_min":79,"x_max":750,"o":"m 750 0 l 536 0 l 536 106 l 533 106 q 321 -17 454 -17 q 79 275 79 -17 l 79 694 l 293 694 l 293 294 q 410 147 293 147 q 502 188 467 147 q 536 297 536 228 l 536 694 l 750 694 l 750 0 m 664 1015 q 626 868 664 920 q 524 817 589 817 q 410 846 465 817 q 326 878 349 878 q 272 804 272 878 l 176 804 q 214 951 176 899 q 318 1003 251 1003 q 432 970 373 1003 q 513 940 486 940 q 566 1015 566 940 l 664 1015 z "},"Ṹ":{"ha":1004,"x_min":100,"x_max":904,"o":"m 904 421 q 496 -17 904 -17 q 100 411 100 -17 l 100 972 l 319 972 l 319 408 q 504 172 319 172 q 685 400 685 172 l 685 972 l 904 972 l 904 421 m 694 1409 l 515 1242 l 381 1242 l 503 1409 l 694 1409 m 747 1210 q 605 1054 747 1054 q 503 1078 565 1054 q 416 1103 438 1103 q 365 1050 365 1103 l 267 1050 q 305 1166 267 1124 q 412 1207 342 1207 q 515 1183 460 1207 q 598 1158 572 1158 q 649 1210 649 1158 l 747 1210 z "},"ṹ":{"ha":840,"x_min":79,"x_max":750,"o":"m 750 0 l 536 0 l 536 106 l 533 106 q 321 -17 454 -17 q 79 275 79 -17 l 79 694 l 293 694 l 293 294 q 410 147 293 147 q 502 188 467 147 q 536 297 536 228 l 536 694 l 750 694 l 750 0 m 606 1174 l 427 1007 l 294 1007 l 416 1174 l 606 1174 m 659 975 q 517 819 659 819 q 416 843 477 819 q 328 868 351 868 q 277 815 277 868 l 180 815 q 217 931 180 890 q 324 972 255 972 q 427 949 373 972 q 511 924 485 924 q 562 975 562 924 l 659 975 z "},"Ü":{"ha":1004,"x_min":100,"x_max":904,"o":"m 904 421 q 496 -17 904 -17 q 100 411 100 -17 l 100 972 l 319 972 l 319 408 q 504 172 319 172 q 685 400 685 172 l 685 972 l 904 972 l 904 421 m 657 1063 q 583 1089 612 1063 q 553 1156 553 1116 q 583 1223 553 1197 q 657 1249 612 1249 q 732 1222 703 1249 q 762 1156 762 1196 q 732 1089 762 1115 q 657 1063 703 1063 m 347 1063 q 271 1089 300 1063 q 242 1156 242 1116 q 272 1222 242 1196 q 347 1249 302 1249 q 421 1222 393 1249 q 450 1156 450 1196 q 421 1088 450 1114 q 347 1063 393 1063 z "},"ü":{"ha":840,"x_min":79,"x_max":750,"o":"m 750 0 l 536 0 l 536 106 l 533 106 q 321 -17 454 -17 q 79 275 79 -17 l 79 694 l 293 694 l 293 294 q 410 147 293 147 q 502 188 467 147 q 536 297 536 228 l 536 694 l 750 694 l 750 0 m 572 804 q 498 831 527 804 q 469 897 469 857 q 498 964 469 939 q 572 990 527 990 q 647 964 618 990 q 677 897 677 938 q 648 830 677 857 q 572 804 618 804 m 262 804 q 186 831 216 804 q 157 897 157 858 q 187 964 157 938 q 262 990 217 990 q 337 964 308 990 q 366 897 366 938 q 337 830 366 856 q 262 804 308 804 z "},"Ǜ":{"ha":1004,"x_min":100,"x_max":904,"o":"m 904 421 q 496 -17 904 -17 q 100 411 100 -17 l 100 972 l 319 972 l 319 408 q 504 172 319 172 q 685 400 685 172 l 685 972 l 904 972 l 904 421 m 602 1262 l 448 1262 l 235 1481 l 425 1481 l 602 1262 m 666 1068 q 606 1088 629 1068 q 584 1141 584 1109 q 607 1193 584 1173 q 666 1213 630 1213 q 725 1193 701 1213 q 748 1141 748 1173 q 725 1089 748 1110 q 666 1068 702 1068 m 368 1068 q 309 1088 331 1068 q 286 1141 286 1109 q 309 1193 286 1173 q 368 1213 332 1213 q 427 1193 404 1213 q 450 1141 450 1173 q 427 1089 450 1109 q 368 1068 404 1068 z "},"ǜ":{"ha":840,"x_min":79,"x_max":750,"o":"m 750 0 l 536 0 l 536 106 l 533 106 q 321 -17 454 -17 q 79 275 79 -17 l 79 694 l 293 694 l 293 294 q 410 147 293 147 q 502 188 467 147 q 536 297 536 228 l 536 694 l 750 694 l 750 0 m 521 1005 l 366 1005 l 154 1224 l 344 1224 l 521 1005 m 585 811 q 525 831 547 811 q 503 884 503 852 q 526 936 503 916 q 585 956 549 956 q 643 936 620 956 q 667 884 667 916 q 644 832 667 853 q 585 811 621 811 m 287 811 q 227 831 250 811 q 205 884 205 852 q 228 936 205 916 q 287 956 251 956 q 346 936 323 956 q 368 884 368 916 q 345 832 368 852 q 287 811 322 811 z "}}}
